<svg xmlns="http://www.w3.org/2000/svg" width="31.664" height="23.083" viewBox="0 0 31.664 23.083">
    <defs>
        <style>
            .cls-1{fill:#434343;fill-rule:evenodd}
        </style>
    </defs>
    <g id="noun_Car_1566240" transform="translate(-16.77 -.455)">
        <g id="Group_608" data-name="Group 608" transform="translate(16.77 .455)">
            <path id="Path_268" d="M5.1 8.149C5.744 6.744 6.346 5.3 7.149 3.693c.442-.763.923-1.445 1.807-1.525h13.528c.883.08 1.365.763 1.807 1.525.8 1.606 1.405 3.051 2.047 4.456zm6.343 5.781h8.511a.944.944 0 0 1 0 1.887h-8.51a.944.944 0 0 1 0-1.887zM8.955 0C7.51 0 6.627.522 5.422 2.208L3.415 6.744H.364c-.482 0-1.364 2.489 1.847 2.57l-1.084 2.609c.04 3.332.04 6.624.04 9.916a1.251 1.251 0 0 0 1.244 1.244h4.176a1.217 1.217 0 0 0 1.2-1.244v-2.73h15.821v2.73a1.251 1.251 0 0 0 1.244 1.244h4.175a1.217 1.217 0 0 0 1.2-1.244c0-3.292.04-6.584.04-9.916l-1.079-2.609c3.252-.08 2.328-2.569 1.887-2.569h-3.051l-2.007-4.537C24.812.522 23.929 0 22.484 0zm16.78 12.164a2.013 2.013 0 0 0-2.007 2.007 2.04 2.04 0 0 0 2.007 2.007 2.013 2.013 0 0 0 2.007-2.007 1.988 1.988 0 0 0-2.006-2.007zm-20.032 0a2.013 2.013 0 0 1 2.007 2.007 2.04 2.04 0 0 1-2.01 2.007 2.013 2.013 0 0 1-2-2.007 1.988 1.988 0 0 1 2-2.007z" class="cls-1" data-name="Path 268" transform="translate(.122)"/>
        </g>
    </g>
</svg>
