<svg xmlns="http://www.w3.org/2000/svg" viewBox="0 0 22 20">
    <path
      fill="currentColor"
      fillRule="evenodd"
      d="M12.562 19.75c-.166.167-.343.25-.53.25a.87.87 0 0 1-.532-.187l-1.25-1.25a.914.914 0 0 1-.188-.563c0-.208.063-.375.188-.5l7.437-7.5-7.437-7.5a.676.676 0 0 1-.188-.5c0-.208.063-.396.188-.562L11.5.188A.87.87 0 0 1 12.031 0a.87.87 0 0 1 .531.188l9.188 9.25a.914.914 0 0 1 .187.562.914.914 0 0 1-.187.563V10.5l-9.188 9.25zM11.75 9.438a.914.914 0 0 1 .187.562.676.676 0 0 1-.187.5l-9.188 9.313a.87.87 0 0 1-.53.187c-.188 0-.365-.083-.532-.25L.25 18.563A.914.914 0 0 1 .062 18c0-.208.063-.375.188-.5L7.687 10 .25 2.5A.676.676 0 0 1 .062 2c0-.208.063-.396.188-.562L1.5.188A.87.87 0 0 1 2.031 0a.87.87 0 0 1 .531.188l9.188 9.25z"
    />
  </svg>
