<svg viewBox="0 0 20 20" version="1.1" xmlnsXlink="http://www.w3.org/1999/xlink">
  <path
    d="M5.497 8.872c.305 0 .568.111.791.334.223.223.334.486.334.791 0 .305-.111.569-.334.791a1.081 1.081 0 0 1-.791.335c-.305 0-.569-.112-.791-.335a1.082 1.082 0 0 1-.334-.79c0-.306.111-.57.334-.792.222-.223.486-.334.79-.334zM15.73 3.034a8.826 8.826 0 0 1 2.408 3.077A8.853 8.853 0 0 1 19 9.962c0 .797-.281 1.471-.844 2.022-.563.551-1.254.827-2.075.827H13.55c-.493 0-.868.21-1.126.633a1.516 1.516 0 0 0-.193.668c-.012.234.03.457.123.668.21.422.316.873.316 1.354 0 .48-.105.926-.316 1.336-.211.41-.487.739-.826.985a2.67 2.67 0 0 1-1.143.475 5.57 5.57 0 0 1-.915.07c-1.031 0-2.068-.24-3.112-.72a9.02 9.02 0 0 1-2.795-2.023 8.77 8.77 0 0 1-2.198-3.745 9.215 9.215 0 0 1-.193-4.344c.351-1.758 1.172-3.276 2.461-4.554 1.29-1.277 2.813-2.092 4.572-2.444a9.09 9.09 0 0 1 3.973.106 9.187 9.187 0 0 1 3.552 1.758zm.351 8.089c.352 0 .645-.112.88-.335.234-.222.351-.498.351-.826 0-1.102-.234-2.14-.703-3.112a7.453 7.453 0 0 0-1.97-2.515 6.982 6.982 0 0 0-2.865-1.442 7.602 7.602 0 0 0-3.253-.07 7.07 7.07 0 0 0-3.71 1.987C3.768 5.853 3.106 7.078 2.824 8.485a7.411 7.411 0 0 0 .159 3.552 7.308 7.308 0 0 0 1.81 3.06 7.147 7.147 0 0 0 2.585 1.775c.973.387 1.893.522 2.76.405.305-.047.54-.235.704-.563.094-.187.14-.38.14-.58 0-.2-.046-.393-.14-.58a2.992 2.992 0 0 1-.317-1.495c.024-.528.176-1.02.458-1.477.28-.457.65-.815 1.107-1.073a2.924 2.924 0 0 1 1.46-.386h2.531zM6.622 5.496c.305 0 .569.111.791.334.223.223.334.486.334.791 0 .305-.111.569-.334.791a1.081 1.081 0 0 1-.79.334c-.306 0-.57-.11-.792-.334a1.082 1.082 0 0 1-.334-.79c0-.306.111-.57.334-.792.223-.223.486-.334.791-.334zM9.998 4.37c.305 0 .568.112.791.335.223.222.334.486.334.79 0 .306-.111.57-.334.792a1.081 1.081 0 0 1-.791.334c-.305 0-.569-.111-.791-.334a1.082 1.082 0 0 1-.334-.791c0-.305.111-.569.334-.791.222-.223.486-.335.79-.335zm3.376 1.126c.304 0 .568.111.79.334.224.223.335.486.335.791 0 .305-.111.569-.334.791a1.081 1.081 0 0 1-.791.334c-.305 0-.569-.11-.792-.334a1.082 1.082 0 0 1-.334-.79c0-.306.112-.57.334-.792.223-.223.487-.334.792-.334z"
    fill="currentColor"
    fillRule="nonzero"
  />
</svg>
