<svg xmlns="http://www.w3.org/2000/svg" viewBox="0 0 24 24">
  <path
    fill="currentColor"
    fillRule="evenodd"
    d="M20.8 4.707c.384.383.575.848.575 1.395v10.992c0 .547-.191 1.011-.574 1.394a1.899 1.899 0 0 1-1.395.574h-3.281v1.97c0 .546-.191 1.01-.574 1.394a1.899 1.899 0 0 1-1.395.574H4.97a1.899 1.899 0 0 1-1.395-.574A1.899 1.899 0 0 1 3 21.03V7.906c0-.547.191-1.011.574-1.394a1.899 1.899 0 0 1 1.395-.575H8.25V3.97c0-.547.191-1.012.574-1.395A1.899 1.899 0 0 1 10.22 2h7.054c.547 0 1.012.191 1.395.574L20.8 4.707zm-6.89 16.324c.055 0 .11-.027.164-.082.055-.055.082-.11.082-.164v-1.723H10.22a1.899 1.899 0 0 1-1.395-.574 1.899 1.899 0 0 1-.574-1.394V7.906H5.215c-.055 0-.11.028-.164.082-.055.055-.082.11-.082.164v12.633c0 .055.027.11.082.164.054.055.11.082.164.082h8.695zm5.25-3.937c.055 0 .11-.028.164-.082.055-.055.082-.11.082-.164V8.562h-3.61a.95.95 0 0 1-.696-.287.95.95 0 0 1-.288-.697v-3.61h-4.347c-.055 0-.11.028-.164.083-.055.054-.082.11-.082.164v12.633c0 .054.027.109.082.164.054.054.11.082.164.082h8.695zm.246-10.5v-.41c0-.055-.027-.11-.082-.164l-1.969-1.97c-.054-.054-.109-.081-.164-.081h-.41v2.625h2.625z"
  />
</svg>
