<svg xmlns="http://www.w3.org/2000/svg" viewBox="0 0 415.94 49.818">
    <defs>
        <style>
            .cls-1{fill:#fff}
        </style>
    </defs>
    <g id="_Cinema" data-name="Cinema" transform="translate(-61.895 -118.644)">
        <g id="_Cinema-2" data-name="Cinema">
            <g id="Group_156" data-name="Group 156" transform="translate(0 18.804)">
                <path id="Path_269" d="M21.992-11.7l7.754 2.344a14.3 14.3 0 0 1-2.461 5.449 10.68 10.68 0 0 1-4.17 3.3A15.6 15.6 0 0 1 16.777.508 18.391 18.391 0 0 1 9.15-.85a12.093 12.093 0 0 1-5.107-4.775 16.194 16.194 0 0 1-2.148-8.75q0-7.109 3.779-10.928t10.693-3.818q5.41 0 8.506 2.188a12.85 12.85 0 0 1 4.6 6.719l-7.813 1.737a6.692 6.692 0 0 0-.859-1.914 5.09 5.09 0 0 0-1.816-1.562 5.218 5.218 0 0 0-2.4-.547 5.194 5.194 0 0 0-4.609 2.422q-1.211 1.8-1.211 5.645 0 4.766 1.445 6.533a4.953 4.953 0 0 0 4.06 1.767 4.932 4.932 0 0 0 3.838-1.426 8.818 8.818 0 0 0 1.884-4.141zm11.643-16.933H42.5V0h-8.865zm14.513 0h8.262l10.781 15.84v-15.84h8.34V0h-8.34L56.468-15.723V0h-8.32zm32.482 0h23.711v6.113H89.5v4.551h13.77v5.84H89.5v5.645h15.273V0H80.63z" class="cls-1" data-name="Path 269" transform="translate(60 146.136)"/>
                <path id="Path_270" d="M20.547-4.727H10.469L9.082 0H.039L10.8-28.633h9.648L31.211 0h-9.258zm-1.855-6.191l-3.165-10.293-3.144 10.293z" class="cls-1" data-name="Path 270" transform="translate(234.119 143.77)"/>
                <path id="Path_268" d="M.1-28.633h9.255L15.8-8.027l6.348-20.605h8.984L20.508 0h-9.59zm33.537 0H42.5V0h-8.865zm14.494 0h8.848v10.82l9.277-10.82h11.755l-10.43 10.8L78.48 0h-10.9l-6.034-11.777-4.57 4.785V0h-8.848zM98.267-4.727H88.189L86.8 0h-9.041l10.762-28.633h9.648L108.931 0h-9.258zm-1.855-6.191l-3.165-10.293L90.1-10.918zm9.826-17.715h26.895v7.07h-9.023V0h-8.848v-21.562h-9.023zm45.04 23.906H141.2L139.813 0h-9.043l10.762-28.633h9.648L161.942 0h-9.258zm-1.855-6.191l-3.164-10.293-3.145 10.293zm14.65-17.715h8.262l10.781 15.84v-15.84h8.34V0h-8.34l-10.723-15.723V0h-8.32z" class="cls-1" data-name="Path 268" transform="translate(286.379 143.77)"/>
                <path id="Path_114" d="M43.15.659L.818 42.779C-2.069 48.765 3.6 49.834 3.6 49.834h42.12c4.383.106 4.7-3.635 4.7-3.635V3.973C49.457-2.122 43.15.659 43.15.659zm3.779 45.462a.761.761 0 0 1-.758.758h-4.348a.761.761 0 0 1-.758-.758v-3.456a.761.761 0 0 1 .758-.758h4.348a.761.761 0 0 1 .758.758zm0-8.67a.761.761 0 0 1-.758.758h-4.348a.761.761 0 0 1-.758-.758v-3.456a.761.761 0 0 1 .758-.758h4.348a.761.761 0 0 1 .758.758zm0-8.673a.761.761 0 0 1-.758.758h-4.348a.761.761 0 0 1-.758-.758v-3.456a.761.761 0 0 1 .758-.758h4.348a.761.761 0 0 1 .758.758zm0-8.67a.761.761 0 0 1-.758.758h-4.348a.761.761 0 0 1-.758-.758v-3.456a.761.761 0 0 1 .758-.758h4.348a.761.761 0 0 1 .758.758zm0-8.67a.761.761 0 0 1-.758.758h-4.348a.761.761 0 0 1-.758-.758V7.982a.761.761 0 0 1 .758-.758h4.348a.761.761 0 0 1 .758.758z" class="cls-1" data-name="Path 114" transform="translate(177.088 99.822)"/>
                <path id="Path_115" d="M9.561.743C2.291-2.144 1.97 4.272 1.97 4.272v33.482l21.965-21.982zM9.6 24.264a.761.761 0 0 1-.758.758H4.49a.761.761 0 0 1-.758-.758v-3.456a.761.761 0 0 1 .758-.758h4.348a.761.761 0 0 1 .758.758zm0-7.386a.761.761 0 0 1-.758.758H4.49a.761.761 0 0 1-.758-.758V13.42a.761.761 0 0 1 .758-.758h4.348a.761.761 0 0 1 .758.758zm-.762-6.628H4.49a.761.761 0 0 1-.758-.758V6.034a.761.761 0 0 1 .758-.758h4.348a.761.761 0 0 1 .758.758v3.455a.761.761 0 0 1-.758.761z" class="cls-1" data-name="Path 115" transform="translate(175.614 99.843)"/>
            </g>
        </g>
    </g>
</svg>
