<svg xmlns="http://www.w3.org/2000/svg" viewBox="0 0 366.545 49.888">
    <defs>
        <style>
            .cls-1{fill:#fff}
        </style>
    </defs>
    <g id="Science_Technology" data-name="Science &amp; Technology" transform="translate(-81.918 -760.816)">
        <g id="Group_72" data-name="Group 72" transform="translate(41 117.135)">
            <g id="Group_55" data-name="Group 55" transform="translate(-117 379)">
                <g id="Group_47" data-name="Group 47" transform="translate(52 262)">
                    <path id="Path_278" d="M.918-28.633h26.895v7.07h-9.024V0H9.941v-21.562H.918zm30.119 0h23.711v6.113H39.9v4.551h13.77v5.84H39.9v5.645h15.277V0h-24.14z" class="cls-1" data-name="Path 278" transform="translate(105 44)"/>
                    <path id="Path_279" d="M2.969-28.633h8.848v10.02h9.668v-10.02h8.887V0h-8.888v-11.582h-9.668V0H2.969z" class="cls-1" data-name="Path 279" transform="translate(211 44)"/>
                    <path id="Path_280" d="M.918-28.633h26.895v7.07h-9.024V0H9.941v-21.562H.918zM45.959-4.727H35.881L34.494 0h-9.043l10.762-28.633h9.648L56.623 0h-9.258zM44.1-10.918l-3.161-10.293-3.144 10.293zm14.5-17.715h11.638l4.492 17.422 4.47-17.422h11.6V0h-7.222v-21.836L77.972 0h-6.543l-5.586-21.836V0H58.6zm37.443 0h8.867V0h-8.87zm13.732 0h25.039v5.723L118.757-6.152H135.4V0h-27.17v-5.937l15.878-16.583h-14.336zm28.888 0h8.848v10.02h9.668v-10.02h8.887V0h-8.887v-11.582h-9.668V0h-8.848zM188.8-4.727h-10.079L177.335 0h-9.043l10.762-28.633h9.646L199.463 0h-9.258zm-1.855-6.191l-3.165-10.293-3.145 10.293z" class="cls-1" data-name="Path 280" transform="translate(273 43)"/>
                    <path id="Path_117" d="M31.882 31.929a9.626 9.626 0 0 1-11.219-.221c-4.57 1.185-8.746.715-9.723-1.021 1.018 1.341 6.7.506 6.7.506 6.217-.755 18.4-3.787 23.087-9.053s-5.949-3.269-5.949-3.269c6.127.168 3.882 2.232 3.882 2.232-2.568 3.572-9.342 5.635-12.236 6.511S14.908 31.021 13.4 29.345s3.834-4.576 3.834-4.576a8.96 8.96 0 0 1 9.191-8.5 9.491 9.491 0 0 1 5.745 1.906L42.97 5.5A27.3 27.3 0 0 0 26.423 0C11.83 0 0 11.168 0 24.944s11.83 24.944 26.423 24.944a27.3 27.3 0 0 0 16.46-5.433l-11-12.526zm-21.075-2.584a3.119 3.119 0 0 0-.014.994 1.755 1.755 0 0 1 .014-.994z" class="cls-1" data-name="Path 117" transform="translate(165 2.681)"/>
                </g>
            </g>
        </g>
    </g>
</svg>
