<svg xmlns="http://www.w3.org/2000/svg" viewBox="0 0 276.069 41.984">
    <defs>
        <style>
            .cls-1,.cls-2{fill:#fff}.cls-1{font-size:20px;font-family:Arial-Black,Arial #000;font-weight:800;letter-spacing:-.019em}
        </style>
    </defs>
    <g id="Video" transform="translate(-65.098 -1395.389)">
        <text id="V" class="cls-1" transform="translate(308.193 1425.285)">
            <tspan x="0" y="0">V</tspan>
        </text>
        <path id="Path_290" d="M.1-28.633h9.255L15.8-8.027l6.348-20.605h8.984L20.508 0h-9.59zm33.537 0H42.5V0h-8.865zm14.494 0h8.848v10.82l9.277-10.82h11.755l-10.43 10.8L78.48 0h-10.9l-6.034-11.777-4.57 4.785V0h-8.848zM98.267-4.727H88.189L86.8 0h-9.041l10.762-28.633h9.648L108.931 0h-9.258zm-1.855-6.191l-3.165-10.293L90.1-10.918zm9.826-17.715h26.895v7.07h-9.023V0h-8.848v-21.562h-9.023zm45.04 23.906H141.2L139.813 0h-9.043l10.762-28.633h9.648L161.942 0h-9.258zm-1.855-6.191l-3.164-10.293-3.145 10.293zm14.65-17.715h8.262l10.781 15.84v-15.84h8.34V0h-8.34l-10.723-15.723V0h-8.32z" class="cls-2" data-name="Path 290" transform="translate(65 1433)"/>
        <path id="Path_291" d="M.918-28.633h26.895v7.07h-9.024V0H9.941v-21.562H.918z" class="cls-2" data-name="Path 291" transform="translate(266 1433)"/>
        <g id="tv_1_" data-name="tv (1)" transform="translate(298.478 1403.796)">
            <g id="Group_107" data-name="Group 107">
                <g id="Group_106" data-name="Group 106">
                    <path id="Path_172" d="M39.515 70.3H3.173A3.189 3.189 0 0 0 0 73.471v22.777a3.189 3.189 0 0 0 3.174 3.174h36.341a3.189 3.189 0 0 0 3.174-3.174V73.471a3.189 3.189 0 0 0-3.174-3.171zm-9.367 22.468a2.185 2.185 0 0 1-2.2 2.2H6.91a2.185 2.185 0 0 1-2.2-2.2V77a2.185 2.185 0 0 1 2.2-2.2h21.037a2.185 2.185 0 0 1 2.2 2.2zm9.06-4.914a.459.459 0 0 1-.461.461h-4.606a.459.459 0 0 1-.461-.461v-3.481a.459.459 0 0 1 .461-.461h4.607a.459.459 0 0 1 .461.461zm0-7.371a.459.459 0 0 1-.461.461h-4.606a.459.459 0 0 1-.461-.461V77a.459.459 0 0 1 .461-.461h4.607a.459.459 0 0 1 .461.461z" class="cls-2" data-name="Path 172" transform="translate(0 -70.297)"/>
                    <path id="Path_173" d="M24.8 311.177a1.617 1.617 0 0 0 1.638 1.638h1.638a1.617 1.617 0 0 0 1.638-1.638V309.9H24.8z" class="cls-2" data-name="Path 173" transform="translate(-21.626 -279.237)"/>
                    <path id="Path_174" d="M270.4 311.177a1.617 1.617 0 0 0 1.638 1.638h1.638a1.617 1.617 0 0 0 1.638-1.638V309.9H270.4z" class="cls-2" data-name="Path 174" transform="translate(-235.799 -279.237)"/>
                </g>
            </g>
        </g>
        <path id="Path_251" d="M95.707 8.2h3.711L93.47 1.385a1.43 1.43 0 0 0-1.982-.152 1.43 1.43 0 0 0-.153 1.982z" class="cls-2" data-name="Path 251" transform="translate(225.468 1394.487)"/>
        <path id="Path_252" d="M94.716 8.2h-3.71l5.947-6.811a1.43 1.43 0 0 1 1.982-.152 1.43 1.43 0 0 1 .152 1.982z" class="cls-2" data-name="Path 252" transform="translate(234.908 1394.487)"/>
    </g>
</svg>
