<svg xmlns="http://www.w3.org/2000/svg" viewBox="0 0 252.368 44.358">
    <defs>
        <style>
            .cls-1{fill:#fff}
        </style>
    </defs>
    <g id="Entertainment" transform="translate(-70.131 -1695.131)">
        <path id="Path_294" d="M3.281-28.633h8.867V0H3.281zm14.357 0h11.641l4.492 17.422 4.473-17.422h11.6V0h-7.225v-21.836L37.013 0H30.47l-5.585-21.836V0h-7.247zm37.072 0h23.711v6.113H63.578v4.551h13.77v5.84h-13.77v5.645h15.273V0H54.71zm28.107 0h14.708q4.8 0 7.2 2.285a8.569 8.569 0 0 1 2.393 6.5 8.831 8.831 0 0 1-2.607 6.777q-2.607 2.441-7.959 2.441H91.7V0h-8.882zM91.7-16.426h2.168a5.578 5.578 0 0 0 3.594-.889A2.864 2.864 0 0 0 98.5-19.59a3.18 3.18 0 0 0-.9-2.285q-.9-.937-3.379-.937H91.7zm33.5 11.7h-10.076L113.737 0h-9.043l10.762-28.633h9.644L135.866 0h-9.258zm-1.855-6.191l-3.164-10.293-3.145 10.293zM136.4-9.473l8.413-.527a6.422 6.422 0 0 0 1.113 3.125 4.678 4.678 0 0 0 3.906 1.738 4.325 4.325 0 0 0 2.92-.889 2.663 2.663 0 0 0 1.025-2.061 2.628 2.628 0 0 0-.977-1.992q-.977-.879-4.531-1.66-5.82-1.309-8.3-3.477a6.992 6.992 0 0 1-2.5-5.527 7.508 7.508 0 0 1 1.279-4.17A8.486 8.486 0 0 1 142.6-28a17.964 17.964 0 0 1 7.041-1.123q5.488 0 8.369 2.041t3.428 6.494l-8.34.488a4.483 4.483 0 0 0-1.4-2.812 4.485 4.485 0 0 0-2.939-.879 3.547 3.547 0 0 0-2.324.654 2.005 2.005 0 0 0-.781 1.592 1.594 1.594 0 0 0 .645 1.23 7.25 7.25 0 0 0 2.969 1.055 37.139 37.139 0 0 1 8.311 2.529 8.736 8.736 0 0 1 3.652 3.174 8.047 8.047 0 0 1 1.143 4.238 9.078 9.078 0 0 1-1.523 5.078 9.533 9.533 0 0 1-4.258 3.525A17.2 17.2 0 0 1 149.7.488q-7.3 0-10.117-2.812a11.093 11.093 0 0 1-3.183-7.149zm28.127 0L172.94-10a6.422 6.422 0 0 0 1.113 3.125 4.678 4.678 0 0 0 3.906 1.738 4.325 4.325 0 0 0 2.92-.889 2.663 2.663 0 0 0 1.021-2.06 2.628 2.628 0 0 0-.977-1.992q-.977-.879-4.531-1.66-5.82-1.309-8.3-3.477a6.992 6.992 0 0 1-2.5-5.527 7.508 7.508 0 0 1 1.279-4.17A8.486 8.486 0 0 1 170.723-28a17.964 17.964 0 0 1 7.041-1.123q5.488 0 8.369 2.041t3.428 6.494l-8.34.488a4.483 4.483 0 0 0-1.4-2.812 4.485 4.485 0 0 0-2.939-.879 3.547 3.547 0 0 0-2.324.654 2.005 2.005 0 0 0-.781 1.592 1.594 1.594 0 0 0 .645 1.23 7.25 7.25 0 0 0 2.969 1.055 37.139 37.139 0 0 1 8.311 2.529 8.736 8.736 0 0 1 3.652 3.174 8.047 8.047 0 0 1 1.146 4.241 9.078 9.078 0 0 1-1.523 5.078 9.533 9.533 0 0 1-4.258 3.525 17.2 17.2 0 0 1-6.895 1.2q-7.3 0-10.117-2.812a11.093 11.093 0 0 1-3.185-7.148z" class="cls-1" data-name="Path 294" transform="translate(132 1739)"/>
        <g id="Group_126" data-name="Group 126">
            <path id="Path_193" d="M17.485 5.734a3.359 3.359 0 1 0-4.75-4.75L0 13.719l4.75 4.75z" class="cls-1" data-name="Path 193" transform="rotate(11 -8865.16 1423.334)"/>
            <path id="Path_195" d="M143.66 138.911a3.359 3.359 0 0 0-4.75 4.75l17.19 17.189 4.75-4.75z" class="cls-1" data-name="Path 195" transform="translate(-50.298 1575.703)"/>
            <path id="Path_196" d="M230.916 236.164a5.248 5.248 0 1 1 5.248-5.248 5.254 5.254 0 0 1-5.248 5.248z" class="cls-1" data-name="Path 196" transform="translate(-122.859 1503.144)"/>
            <path id="Intersection_1" d="M17.161 45.56a28.727 28.727 0 0 1 28.4-28.4v6.057A22.68 22.68 0 0 0 23.2 45.56z" class="cls-1" data-name="Intersection 1" transform="translate(52.97 1677.97)"/>
        </g>
    </g>
</svg>
