<svg xmlns="http://www.w3.org/2000/svg" viewBox="0 0 237.872 42.449">
    <defs>
        <style>
            .cls-1{fill:#fff}
        </style>
    </defs>
    <g id="children" transform="translate(-72.891 -1999.559)">
        <path id="Path_298" d="M2.891-28.633H17.6q4.8 0 7.2 2.285a8.569 8.569 0 0 1 2.393 6.5 8.831 8.831 0 0 1-2.607 6.777q-2.607 2.441-7.959 2.441h-4.85V0H2.891zm8.887 12.207h2.168a5.578 5.578 0 0 0 3.594-.889 2.864 2.864 0 0 0 1.035-2.275 3.18 3.18 0 0 0-.9-2.285q-.9-.937-3.379-.937h-2.52zm19.26-12.207h23.71v6.113H39.9v4.551h13.77v5.84H39.9v5.645h15.277V0h-24.14z" class="cls-1" data-name="Path 298" transform="translate(70 2039)"/>
        <path id="Path_297" d="M2.949-28.633h16.563a9.028 9.028 0 0 1 6.357 2.051 6.64 6.64 0 0 1 2.217 5.082 6.408 6.408 0 0 1-1.586 4.352 7.046 7.046 0 0 1-3.086 1.914 8.014 8.014 0 0 1 4.541 2.549 7.008 7.008 0 0 1 1.455 4.541 7.808 7.808 0 0 1-1.035 4 7.623 7.623 0 0 1-2.832 2.813 9.348 9.348 0 0 1-3.359.938A38.753 38.753 0 0 1 18.223 0H2.949zM11.875-17.4h3.848a4.421 4.421 0 0 0 2.881-.713 2.6 2.6 0 0 0 .811-2.061 2.449 2.449 0 0 0-.811-1.953 4.35 4.35 0 0 0-2.822-.7h-3.907zm0 11.25h4.512a4.962 4.962 0 0 0 3.223-.811 2.733 2.733 0 0 0 .938-2.178 2.523 2.523 0 0 0-.928-2.041 5.185 5.185 0 0 0-3.252-.771h-4.493zm21.408-22.48h8.848v21.579h13.808V0H33.283zm25.9 0h23.711v6.113H68.05v4.551h13.77v5.84H68.05v5.645h15.274V0H59.183zm26.6 19.16L94.2-10a6.422 6.422 0 0 0 1.113 3.125 4.678 4.678 0 0 0 3.906 1.738 4.325 4.325 0 0 0 2.92-.889 2.663 2.663 0 0 0 1.025-2.061 2.628 2.628 0 0 0-.977-1.992q-.977-.879-4.531-1.66-5.82-1.309-8.3-3.477a6.992 6.992 0 0 1-2.5-5.527 7.507 7.507 0 0 1 1.279-4.17A8.486 8.486 0 0 1 91.988-28a17.964 17.964 0 0 1 7.041-1.123q5.488 0 8.369 2.041t3.428 6.494l-8.34.488a4.483 4.483 0 0 0-1.4-2.812 4.485 4.485 0 0 0-2.939-.879 3.547 3.547 0 0 0-2.324.654 2.005 2.005 0 0 0-.781 1.592 1.594 1.594 0 0 0 .645 1.23 7.25 7.25 0 0 0 2.969 1.055 37.14 37.14 0 0 1 8.311 2.529 8.736 8.736 0 0 1 3.652 3.174 8.047 8.047 0 0 1 1.143 4.238 9.078 9.078 0 0 1-1.523 5.078 9.533 9.533 0 0 1-4.258 3.525 17.2 17.2 0 0 1-6.895 1.2q-7.3 0-10.117-2.812a11.093 11.093 0 0 1-3.183-7.145z" class="cls-1" data-name="Path 297" transform="translate(199 2039)"/>
        <g id="Group_125" data-name="Group 125" transform="translate(124.622 1986.869)">
            <path id="Subtraction_6" d="M30.49 24.406c-8.14 0-15.794-1.331-21.552-3.748A20.518 20.518 0 0 1 2.4 16.586 7.06 7.06 0 0 1 0 11.594C0 9.161 1.621 6.775 4.688 4.7A34.651 34.651 0 0 1 16.891 0a59.623 59.623 0 0 0 10.235 5.3 54.341 54.341 0 0 0 15.913 2.819 17.161 17.161 0 0 0 6.813-1.138 5.756 5.756 0 0 0 3.612-4.19 15.216 15.216 0 0 1 5.717 3.972 7.443 7.443 0 0 1 1.8 4.831 7.059 7.059 0 0 1-2.4 4.991 20.519 20.519 0 0 1-6.539 4.072c-5.758 2.418-13.412 3.749-21.552 3.749zM8.355 9.911c-1.779 0-3 .218-3.356.6a.34.34 0 0 0-.08.358c.266.761 2.927 1.714 6.471 2.318a34.662 34.662 0 0 0 5.568.512c1.774 0 2.994-.218 3.349-.6a.34.34 0 0 0 .08-.358c-.266-.761-2.927-1.714-6.471-2.317a34.39 34.39 0 0 0-5.556-.512z" class="cls-1" data-name="Subtraction 6" transform="translate(9.378 30.733)"/>
            <path id="Subtraction_7" d="M34.175 24.921a44.96 44.96 0 0 1-15.78-3.371 44.126 44.126 0 0 1-14.261-8.7C.718 9.532-.648 6.367.287 3.943A5.541 5.541 0 0 1 3.6.991 16.792 16.792 0 0 1 9.8 0a44.573 44.573 0 0 1 15.752 3.371 44.115 44.115 0 0 1 14.261 8.7c3.416 3.322 4.782 6.487 3.847 8.91a5.537 5.537 0 0 1-3.306 2.953 16.7 16.7 0 0 1-6.179.987zM9.489 3.382c-1.781 0-3.005.219-3.359.6a.339.339 0 0 0-.08.358c.266.762 2.927 1.714 6.471 2.317a34.7 34.7 0 0 0 5.57.513c1.8 0 2.987-.213 3.347-.6a.34.34 0 0 0 .08-.358c-.266-.761-2.927-1.714-6.471-2.318a34.382 34.382 0 0 0-5.558-.512z" class="cls-1" data-name="Subtraction 7" transform="translate(17.608 12.69)"/>
        </g>
    </g>
</svg>
