<svg xmlns="http://www.w3.org/2000/svg" viewBox="0 0 276.484 47.102">
    <defs>
        <style>
            .cls-1,.cls-2{fill:#fff}.cls-2{stroke:rgba(0,0,0,0)}
        </style>
    </defs>
    <g id="Environment" transform="translate(-68.969 -1543.127)">
        <path id="Path_292" d="M2.969-28.633h8.848v10.82l9.277-10.82h11.758l-10.43 10.8L33.32 0h-10.9l-6.033-11.777-4.57 4.785V0H2.969zm50.9 23.906h-10.08L42.4 0h-9.041l10.762-28.633h9.649L64.531 0h-9.258zm-1.855-6.191l-3.166-10.293L45.7-10.918z" class="cls-1" data-name="Path 292" transform="translate(66 1589)"/>
        <path id="Path_293" d="M2.988-28.633h8.262l10.781 15.84v-15.84h8.34V0h-8.34L11.309-15.723V0H2.988zm33.379 0h13.145a15.744 15.744 0 0 1 6.279 1.055 10.209 10.209 0 0 1 3.955 3.027 12.534 12.534 0 0 1 2.266 4.59 21.3 21.3 0 0 1 .7 5.547 19.258 19.258 0 0 1-1.042 7.119 11.784 11.784 0 0 1-2.9 4.238 9.463 9.463 0 0 1-3.985 2.276A20.524 20.524 0 0 1 49.512 0H36.367zm8.848 6.484V-6.5h2.168a9.118 9.118 0 0 0 3.945-.615 4.171 4.171 0 0 0 1.836-2.148 13.489 13.489 0 0 0 .664-4.971q0-4.551-1.484-6.23t-4.922-1.68zM67.4-28.633h8.85v10.02h9.668v-10.02H94.8V0h-8.882v-11.582H76.25V0H67.4zm50.9 23.906h-10.077L106.836 0h-9.043l10.762-28.633h9.645L128.965 0h-9.258zm-1.855-6.191l-3.164-10.293-3.145 10.293zM131.8-28.633h8.848v21.582h13.809V0H131.8z" class="cls-1" data-name="Path 293" transform="translate(191 1589)"/>
        <path id="Subtraction_10" d="M577.544 5.1H539.23c1.079-.18 2.2-.317 3.278-.45 1.278-.157 2.6-.318 3.864-.553a19.177 19.177 0 0 0 3.928-1.105 18.435 18.435 0 0 0 6.341-4.419 22.448 22.448 0 0 0 4.216-6.506 44.765 44.765 0 0 0 2.153-7.125c.366-1.5.744-3.059 1.2-4.508a.7.7 0 0 0-.089-.629.64.64 0 0 0-.514-.264h-.022a.627.627 0 0 0-.309.087c-3.789 2.059-8.136 2.528-12.34 2.982-.553.06-1.124.121-1.684.186a39.713 39.713 0 0 0-6.9 1.279c-.5.149-.978.314-1.433.49a16.773 16.773 0 0 0-4.025 2.175 13.538 13.538 0 0 0-3 3.069 23.255 23.255 0 0 0-2.983 6.129 34.727 34.727 0 0 0-1.829 9.162H523L541.831-41h16.882l18.831 46.1zm-44.191 0h-2.271a21.029 21.029 0 0 1 .887-2.531c1.559-3.675 4.525-6.261 9.066-7.906a50.914 50.914 0 0 1 3.287-1.051.176.176 0 0 1 .068-.009.223.223 0 0 1 .214.182.213.213 0 0 1-.128.248c-1.266.572-2.607 1.186-3.862 1.84a15.192 15.192 0 0 0-5.246 4.635 10.3 10.3 0 0 0-2.015 4.592z" class="cls-2" data-name="Subtraction 10" transform="translate(-387.287 1584.628)"/>
    </g>
</svg>
