<svg xmlns="http://www.w3.org/2000/svg" width="28.781" height="28.787" viewBox="0 0 28.781 28.787">
    <defs>
        <style>
            .cls-1{fill:#434343}
        </style>
    </defs>
    <g id="noun_Sustainability_8351" transform="translate(-199 9.809)">
        <g id="Group_610" data-name="Group 610" transform="translate(199 -9.809)">
            <path id="Path_270" d="M67.321 40.971L67.21 40h-.885c-5.43 0-9.3 1.3-11.792 3.794-.09.09-.17.213-.257.3a14.57 14.57 0 0 1 2.024 3.529 14.351 14.351 0 0 1 8.281-5.858A17.022 17.022 0 0 0 57.391 52a32.885 32.885 0 0 1 .228 4.143 2.857 2.857 0 0 1-.027.37 14.523 14.523 0 0 0 9.728-15.54z" class="cls-1" data-name="Path 270" transform="translate(-38.654 -28.442)"/>
            <path id="Path_271" d="M16.981 56.143c0-4.844-.668-8.874-4.142-12.349C10.348 41.3 6.541 40 1.111 40H.226l-.111.971a14.423 14.423 0 0 0 14.268 16.258 13.936 13.936 0 0 0 1.763-.1l.835-.1v-.885zm-10.67-5.2a11.247 11.247 0 0 1-3.339-7.732c3.578.233 6.2 1.164 7.814 2.774 2.133 2.133 3.059 4.442 3.27 8.3a11.322 11.322 0 0 1-7.746-3.342z" class="cls-1" data-name="Path 271" transform="translate(0 -28.442)"/>
            <path id="Path_272" d="M29.678 7.887l-2.239-5.219c-.263-.61-.838-.644-1.276-.074l-.623.806a14.441 14.441 0 0 0-9.293-3.559 14.511 14.511 0 0 0-13.6 9.543H3c1.069 0 2.081.187 3.044.277A11.16 11.16 0 0 1 23.59 5.9l-.01.031-.638.838c-.439.57-.26 1.121.4 1.217l5.618.832c.658.099.981-.318.718-.931z" class="cls-1" data-name="Path 272" transform="translate(-1.887 .159)"/>
        </g>
    </g>
</svg>
