<svg
  xmlns="http://www.w3.org/2000/svg"
  xmlnsXlink="http://www.w3.org/1999/xlink"
  viewBox="0 0 76 63"
>
  <defs>
    <path
      id="b"
      d="M608.625 451.5v1.687c0 1.407-.492 2.602-1.477 3.586-.984.985-2.18 1.477-3.586 1.477h-40.5c-1.406 0-2.601-.492-3.585-1.477-.985-.984-1.477-2.18-1.477-3.586v-27c0-1.406.492-2.601 1.477-3.585.984-.985 2.18-1.477 3.585-1.477h1.688v5.062h-1.055c-.14 0-.281.07-.422.211-.14.141-.21.282-.21.422v25.735c0 .14.07.28.21.421.141.141.282.211.422.211h39.235c.14 0 .28-.07.421-.21.141-.141.211-.282.211-.422V451.5h5.063zm4.43-35.438H573.82c-.14 0-.281.07-.422.211-.14.141-.21.282-.21.422v25.735c0 .14.07.28.21.421.141.141.282.211.422.211h39.235c.14 0 .28-.07.421-.21.141-.141.211-.282.211-.422v-25.735c0-.14-.07-.281-.21-.422-.141-.14-.282-.21-.422-.21zm.632-5.062c1.407 0 2.602.492 3.586 1.477.985.984 1.477 2.18 1.477 3.585v27c0 1.407-.492 2.602-1.477 3.586-.984.985-2.18 1.477-3.586 1.477h-40.5c-1.406 0-2.601-.492-3.585-1.477-.985-.984-1.477-2.18-1.477-3.586v-27c0-1.406.492-2.601 1.477-3.585.984-.985 2.18-1.477 3.585-1.477h40.5zm-27.843 11.812c0 1.196-.405 2.198-1.213 3.006-.809.809-1.81 1.213-3.006 1.213-1.195 0-2.197-.404-3.006-1.213-.809-.808-1.213-1.81-1.213-3.006 0-1.195.404-2.197 1.213-3.005.809-.809 1.81-1.213 3.006-1.213 1.195 0 2.197.404 3.006 1.213.808.808 1.213 1.81 1.213 3.005zm-7.594 10.125l4.219-4.218c.21-.211.492-.317.843-.317.352 0 .633.106.844.317l4.219 4.218 10.969-10.968c.21-.211.492-.317.843-.317.352 0 .633.106.844.317l7.594 7.593V438H578.25v-5.063z"
    />
    <filter id="a" width="139.5%" height="150.8%" x="-19.8%" y="-25.4%" filterUnits="objectBoundingBox">
      <feOffset in="SourceAlpha" result="shadowOffsetOuter1" />
      <feGaussianBlur in="shadowOffsetOuter1" result="shadowBlurOuter1" stdDeviation="4" />
      <feColorMatrix in="shadowBlurOuter1" values="0 0 0 0 0 0 0 0 0 0 0 0 0 0 0 0 0 0 0.171931612 0" />
    </filter>
  </defs>
  <g fill="none" fillRule="evenodd" transform="translate(-550 -403)">
    <use fill="#000" filter="url(#a)" xlinkHref="#b" />
    <use fill="#FFF" xlinkHref="#b" />
  </g>
</svg>
