<svg xmlns="http://www.w3.org/2000/svg" width="26.46" height="26.46" viewBox="0 0 26.46 26.46">
    <defs>
        <style>
            .cls-1{fill:#434343}
        </style>
    </defs>
    <g id="noun_Health_738400" transform="translate(-219.55 72.661)">
        <path id="Path_273" d="M24.091 6.719h-4.35v-4.35A2.369 2.369 0 0 0 17.372 0H9.088a2.369 2.369 0 0 0-2.369 2.369v4.35h-4.35A2.369 2.369 0 0 0 0 9.088v8.284a2.369 2.369 0 0 0 2.369 2.369h4.35v4.351a2.369 2.369 0 0 0 2.369 2.368h8.284a2.369 2.369 0 0 0 2.369-2.369v-4.35h4.351a2.369 2.369 0 0 0 2.369-2.369V9.088a2.369 2.369 0 0 0-2.37-2.369zM18.9 14.08l-.022.022-.089.089-5.562 5.561-5.672-5.672h.007a3.378 3.378 0 1 1 5.668-3.362 3.379 3.379 0 1 1 5.67 3.362z" class="cls-1" data-name="Path 273" transform="translate(219.55 -72.661)"/>
    </g>
</svg>
