<svg xmlns="http://www.w3.org/2000/svg" width="48" height="48" viewBox="0 0 48 48">
  <g>
    <path
      d="M11.9704064,26.5102395 C11.9704064,26.5102395 11.824112,27.6394862 11.6782356,28.5803132 C13.5034322,29.8978382 17.5920117,31.0741191 21.0966677,28.3451417 C21.0966677,28.3451417 20.914148,27.1218265 20.8410008,26.5102395 C20.403093,27.7334135 14.6715579,29.1452896 11.9704064,26.5102395 Z M30.3311868,19.494221 L26.5899519,9.18961585 L26.5899519,6.2869082 C26.847848,6.19156842 27.0870741,6.00498496 27.2655533,5.70201635 C27.8668928,4.67983274 26.7322058,3.64027611 25.8063713,4.54452088 C25.6046244,4.74155641 27.1004496,4.53646997 26.7604893,5.34029019 C26.7266326,5.4203756 26.6537641,5.48633659 26.5584638,5.53379461 C26.2158563,5.27489416 25.8544395,5.47531955 25.7911846,5.51444417 C25.5362144,5.39269175 25.3018647,5.146927 25.1888697,4.72531334 C24.9362681,3.78505132 24.262896,3.71273433 23.0001665,4.6531376 C21.4004027,5.84439041 18.3395063,5.38690074 16.9134844,3.53434302 C16.6498759,2.10481141 16.0124504,1 16.0124504,1 C15.4661454,1.98079908 15.2082493,2.90001574 15.1043106,3.68236685 C13.6328678,5.41091224 10.6930475,5.81204551 9.1368933,4.6531376 C7.8740245,3.71273433 7.20037372,3.78505132 6.94791142,4.72531334 C6.83324449,5.1530005 6.5937397,5.39918898 6.33458966,5.51910523 C5.96355925,5.25822736 5.57650612,5.52108264 5.57650612,5.52108264 L5.57692411,5.53308839 C5.48218108,5.48563037 5.41014852,5.41966937 5.37643115,5.34029019 C5.03619222,4.53646997 6.53229606,4.74155641 6.33068847,4.54452088 C5.4045754,3.64027611 4.26988834,4.67983274 4.87136722,5.70201635 C5.06210722,6.02603033 5.32167525,6.219676 5.59991322,6.30767108 L5.68741119,9.23114162 L1.92917829,19.2953493 C1.34539406,19.637725 1,20.0584912 1,20.5134385 C1,20.6277049 1.0278656,20.7366041 1.06450885,20.8490345 C1.31237333,21.6168374 1.80531572,23.3257499 2.42532522,23.8761782 C3.67774443,24.9876281 8.00025564,24.8682768 9.6831983,23.9678456 C10.0193967,23.7879006 10.6973667,21.2007323 10.7646621,20.8633001 C10.7879298,20.7456438 10.801584,20.6244563 10.7939209,20.5134385 C10.7684239,20.1435201 10.5293371,19.7959184 10.1273759,19.4943622 L6.38600168,9.18961585 L6.38600168,6.29326418 C6.74045206,6.17518411 7.04934219,5.91444748 7.20037372,5.55738238 C7.7057163,4.36386967 8.46087394,5.20187096 8.7439884,5.37658992 C10.0350014,6.17221798 10.2874637,6.24453496 11.7466457,6.31699319 C12.8995847,6.37405581 13.9354882,5.66585785 13.9354882,5.66585785 C14.35807,5.51034809 14.8080993,5.94848731 15.0299095,6.20964767 L14.8900242,6.64241962 C14.8900242,6.64241962 15.2122898,6.92589654 15.7209763,7.01954138 C15.8802281,9.51122869 16.4011755,14.6215817 15.8940216,16.8234361 C15.5154675,18.4662464 15.2589647,18.5805128 15.5429151,19.6056626 C15.8715898,20.7916894 15.41543,21.3368916 15.2589647,21.8751729 C15.1224233,22.3441033 15.0760271,23.3578123 15.0620943,24.2016046 C13.3430657,24.4233578 12.1012354,25.0585326 12.1012354,25.8074089 C12.1012354,26.7411737 14.02842,27.4982421 16.4054946,27.4982421 C18.7828479,27.4982421 20.7098932,26.7411737 20.7098932,25.8074089 C20.7098932,25.0485043 19.4355995,24.4061261 17.6813209,24.192565 C17.6672488,23.3508913 17.6204346,22.3424084 17.4845898,21.8751729 C17.3281245,21.3368916 16.871686,20.7916894 17.2005001,19.6056626 C17.4845898,18.5805128 17.1815515,18.2834765 16.802858,16.6402425 C16.4637337,14.7228538 16.4839363,8.85190119 16.5558295,6.97462576 C16.7827948,6.90795854 17.0242502,6.79185588 17.2751799,6.60626112 L17.1081256,6.20865896 C17.3299358,5.94721612 17.7792685,5.51063058 18.2012929,5.66585785 C18.2012929,5.66585785 19.2371965,6.37405581 20.3901355,6.31699319 C21.8493174,6.24453496 22.1017797,6.17221798 23.3929321,5.37658992 C23.6759072,5.20187096 24.4310649,4.36386967 24.9362681,5.55738238 C25.0949627,5.93238549 25.4272599,6.20216173 25.8041421,6.31063721 L25.8912221,9.23142411 L22.1329892,19.2953493 C21.549205,19.637725 21.2039502,20.0584912 21.2039502,20.5134385 C21.2039502,20.6277049 21.2319551,20.7366041 21.2681804,20.8490345 C21.5160449,21.6168374 22.0091266,23.3257499 22.6291361,23.8761782 C23.881416,24.9876281 28.2040665,24.8682768 29.8870092,23.9678456 C30.2230683,23.7879006 30.9011776,21.2007323 30.9683336,20.8633001 C30.9920194,20.7456438 31.0056735,20.6244563 30.9977318,20.5134385 C30.9723741,20.1435201 30.7330087,19.7957771 30.3311868,19.494221 Z M5.88525692,22.0086486 C3.90902887,21.9905693 2.25632039,21.4916951 1.75167445,20.8159833 L1.95481464,20.2416848 C2.66148615,19.8293932 4.02885093,19.2183712 5.90323023,19.2375804 L5.88525692,22.0086486 Z M5.9085247,18.4340427 C5.90448419,18.4340427 5.90086166,18.4339015 5.8970998,18.4339015 C4.51008977,18.4339015 3.25850654,18.6791012 2.36750411,19.0727486 L5.77435185,9.42634098 C5.84471248,9.45345985 5.9085247,9.46927919 5.96662446,9.47817757 L5.9085247,18.4340427 Z M10.2310359,20.3445105 L10.3374825,20.6412644 C10.0061606,21.4076549 8.22819622,21.9948067 6.07167776,22.0087898 L6.07892281,19.2428065 C7.2779794,19.2799537 8.67488172,19.5793912 10.2310359,20.3445105 Z M9.86279207,19.3166771 C9.01386669,18.8035373 7.65597621,18.4607378 6.08115206,18.4358789 L6.1052558,9.48679346 C6.20208875,9.48255613 6.27398199,9.45741468 6.32079619,9.43382692 L9.86279207,19.3166771 Z M26.0887892,22.0086486 C24.1127004,21.9905693 22.4601313,21.4916951 21.9556247,20.8159833 L22.1653133,20.2223344 C22.8730994,19.810184 24.237817,19.2019869 26.1070411,19.2209136 L26.0887892,22.0086486 Z M26.1121963,18.4340427 C26.1084344,18.4340427 26.1048119,18.4339015 26.1009107,18.4339015 C24.7137613,18.4339015 23.4623174,18.6791012 22.571315,19.0727486 L25.9783021,9.42634098 C26.0486627,9.45345985 26.1121963,9.46927919 26.1705747,9.47817757 L26.1121963,18.4340427 Z M26.3089274,9.48679346 C26.4058996,9.48255613 26.4780715,9.45741468 26.5244678,9.43368567 L30.0664636,19.3166771 C29.2176776,18.8035373 27.8596478,18.4607378 26.284963,18.4358789 L26.3089274,9.48679346 Z M26.27521,22.0087898 L26.2827337,19.2259984 C27.4797004,19.2627219 28.8740948,19.560747 30.4271838,20.3229002 L30.5414327,20.6412644 C30.2096928,21.4076549 28.4318678,21.9948067 26.27521,22.0087898 Z"
      transform="translate(8 8)"
    />
  </g>
</svg>
