<svg xmlns="http://www.w3.org/2000/svg" width="16.211" height="17.807" viewBox="0 0 16.211 17.807">
    <g>
        <g id="Group_177" data-name="Group 177">
            <path  fill="currentColor" id="Path_75" d="M19.233 11.9a3.258 3.258 0 0 0-3.983.565l-4.208-2.429a3.211 3.211 0 0 0 0-1.915l4.19-2.421a3.265 3.265 0 0 0 5.635-2.24 3.266 3.266 0 1 0-6.377.984l-4.178 2.412a3.261 3.261 0 0 0-4.022-.6 3.266 3.266 0 1 0 4.021 5.044l4.189 2.418a3.266 3.266 0 1 0 4.733-1.818z" class="cls-1" data-name="Path 75" transform="translate(-4.656 -.19)"/>
        </g>
    </g>
</svg>
