<svg xmlns="http://www.w3.org/2000/svg" viewBox="0 0 12 9">
  <path
    fill="currentColor"
    fillRule="evenodd"
    d="M10.875 0c.312 0 .578.11.797.328.219.219.328.485.328.797v6.75c0 .313-.11.578-.328.797a1.085 1.085 0 0 1-.797.328h-9.75c-.313 0-.578-.11-.797-.328A1.085 1.085 0 0 1 0 7.875v-6.75C0 .813.11.547.328.328.547.11.812 0 1.125 0h9.75zm-.14 7.875c.03 0 .062-.016.093-.047s.047-.062.047-.094V1.266c0-.032-.016-.063-.047-.094s-.062-.047-.094-.047H1.266c-.032 0-.063.016-.094.047s-.047.062-.047.094v6.468c0 .032.016.063.047.094s.062.047.094.047h9.468zM3 2.063c.266 0 .488.09.668.269.18.18.27.402.27.668s-.09.488-.27.668a.907.907 0 0 1-.668.27.907.907 0 0 1-.668-.27.907.907 0 0 1-.27-.668c0-.266.09-.488.27-.668.18-.18.402-.27.668-.27zM2.25 6.75V5.625l.937-.937a.253.253 0 0 1 .188-.07c.078 0 .14.023.187.07l.938.937 2.812-2.812a.253.253 0 0 1 .188-.07c.078 0 .14.023.187.07L9.75 4.875V6.75h-7.5z"
  />
</svg>
