<svg xmlns="http://www.w3.org/2000/svg" width="48" height="48" viewBox="0 0 48 48">
  <g>
    <path
      fill={"url(#linearGradientA)"}
      d="M25.9296117,9.70273884 C28.8250989,9.92339781 32.447752,13.9819735 30.4007956,17.1878609 C29.9024521,16.105574 27.0722589,13.7566957 26.8039089,14.477525 C26.6513607,14.8877033 26.9626058,18.1698753 26.416536,18.4490886 C25.9296117,16.5729658 21.9872223,17.4240152 21.8080294,12.3780613 C21.7482985,10.1287105 19.7010493,11.0502336 18.3434877,11.4052845 C16.0535083,12.0045353 14.7559705,13.2709778 12.3539956,13.287516 C10.4857929,13.3000315 8.66663398,12.7636558 6.86357901,12.3771674 C5.58565867,12.1030198 5.10224786,12.1241769 3.88552248,11.6897126 C2.61448291,11.2355812 2.2287205,9.75473747 3.94671742,8.80043582 C5.53441888,7.91809789 5.80203698,8.02969382 7.16033058,6.66789567 C8.59094549,5.23368681 10.5647022,4.47709917 12.5577835,4.34524016 C13.6717366,3.86145913 13.4910797,2.77380853 14.5201211,2.22566242 C14.8053071,2.07368933 16.2968241,1.73040892 16.0615603,2.39015095 C15.8396188,3.01115475 16.8996969,3.8599692 17.4346403,4.41988577 C17.8512929,4.85628695 18.7406693,5.01690165 19.1983138,5.4211203 C20.6728485,6.72421511 21.6884211,5.934104 22.8577131,6.59250509 C23.0985401,6.72808894 23.7166384,7.05602304 23.5998117,7.27146726 C23.4381867,7.56960272 22.2565972,7.75733419 22.0469532,8.48710305 C22.1826655,8.66008419 22.4745859,9.04552968 22.5843854,9.21672291 C23.375235,10.4517278 24.346595,9.4634557 25.9296117,9.70273884 Z M7.69834837,8.45879433 C7.87271005,8.12862533 7.78311362,7.7372201 7.48811883,7.57451949 C7.19327045,7.41211687 6.79901687,7.5479987 6.61762802,7.88829924 C6.43638557,8.22845079 6.54193953,8.63594729 6.84396149,8.78851636 C7.14598344,8.94093643 7.52354749,8.78881434 7.69834837,8.45879433 Z M8.14091374,11.8197837 C9.67781461,10.4521748 10.077485,8.21057161 9.16761271,6.3788488 C9.41180691,8.23411254 9.20025978,10.2394125 8.14091374,11.8197837 Z M6.07024068,22.2969878 C3.17475341,22.0766268 -0.447899669,18.0179022 1.5993495,14.8120148 C2.09769304,15.8941526 4.92773978,18.2434779 5.19608988,17.5223507 C5.34878445,17.1123213 5.03739293,13.8301494 5.58331628,13.5506381 C6.07024068,15.4270589 10.01263,14.5758605 10.1919693,19.6219633 C10.2515538,21.8711652 12.2989494,20.949642 13.6563646,20.5945912 C15.9464904,19.9957874 17.2440282,18.7288979 19.6458567,18.7126576 C21.5142058,18.6998442 23.3333647,19.2362198 25.1364197,19.6228573 C26.4143401,19.8968558 26.8974581,19.8759968 28.1144763,20.3101631 C29.3853694,20.7641455 29.7714246,22.2451382 28.0532813,23.1995888 C26.4654334,24.0817778 26.1979617,23.9701818 24.8396681,25.332129 C23.4090532,26.7663379 21.4352966,27.5227765 19.4422152,27.6546355 C18.3282622,28.1385655 18.508919,29.2256202 17.4797313,29.7743622 C17.1946916,29.9261863 15.7030282,30.2696157 15.9384384,29.6100227 C16.1603799,28.9887209 15.1000091,28.1400555 14.5655049,27.5799899 C14.1485594,27.1435887 13.2591831,26.982974 12.8015385,26.5787554 C11.3271502,25.2756606 10.3114312,26.0659207 9.14228562,25.4073706 C8.90131221,25.2714887 8.28336036,24.9438526 8.39989428,24.7284084 C8.56151921,24.4302729 9.74325514,24.2425415 9.95304548,23.5127726 C9.81704044,23.3397915 9.52526644,22.954346 9.41546689,22.7831528 C8.62476375,21.5482968 7.65340375,22.53642 6.07024068,22.2969878 Z M24.3016504,23.5413793 C24.1272887,23.8713993 24.2168851,24.2626556 24.5115871,24.4252072 C24.8068747,24.5877588 25.2009819,24.451877 25.3823707,24.1115764 C25.5636132,23.7714249 25.4579128,23.3636304 25.1557444,23.2113593 C24.8538689,23.0590882 24.4761584,23.2110613 24.3016504,23.5413793 Z M23.8589386,20.179943 C22.3220377,21.5477009 21.9225138,23.789751 22.832386,25.6210269 C22.5881918,23.7657631 22.7995925,21.7606122 23.8589386,20.179943 Z"
      transform="translate(8 8)"
    />
  </g>
</svg>
