<svg xmlns="http://www.w3.org/2000/svg" viewBox="0 0 13 13">
  <path
    fill="currentColor"
    fillRule="evenodd"
    d="M12.25 1.938v9.625c0 .364-.128.674-.383.93a1.266 1.266 0 0 1-.93.382H1.312c-.364 0-.674-.128-.93-.383a1.266 1.266 0 0 1-.382-.93V1.939c0-.365.128-.675.383-.93s.565-.383.93-.383h9.624c.365 0 .675.128.93.383s.383.565.383.93zM8.312 7.844c-.4 0-.747.136-1.039.41L5.414 7.133c.073-.255.073-.51 0-.766l1.86-1.12c.291.273.642.41 1.052.41.41 0 .766-.151 1.067-.452.3-.3.45-.66.45-1.08 0-.42-.15-.78-.45-1.08-.301-.3-.661-.451-1.08-.451-.42 0-.78.15-1.08.45a1.474 1.474 0 0 0-.397 1.464l-1.86 1.12a1.485 1.485 0 0 0-1.052-.41c-.41 0-.766.151-1.067.452-.3.3-.45.66-.45 1.08 0 .42.15.78.45 1.08.301.3.657.451 1.067.451.41 0 .76-.136 1.053-.41l1.859 1.121a1.474 1.474 0 0 0 .396 1.463c.301.3.661.451 1.08.451.42 0 .78-.15 1.08-.45.301-.302.452-.662.452-1.081 0-.42-.15-.78-.451-1.08-.301-.3-.661-.451-1.08-.451z"
  />
</svg>
