<svg xmlns="http://www.w3.org/2000/svg" viewBox="0 0 15 12">
  <path
    d="M12.509 0a.35.35 0 0 0-.107.02l-1.737.623a.35.35 0 0 0-.23.327v.55L1.886 3.964.494 3.338a.35.35 0 0 0-.451.149.35.35 0 0 0-.043.167v4.649a.35.35 0 0 0 .336.347c.06.002.12-.011.172-.039l1.387-.727.75.198-.171.757c-.155.685.276 1.38.962 1.523l2.079.435a1.3 1.3 0 0 0 1.52-.993l.12-.53 3.28.864v.57a.35.35 0 0 0 .235.329l1.74.586a.35.35 0 0 0 .461-.33L12.868.347a.35.35 0 0 0-.36-.347zm-.335.842v9.965l-1.044-.348V1.214l1.044-.372zm-1.74 1.397v7.18L1.944 7.177a.348.348 0 0 0-.25.027l-.997.526V4.198l1.012.45a.348.348 0 0 0 .235.02l8.492-2.43zm-7.117 6.02l3.165.837-.126.555a.604.604 0 0 1-.699.465L3.58 9.681a.564.564 0 0 1-.427-.69l.165-.731zM13.37 6c-.132-.002-.254.093-.32.248a.663.663 0 0 0 0 .504c.066.155.188.25.32.248h1.26c.132.002.254-.093.32-.248a.663.663 0 0 0 0-.504c-.066-.155-.188-.25-.32-.248h-1.26zM14.637 2a.36.36 0 0 0-.263.105l-1.246 1.19a.42.42 0 0 0-.12.383.393.393 0 0 0 .25.302.355.355 0 0 0 .367-.084l1.246-1.19a.421.421 0 0 0 .107-.44.377.377 0 0 0-.341-.266zM13.389 8a.374.374 0 0 0-.363.254.422.422 0 0 0 .104.452l1.244 1.189c.1.098.24.13.369.085a.393.393 0 0 0 .25-.303.42.42 0 0 0-.122-.383l-1.245-1.189A.36.36 0 0 0 13.389 8z"
    fill="currentColor"
    fillRule="evenodd"
  />
</svg>
