<svg xmlns="http://www.w3.org/2000/svg" width="22.958" height="22.633" viewBox="0 0 22.958 22.633">
    <defs>
        <style>
            .cls-1{fill:#434343}
        </style>
    </defs>
    <g id="noun_Technology_1480475" transform="translate(-238.956 163.276)">
        <g id="Group" transform="translate(222.491 -179.85)">
            <path id="Path" d="M19.711 65.1a3.111 3.111 0 1 0 3.111 3.111 3.111 3.111 0 0 0-3.111-3.111z" class="cls-1" transform="translate(-.089 -32.117)"/>
            <path id="Path-2" d="M52.03 16.6a3.111 3.111 0 0 0-2.908 2.1h-2.367a3.111 3.111 0 1 0 0 2.029h2.333A3.111 3.111 0 1 0 52 16.6z" class="cls-1" data-name="Path" transform="translate(-16.042 -.016)"/>
            <path id="Path-3" d="M52.079 40.3a3.077 3.077 0 0 0-2.333 5.14l-3.889 3.922a3.111 3.111 0 0 0-.947-.541v-2.5a3.111 3.111 0 1 0-2.029 0v2.5a3.111 3.111 0 1 0 4.058 2.333l4.666-4.7h.473a3.111 3.111 0 1 0 0-6.188z" class="cls-1" data-name="Path" transform="translate(-16.091 -15.67)"/>
            <path id="Path-4" d="M68.111 65.1a3.111 3.111 0 1 0 3.111 3.111 3.111 3.111 0 0 0-3.111-3.111z" class="cls-1" data-name="Path" transform="translate(-32.123 -32.117)"/>
            <path id="Path-5" d="M22.7 19.694a3.111 3.111 0 1 0-3.99 2.976v2.4a3.111 3.111 0 1 0 2.029.1v-2.6a3.111 3.111 0 0 0 1.961-2.876z" class="cls-1" data-name="Path"/>
        </g>
    </g>
</svg>
