<svg xmlns="http://www.w3.org/2000/svg" width="25.176" height="25.204" viewBox="0 0 25.176 25.204">
    <defs>
        <style>
            .cls-1{fill:#434343}
        </style>
    </defs>
    <g id="noun_TV_1539446" transform="translate(-2 -1.945)">
        <g id="Group_368" data-name="Group 368" transform="translate(2 1.945)">
            <path id="Path_187" d="M24.524 24a.524.524 0 1 0 0 1.049 1.052 1.052 0 0 1 1.049 1.051.524.524 0 0 0 1.049 0 2.1 2.1 0 0 0-2.098-2.1z" class="cls-1" data-name="Path 187" transform="translate(-12.461 -12.432)"/>
            <path id="Path_188" d="M24.553 8.268h-9.021l4.511-5.455a.521.521 0 1 0-.787-.682L14.588 7.8 9.92 2.184a.521.521 0 1 0-.787.682l4.511 5.4H4.622A2.6 2.6 0 0 0 2 10.89v11.539a2.6 2.6 0 0 0 2.622 2.622v1.311a.807.807 0 0 0 .787.787h2.623a.807.807 0 0 0 .787-.787v-1.31h11.538v1.311a.807.807 0 0 0 .787.787h2.622a.807.807 0 0 0 .787-.787v-1.311a2.6 2.6 0 0 0 2.622-2.622V10.89a2.6 2.6 0 0 0-2.622-2.622zm-5.769 11.014a3.156 3.156 0 0 1-3.147 3.147H7.769a3.156 3.156 0 0 1-3.147-3.147v-5.245a3.156 3.156 0 0 1 3.147-3.147h7.867a3.156 3.156 0 0 1 3.147 3.147zm4.2 2.622h-1.053a.564.564 0 0 1-.524-.524.526.526 0 0 1 .524-.524h1.049a.524.524 0 0 1 0 1.049zm-.524-2.622a1.613 1.613 0 0 1-1.573-1.573 1.578 1.578 0 0 1 1.573-1.573 1.573 1.573 0 1 1 0 3.147zm0-4.72a1.613 1.613 0 0 1-1.573-1.573 1.578 1.578 0 0 1 1.573-1.573 1.573 1.573 0 0 1 0 3.147z" class="cls-1" data-name="Path 188" transform="translate(-2 -1.945)"/>
        </g>
    </g>
</svg>
