<svg xmlns="http://www.w3.org/2000/svg" width="25.602" height="21.762" viewBox="0 0 25.602 21.762">
    <defs>
        <style>
            .cls-1{fill:#434343;fill-rule:evenodd}
        </style>
    </defs>
    <g id="noun_gallery_619711" transform="translate(-185.802 106.443)">
        <g id="Group_606" data-name="Group 606" transform="translate(185.803 -106.444)">
            <g id="Group_605" data-name="Group 605">
                <path id="Path_254" d="M14.179 18.192a1.548 1.548 0 1 1 1.575-1.548 1.563 1.563 0 0 1-1.575 1.548M19.694 12H.787a.782.782 0 0 0-.787.774v9.58l7.22-6.385a964.873 964.873 0 0 1 .117-.068.391.391 0 0 1 .069-.017.366.366 0 0 1 .077-.011.375.375 0 0 1 .072.009.4.4 0 0 1 .074.018 14.849 14.849 0 0 0 .116.067l6.793 5.933 2.5-2.8.019-.015c.006-.006.008-.013.014-.018a.418.418 0 0 1 .046-.027.379.379 0 0 1 .07-.041.642.642 0 0 1 .146-.029.407.407 0 0 1 .071.009.37.37 0 0 1 .074.018.363.363 0 0 1 .067.038.378.378 0 0 1 .048.027l.015.019c.006.006.014.008.019.014l2.858 3.12v-9.441a.782.782 0 0 0-.791-.774" class="cls-1" data-name="Path 254" transform="translate(0 -6.88)"/>
                <path id="Path_255" d="M32.172 21.07a.774.774 0 1 0 .788.774.782.782 0 0 0-.788-.774" class="cls-1" data-name="Path 255" transform="translate(-17.993 -12.08)"/>
                <path id="Path_256" d="M14.87 29.121a.367.367 0 0 1-.075.054.38.38 0 0 1-.06.043.4.4 0 0 1-.3.009.23.23 0 0 1-.022-.013.4.4 0 0 1-.1-.058l-6.828-5.962L0 29.813v4.472a.782.782 0 0 0 .788.774h18.906a.782.782 0 0 0 .788-.774v-4.5l-3.147-3.435z" class="cls-1" data-name="Path 256" transform="translate(0 -13.297)"/>
                <path id="Path_257" d="M29.762 0H8.427A.427.427 0 0 0 8 .427v.853a.427.427 0 0 0 .427.427h19.628a.427.427 0 0 1 .427.427v15.788a.427.427 0 0 0 .427.427h.853a.427.427 0 0 0 .427-.427V.427A.427.427 0 0 0 29.762 0" class="cls-1" data-name="Path 257" transform="translate(-4.586)"/>
                <path id="Path_258" d="M24.908 6H4.427A.427.427 0 0 0 4 6.427v.853a.427.427 0 0 0 .427.427H23.2a.427.427 0 0 1 .427.427v14.934a.427.427 0 0 0 .427.427h.853a.427.427 0 0 0 .427-.427V6.427A.427.427 0 0 0 24.908 6" class="cls-1" data-name="Path 258" transform="translate(-2.293 -3.44)"/>
            </g>
        </g>
    </g>
</svg>
