<svg xmlns="http://www.w3.org/2000/svg" viewBox="0 0 32 19.2">
  <defs>
    <clipPath id="clip-path">
      <rect
        id="Rectangle_901"
        data-name="Rectangle 901"
        className="cls-1"
        transform="translate(0 0)"
      />
    </clipPath>
  </defs>
  <g id="Anchor" className="cls-2">
    <g id="noun_Microphone_1353090" transform="translate(-12 2.571) rotate(-30)">
      <g id="Group_2191" data-name="Group 2191" transform="translate(8.002 8)">
        <path
          id="Path_1006"
          data-name="Path 1006"
          className="cls-3"
          d="M9.963,19.447a6.651,6.651,0,0,0,5.556,1.9l5.833-5.832A6.7,6.7,0,1,0,9.963,19.447Zm6.111-9.313a.609.609,0,1,1,0-.86A.609.609,0,0,1,16.073,10.134Zm1.613,1.613a.608.608,0,1,1,0-.86A.609.609,0,0,1,17.687,11.747Zm1.441,1.441a.608.608,0,1,1,0-.86A.609.609,0,0,1,19.128,13.188Zm-1.291,2.238a.608.608,0,1,1,.861,0A.608.608,0,0,1,17.837,15.426Zm-1.2,1.2a.608.608,0,1,1,0,.861A.608.608,0,0,1,16.633,16.63Zm-.775-2.323a.609.609,0,1,1,.861,0A.609.609,0,0,1,15.858,14.307Zm-1.106,4.2a.609.609,0,1,1,0,.861A.608.608,0,0,1,14.752,18.511Zm-.1-3a.608.608,0,1,1,0,.86A.609.609,0,0,1,14.654,15.512Zm-.345-4.474a.608.608,0,1,1,0,.86A.609.609,0,0,1,14.309,11.037Zm-.451,2.818a.609.609,0,1,1,0-.86A.609.609,0,0,1,13.858,13.855Zm-.333,2.57a.608.608,0,1,1,0-.86A.608.608,0,0,1,13.525,16.425Zm-1.118,1.549a.608.608,0,1,1,0,.86A.608.608,0,0,1,12.407,17.974Zm-.615-7.732a.608.608,0,1,1,0,.86A.609.609,0,0,1,11.792,10.241Zm-.5,3.085a.608.608,0,1,1,0-.861A.609.609,0,0,1,11.288,13.327Zm-.215,2.452a.608.608,0,1,1,0-.86A.609.609,0,0,1,11.073,15.779Zm-.86,1.721a.608.608,0,1,1,0,.86A.608.608,0,0,1,10.212,17.5Z"
          transform="translate(-8.002 -8)"
        />
        <path
          id="Path_1007"
          data-name="Path 1007"
          className="cls-3"
          d="M39.42,33.849l-5.569,5.569,13.7,10.824,2.691-2.691Zm-.063,4.243,2.135,2.134a.893.893,0,1,1-1.263,1.263l-2.134-2.134a.893.893,0,1,1,1.263-1.263Z"
          transform="translate(-26.026 -26.024)"
        />
        <circle
          id="Ellipse_58"
          data-name="Ellipse 58"
          className="cls-3"
          cx="0.439"
          cy="0.439"
          r="0.439"
          transform="translate(14.2 14.2)"
        />
      </g>
    </g>
  </g>
</svg>
