<svg width="114" height="35" viewBox="0 0 114 35">
  <g fill="none" fillRule="evenodd">
    <rect width="114" height="35" fill="#FFF" fillRule="nonzero" rx="4" />
    <g fill="#404040">
      <text fontFamily="Helvetica" fontSize="1em" transform="translate(33.421 2.911)">
        <tspan x="0" y="8">
          Android app on
        </tspan>
      </text>
      <g fillRule="nonzero">
        <path d="M43.516 19.543a4.91 4.91 0 0 1-1.27 3.492 5.07 5.07 0 0 1-3.81 1.524 4.987 4.987 0 0 1-3.81-1.587 5.125 5.125 0 0 1-1.586-3.869 5.125 5.125 0 0 1 1.587-3.873 5.439 5.439 0 0 1 3.813-1.587 5.08 5.08 0 0 1 2.159.444 5.43 5.43 0 0 1 1.651 1.143l-.889.889a3.523 3.523 0 0 0-2.861-1.206 4.087 4.087 0 0 0-2.86 1.143 3.879 3.879 0 0 0-1.2 2.987 3.879 3.879 0 0 0 1.2 2.981 4.087 4.087 0 0 0 2.857 1.143 4.023 4.023 0 0 0 2.921-1.143 3.19 3.19 0 0 0 .889-2.1H38.5v-1.27h5.08c-.049.294-.07.591-.064.889zm1.588-1.456a3.6 3.6 0 0 1 2.6-1.079 3.4 3.4 0 0 1 2.6 1.079 3.737 3.737 0 0 1 1.016 2.73 3.839 3.839 0 0 1-1.016 2.73 3.6 3.6 0 0 1-2.6 1.079 3.4 3.4 0 0 1-2.6-1.079 3.737 3.737 0 0 1-1.016-2.729 3.9 3.9 0 0 1 1.016-2.731zm1.016 4.572a2.3 2.3 0 0 0 3.3 0 2.776 2.776 0 0 0 0-3.683 2.3 2.3 0 0 0-3.3 0 2.776 2.776 0 0 0 0 3.683zm6.794-4.572a3.6 3.6 0 0 1 2.6-1.079 3.4 3.4 0 0 1 2.6 1.079 3.737 3.737 0 0 1 1.016 2.73 3.839 3.839 0 0 1-1.016 2.73 3.6 3.6 0 0 1-2.6 1.079 3.4 3.4 0 0 1-2.6-1.079 4.018 4.018 0 0 1-1.016-2.729 3.639 3.639 0 0 1 1.016-2.731zm1.016 4.572a2.3 2.3 0 0 0 3.3 0 2.776 2.776 0 0 0 0-3.683 2.3 2.3 0 0 0-3.3 0 2.776 2.776 0 0 0 0 3.683zm9.269 5.079a3.291 3.291 0 0 1-2.1-.635 4.169 4.169 0 0 1-1.143-1.46l1.206-.508c.138.395.407.73.762.952.372.258.817.391 1.27.381a2.119 2.119 0 0 0 1.714-.635c.45-.478.68-1.123.635-1.778v-.7h-.063c-.278.359-.623.66-1.016.889-.442.259-.948.39-1.46.381a3.28 3.28 0 0 1-2.413-1.079 3.737 3.737 0 0 1-1.011-2.728 3.839 3.839 0 0 1 1.016-2.73 3.28 3.28 0 0 1 2.413-1.08c.503.007 1 .115 1.46.317.406.209.755.514 1.016.889h.063v-1.016h1.27v6.794a3.487 3.487 0 0 1-3.619 3.746zm.063-4.381a2.164 2.164 0 0 0 1.587-.7c.46-.521.69-1.207.635-1.9a2.768 2.768 0 0 0-.635-1.9 2.153 2.153 0 0 0-3.175 0 2.776 2.776 0 0 0 0 3.683c.37.509.96.812 1.589.817h-.001zm6.159 1.016h-1.333V13.96h1.333zm4.445.191a3.4 3.4 0 0 1-2.6-1.079 3.737 3.737 0 0 1-1.019-2.73 4.039 4.039 0 0 1 .952-2.667 3.11 3.11 0 0 1 2.54-1.143 3.213 3.213 0 0 1 2.54 1.016 3.923 3.923 0 0 1 .952 2.794v.254H71.58c.018.637.266 1.247.7 1.714.398.414.95.645 1.524.635a1.96 1.96 0 0 0 1.968-1.206l1.206.508a3.483 3.483 0 0 1-1.143 1.4 3.941 3.941 0 0 1-1.969.504zm1.9-4.635a1.538 1.538 0 0 0-.571-1.143 1.875 1.875 0 0 0-1.524-.571c-.466-.03-.924.13-1.27.444-.396.32-.666.77-.762 1.27h4.127zm6.735 4.444h-1.333V13.96h3.556a3.327 3.327 0 0 1 2.286.889 2.88 2.88 0 0 1 .952 2.222 2.882 2.882 0 0 1-.952 2.222 3.327 3.327 0 0 1-2.286.889h-2.222l-.001 4.191zm0-5.524h2.222a1.64 1.64 0 0 0 1.333-.571c.312-.351.492-.8.508-1.27a2.016 2.016 0 0 0-.508-1.27 1.64 1.64 0 0 0-1.333-.571h-2.222v3.682zm7.683 5.524h-1.333V13.96h1.333zm3.429.191a2.768 2.768 0 0 1-1.9-.635 2.174 2.174 0 0 1-.762-1.714 2.257 2.257 0 0 1 .889-1.841 3.545 3.545 0 0 1 2.222-.635 3.39 3.39 0 0 1 1.9.444v-.19a1.773 1.773 0 0 0-.508-1.27 1.993 1.993 0 0 0-1.333-.444 2.087 2.087 0 0 0-1.079.254 1.483 1.483 0 0 0-.635.762l-1.206-.508c.22-.47.545-.884.952-1.206a3.085 3.085 0 0 1 1.9-.571 3.273 3.273 0 0 1 2.286.825c.618.594.943 1.43.889 2.286v4.318h-1.27v-1.018h-.063a2.494 2.494 0 0 1-2.282 1.143zm.19-1.206c.574.01 1.126-.22 1.524-.635a1.9 1.9 0 0 0 .7-1.46 2.634 2.634 0 0 0-1.714-.444 2.01 2.01 0 0 0-1.46.444 1.325 1.325 0 0 0-.507 1.015.925.925 0 0 0 .444.825c.318.15.662.237 1.013.254v.001zm6.413 4.127h-1.4l1.651-3.619-2.918-6.667h1.46l2.1 5.143 2.1-5.143h1.46zM8.024 17.976V8.008a1.42 1.42 0 0 1 .381-1.08c.127-.127.19-.127.317 0 2.223 2.286 4.508 4.572 6.731 6.855 1.46 1.46 2.921 2.984 4.381 4.445.127.127.127.19 0 .381-3.556 3.431-7.11 6.986-10.731 10.542a.408.408 0 0 1-.571.063 1.379 1.379 0 0 1-.508-1.142v-10.1.004zm1.27-11.492c.226-.005.449.061.635.19 4.571 2.54 9.143 5.08 13.651 7.683.19.127.19.19.063.317l-3.049 3.048c-.127.127-.19.19-.317 0L9.421 6.674c0-.063-.064-.063-.127-.19zm1.016 22.604c3.3-3.365 6.6-6.667 9.9-10.032.19-.19.317-.19.508 0 .825.889 1.714 1.714 2.54 2.6.127.127.19.19-.063.317-4.254 2.349-8.508 4.635-12.762 6.984a.137.137 0 0 1-.123.131zM29.23 18.04a.991.991 0 0 1-.444.825c-.19.127-.444.254-.635.381-1.27.7-2.6 1.4-3.873 2.159-.19.127-.254.063-.444-.063-.889-.952-1.841-1.9-2.73-2.794-.127-.127-.127-.19 0-.317a152.393 152.393 0 0 1 3.238-3.175c.127-.127.19-.127.381-.063 1.27.7 2.54 1.4 3.81 2.159a.952.952 0 0 1 .697.888z" />
      </g>
    </g>
  </g>
</svg>
