  <svg xmlns="http://www.w3.org/2000/svg" width="48" height="48" viewBox="0 0 48 48">
    <g>
      <path
        d="M27.0436137,1.53201013 C24.4067736,0.916332557 20.2031642,0.230283346 16.9885706,3.26665609 C14.4805421,2.28501632 12.9520365,3.09280549 12.5359547,4.20702305 C11.6509228,6.57783453 13.5588529,7.26076601 14.2972558,7.43268658 C14.1050607,7.91237172 13.9246953,8.42471879 13.7587883,8.97388478 C13.3730838,10.2506697 11.4874985,11.3485563 9.392777,10.5400248 C8.76186317,10.2966934 7.32741047,10.176438 7.53421001,11.9508722 C7.72991013,11.7510405 7.78555322,11.7197147 8.05077071,11.5966386 C8.09487626,11.4940504 8.1347465,11.2532428 8.45750566,11.3106981 C9.08725114,11.4229365 10.0965672,12.1765365 10.9668486,13.8264099 C11.83713,15.4767286 12.0875969,17.0624658 11.5259083,17.3683004 C11.4376972,17.4164025 11.3347356,17.4300611 11.2205285,17.4125425 C11.0271651,17.493455 10.7118542,17.854221 10.6962274,18.0158976 C11.5554094,18.5027089 12.3295933,18.2132054 12.8540404,16.9521576 C13.1911119,16.1411022 13.7453522,14.4036354 15.8142238,14.5130529 C16.407312,14.5445272 17.097374,14.5909962 17.8478986,14.6205404 C17.64402,15.3386577 17.282705,17.4134332 19.7844536,17.7618768 C20.9290072,17.9213264 22.3330826,16.9735363 22.7106085,14.3541971 C26.2196286,13.6868543 29.5228714,11.6471161 30,5.95473378 C30,5.95473378 29.9147098,2.20232223 27.0436137,1.53201013 Z M14.6660191,6.58377306 C14.1805659,6.43397353 13.3413921,5.99051345 13.7998269,4.76183064 C14.0289713,4.14838002 14.8427333,3.69630907 16.1734942,4.14689538 C15.626118,4.81928597 15.1184661,5.62351201 14.6660191,6.58377306 Z M19.9097601,16.3682511 C18.5598673,16.1799996 18.653044,15.1219012 18.767251,14.6456307 C19.6642586,14.6583986 20.6193921,14.6333083 21.5803673,14.5243362 C21.3367645,15.9429036 20.5526496,16.4577746 19.9097601,16.3682511 Z M11.4283504,16.8703542 C11.6665496,15.5442795 10.8262074,14.3154482 10.8262074,14.3154482 C7.79183315,15.8288837 6.68189216,20.2762523 7.92955346,23.254279 C9.05190828,25.9327065 9.63053805,27.2814962 9.1935718,28.1256589 C8.06143198,30.3126727 5.8240246,27.7418811 8.09867342,27.3928437 C4.97229093,25.2441334 4.43499186,32.3846275 9.5776698,30.7561328 C12.2556946,29.9081101 11.6277016,26.9180579 10.8354082,25.0388086 C8.08509125,18.5157737 11.4283504,16.8703542 11.4283504,16.8703542 Z M10.4997971,13.7284241 C10.206539,13.0095644 9.76081007,12.6596363 9.76081007,12.6596363 C6.98128414,14.0459872 5.74691291,17.4946427 7.16719925,21.4332273 C6.96142203,17.6811127 8.23566351,14.8666927 10.4997971,13.7284241 Z M6.65472781,26.6289997 C5.82037348,26.2695699 4.81689919,24.7308956 7.19684636,24.8493693 C4.48771405,22.8411054 3.61202902,26.7133269 5.31856331,28.0956693 C5.45642967,26.7707822 6.70409098,26.6503784 6.65472781,26.6289997 Z M5.13732163,24.0262885 C4.40227781,23.7756823 3.44729041,22.2131054 5.82723759,22.3318761 C3.09619855,20.5525426 2.01386003,24.3895783 4.06973364,25.7186224 C4.0409628,24.2938194 5.1879992,24.0436587 5.13732163,24.0262885 Z M9.27856991,12.046928 C8.99202988,11.7167455 8.5744876,11.5691729 8.5744876,11.5691729 C5.56450287,13.0705829 4.79338596,16.2953556 6.43828932,19.8228452 C5.82095766,16.4237764 6.71971778,13.39839 9.27856991,12.046928 Z M7.07168591,26.71689 C8.22806918,26.992438 8.41062526,27.6967482 8.41062526,27.6967482 C7.39167022,27.7760277 7.28783231,28.5370509 7.28783231,28.5370509 C8.29977721,29.2615521 9.01963236,28.2880778 9.03029364,27.3713165 C9.04037073,26.493898 8.18922124,24.5506611 8.18922124,24.5506611 C8.60121381,27.0362347 7.07168591,26.71689 7.07168591,26.71689 Z M7.34420563,22.384729 C7.48221803,24.0109967 5.98014656,24.021983 5.98014656,24.021983 C7.27293574,24.168071 7.67485121,25.0627112 7.67485121,25.0627112 C6.44004185,25.0374724 5.99723381,25.4893949 6.11801292,25.6479538 C7.22809996,27.1088333 8.429319,26.1412976 7.96752513,24.2230024 C7.51960552,23.191182 7.34420563,22.384729 7.34420563,22.384729 Z"
        transform="translate(8 8)"
      />
    </g>
  </svg>
