  <svg xmlns="http://www.w3.org/2000/svg" width="48" height="48" viewBox="0 0 48 48">
    <g>
      <path
        d="M10.604491,21.4551001 C9.52753825,21.8550832 9.39302546,22.9648542 9.75191521,23.8307364 C11.2233348,27.3792547 9.86403282,30.9554016 9.86403282,30.9554016 C12.6458536,28.7582991 13.3413796,25.6508562 12.7357177,23.5419688 C12.156845,21.5270465 11.2875438,21.2012538 10.604491,21.4551001 Z M9.12371641,23.919793 C9.12371641,23.919793 8.78736358,24.297477 7.88985574,24.6967589 C7.88985574,24.6967589 9.84177939,27.1827693 8.29381931,31 C8.29381931,31 9.21343885,30.4456054 9.72952004,29.5579849 C9.72952004,29.5579849 10.4247626,26.71673 9.12371641,23.919793 Z M15.542485,11.9324993 C14.4330735,12.1117344 14.2913319,13.035819 14.5776499,14.053448 C14.9410754,15.3444175 15.1517034,15.4312301 15.471756,16.4777499 C16.1141289,18.5780823 15.0806909,20.0704458 15.0806909,20.0704458 C18.3486853,18.4677082 18.5411704,16.3870104 18.3292667,14.6897466 C18.0693126,12.6084877 16.4462295,11.7863624 15.542485,11.9324993 Z M24.6106877,5.30963634 C20.8220763,4.59970829 15.5080418,4.36661852 12.9150209,10.490905 C12.9150209,10.490905 11.300017,10.2907732 9.14625333,13.7311614 C7.88021731,15.7539374 4.63702764,19.3027362 4.0761561,20.4569653 C4.0213021,20.5701443 3.99890693,20.7339523 4.00004086,20.9234254 C4.97238827,21.0987336 6.28619122,20.0690434 6.28619122,20.0690434 C5.6701822,21.2134553 4.69485821,21.4583257 4.05744621,21.4831494 C4.1732491,22.1235151 4.44085725,22.7915095 4.65956455,22.8317602 C5.53836251,22.9952877 6.79064959,23.0094526 8.18155996,22.2101875 C8.18155996,22.2101875 7.45258289,23.461327 6.05614459,23.8126446 C6.05614459,23.8126446 6.29767229,24.6041962 6.7845547,24.5814762 C7.19447142,24.5624027 8.29381931,24.1186626 9.03413572,23.5199501 C9.03413572,23.5199501 8.94427154,21.5661753 10.380114,21.0112197 C10.9476474,20.7920144 11.9280741,20.8336676 12.5640687,22.0827034 C12.5640687,22.0827034 13.2740524,21.7442885 13.8573191,22.4323381 C14.5218037,23.2163163 14.93413,23.6976425 16.4981069,26.4555909 C16.4981069,26.4555909 21.8404898,22.7073615 22.6175172,16.5564282 C22.6175172,16.5564282 19.6114613,12.9555979 17.6934139,11.6445732 C17.1521027,11.2748832 17.2109255,10.2641263 16.5566462,9.76597058 C15.9369519,9.29432142 18.7500975,6.50706141 22.2515404,6.88909303 C24.8685157,7.1749155 28.4948329,7.47882978 29,4.36437457 C29,4.36437457 27.7562174,5.89895236 24.6106877,5.30963634 Z M9.69380115,16.697376 C9.69380115,16.697376 10.4801836,15.6128494 11.5999423,16.4380601 C11.5999423,16.4380601 11.1235487,17.8293059 9.69380115,16.697376 Z M18.8836181,15.3010813 C18.9284085,17.0970787 17.9284215,19.9114063 14.0843891,20.6949637 C14.0843891,20.6949637 15.4463842,19.4082016 15.1560974,17.3986088 C14.9464616,15.9463557 14.0442762,15.0010939 13.9911231,13.2722747 C13.9714211,12.6286832 14.3640453,11.3360307 15.8782709,11.4974545 C17.1121316,11.6288655 18.8252206,12.9485856 18.8836181,15.3010813 Z M12.6394752,9.95390096 C13.3511598,8.38917016 15.2486547,5.26026955 18.5692353,4.71246652 C21.3513395,4.25372004 24.6886456,4.14587044 24.4588824,1 C24.4588824,1 23.6067319,2.91703014 20.4054978,2.91534718 C15.9601975,2.91310324 10.6628885,5.26026955 10.5047049,11.3228476 C10.5047049,11.3228476 11.4139773,9.95390096 12.6394752,9.95390096 Z"
        transform="translate(8 8)"
      />
    </g>
  </svg>
