<svg xmlns="http://www.w3.org/2000/svg" viewBox="0 0 32 19.2">
  <defs>
    <clipPath id="clip-path">
      <rect id="Rectangle_895" data-name="Rectangle 895" className="cls-1" />
    </clipPath>
  </defs>
  <g id="Author" className="cls-2">
    <path
      fill="currentColor"
      id="Union_14"
      data-name="Union 14"
      className="cls-3"
      d="M.558,22.232,10.835,11.955a1.261,1.261,0,0,0,.761.256,1.26,1.26,0,1,0-1-.5L.314,21.988a1,1,0,0,1-.28-.9.642.642,0,0,1,.656-.4,1.225,1.225,0,0,1,.3.038S4.954,14.73,4.623,9.17a47.887,47.887,0,0,0,6.021-3.226A21.771,21.771,0,0,0,16.08,1.279a10.883,10.883,0,0,1,2.9,2.149,10.124,10.124,0,0,1,2.282,3.037A21.8,21.8,0,0,0,16.6,11.9a47.772,47.772,0,0,0-3.227,6.021q-.334-.019-.669-.019c-5.36,0-10.884,3.65-10.884,3.65s.214.743-.367.96a.549.549,0,0,1-.193.034A1.226,1.226,0,0,1,.558,22.232ZM21.717,5.788A9.824,9.824,0,0,0,19.537,2.9,10.417,10.417,0,0,0,16.74.821a.432.432,0,1,1,.375-.778,11.136,11.136,0,0,1,3.013,2.222A10.49,10.49,0,0,1,22.51,5.447a.431.431,0,0,1-.226.567.423.423,0,0,1-.17.036A.433.433,0,0,1,21.717,5.788Z"
      transform="rotate(45 16.613 16.887)"
    />
  </g>
</svg>
