<svg xmlns="http://www.w3.org/2000/svg" width="28.79" height="24.369" viewBox="0 0 28.79 24.369">
    <defs>
        <style>
            .cls-1{fill:#434343;fill-rule:evenodd}
        </style>
    </defs>
    <g id="noun_Business_1871049" transform="translate(-463.145 -122.438)">
        <g id="Group_609" data-name="Group 609" transform="translate(463.145 122.438)">
            <path id="Path_269" d="M40.656 57.99v-1.4h.755v-.216A2.489 2.489 0 0 1 43.891 54H50.9a2.418 2.418 0 0 1 2.48 2.372v.216h.755v1.4h7.655v11.647H49.929v-2.588a1.311 1.311 0 0 0-1.294-1.294h-2.588a1.391 1.391 0 0 0-1.294 1.294v2.588H33V57.99zm8.195 11.645h-.97v-1.186a.542.542 0 0 0-1.078 0v1.186h-.97v-2.588a.232.232 0 0 1 .216-.216h2.588a.232.232 0 0 1 .216.216zM43.567 57.99h7.764v-1.4h.755v-.216a1.108 1.108 0 0 0-1.186-1.08h-7.009a1.108 1.108 0 0 0-1.191 1.078v.216h.863zm8.3-.323H53.6v-.539h-1.73zm-10.675 0h1.833v-.539h-1.83zM61.035 70.39v7.979h-27.28V70.39h11.214a1.3 1.3 0 0 0 1.078.755h.753v.755a.542.542 0 0 0 1.078 0v-.755h.755a1.326 1.326 0 0 0 1.186-.755z" class="cls-1" data-name="Path 269" transform="translate(-33 -54)"/>
        </g>
    </g>
</svg>
