<svg xmlns="http://www.w3.org/2000/svg" width="48" height="48" viewBox="0 0 48 48">
  <g>
    <path
      d="M23.6841282,18.9803214 C19.606489,19.465648 19.9225951,23.4864804 19.9225951,23.4864804 C14.3336501,24.6648879 12.6462669,23.3478359 12.6462669,23.3478359 C11.6972306,19.2923069 8.18186096,18.9803214 8.18186096,18.9803214 C9.38797584,16.0428705 11.2841815,14.6538762 13.2899686,14.0606363 L13.190584,13.5154051 C13.1388811,13.2327346 13.3294639,12.9622433 13.6159844,12.9114022 C13.9025049,12.8605612 14.1766742,13.0483473 14.2283771,13.3308762 L14.31857,13.8231421 C14.8416315,13.7343473 15.3654111,13.6894542 15.8801427,13.6768502 C16.4817639,13.6622635 17.0397249,13.6985178 17.5563235,13.7756999 L17.637612,13.3308762 C17.6890278,13.0483473 17.963197,12.8605612 18.2501484,12.9114022 C18.5365252,12.9622433 18.7269644,13.2327346 18.6754051,13.5154051 L18.5873665,13.9971912 C22.6492075,15.1476999 23.6841282,18.9803214 23.6841282,18.9803214 Z M8.52468023,16.9006537 C4.62268747,13.9541392 7.47008371,11.9091681 7.47008371,11.9091681 C8.10287034,12.5331392 9.19250997,12.4290496 9.19250997,12.4290496 C9.93085679,13.7810814 9.79039712,15.618015 9.79039712,15.618015 C9.15717963,15.9993936 8.52468023,16.9006537 8.52468023,16.9006537 Z M9.2276967,12.0132577 C9.2276967,12.0132577 6.78099831,12.008301 7.2593942,9.44812181 C7.34542216,8.98701198 7.50211081,8.27042237 8.38407693,7.92289058 C9.00077821,7.67987323 10.499302,7.85378075 10.4582269,9.44812181 C10.4226093,10.7998704 10.0012303,11.8744716 9.2276967,12.0132577 Z M8.63024041,7.43784722 C8.41912004,3.07019108 11.6534267,3.24353213 11.6534267,3.24353213 C9.89552645,4.6993703 9.75492315,5.84322292 10.3173363,6.01642234 C11.2208453,6.29498593 11.1612433,4.59542232 11.1612433,4.59542232 C13.1999193,6.46719402 10.49327,7.92289058 10.49327,7.92289058 C9.54380278,6.91768247 8.63024041,7.43784722 8.63024041,7.43784722 Z M23.0111282,16.6579196 C23.0111282,16.6579196 22.3786288,15.7566595 21.7456985,15.3754225 C21.7456985,15.3754225 21.6052388,13.5383473 22.3432984,12.1864571 C22.3432984,12.1864571 23.432938,12.2904051 24.0658683,11.6665756 C24.0658683,11.6665756 26.9129773,13.7115467 23.0111282,16.6579196 Z M22.3081117,11.7705236 C21.5348654,11.6317375 21.1129119,10.5572779 21.0778688,9.2053877 C21.0363628,7.61104664 22.5348866,7.43713912 23.1518751,7.68029809 C24.0336976,8.02782988 24.1905298,8.74456111 24.2765578,9.2053877 C24.7549537,11.7657086 22.3081117,11.7705236 22.3081117,11.7705236 Z M22.9058552,7.19497149 C22.9058552,7.19497149 21.9917184,6.67494836 21.0428256,7.68029809 C21.0428256,7.68029809 18.3357455,6.22445992 20.3747087,4.35268821 C20.3747087,4.35268821 20.3151067,6.05225182 21.2184721,5.77382985 C21.7808852,5.60048881 21.6401383,4.45663619 19.8825253,3.00093964 C19.8825253,3.00093964 23.116832,2.82745698 22.9058552,7.19497149 Z M7.46046122,20.4997462 C7.11663661,20.0192347 7.48918508,19.3973879 7.48918508,19.3973879 C9.46696646,19.4255699 10.6422032,19.9910526 10.5850427,20.4715642 C10.5126586,21.0775497 7.46046122,20.4997462 7.46046122,20.4997462 Z M7.25982505,19.3125584 C7.25982505,19.3125584 6.71522067,19.6235526 7.11663661,20.358411 C7.11663661,20.358411 5.59728804,20.1322462 5.10984413,19.3973879 C5.10984413,19.3973879 5.10984413,18.6907115 5.71203986,18.6058821 C5.71203986,18.6058821 6.82997249,18.7472173 7.25982505,19.3125584 Z M5.10984413,18.4928705 C5.10984413,18.4928705 4.59410723,19.0015641 4.79474339,19.3973879 C4.79474339,19.3973879 4.02077898,19.5385815 3.01745455,18.8603705 C3.01745455,18.8603705 2.70192295,18.4645468 3.2752512,18.2102 C3.2752512,18.2102 4.56509613,18.1253705 5.10984413,18.4928705 Z M2.78795091,18.1536942 C2.78795091,18.1536942 2.41540245,18.4363647 2.61603861,18.7190352 C2.61603861,18.7190352 1.6128578,18.8885526 1.01051846,18.408041 C1.01051846,18.408041 0.752865432,17.6731826 2.78795091,18.1536942 Z M7.46046122,20.9802578 C8.205989,20.6128994 9.72490672,20.9519341 9.72490672,20.9519341 C10.0977424,21.0367636 10.5566061,20.8954283 10.5566061,20.8954283 C11.0439064,21.0649457 10.842983,21.3760815 10.842983,21.3760815 C10.3844065,22.0262521 7.86158992,22.0261104 7.86158992,22.0261104 C7.23124481,21.7999457 7.46046122,20.9802578 7.46046122,20.9802578 Z M7.23153205,20.9519341 C7.23153205,20.9519341 6.97330455,21.5455989 7.40315712,22.0261104 C7.40315712,22.0261104 6.2853681,21.6021046 5.28218729,21.9977867 C5.28218729,21.9977867 5.3677844,21.3760815 5.05254003,21.1497752 C5.05254003,21.1497752 6.14217966,20.5844341 7.23153205,20.9519341 Z M5.02395979,22.0826162 C5.02395979,22.0826162 4.10680694,22.3651451 3.705391,23.0153157 C3.705391,23.0153157 3.18951047,22.874122 3.18951047,22.506622 C3.18951047,22.506622 3.84872306,21.3194341 4.88062773,21.2347463 C4.88062773,21.2347463 5.16757909,21.6867925 5.02395979,22.0826162 Z M3.04617841,22.704463 C3.04617841,22.704463 3.10319528,23.1567925 3.59063918,23.2134399 C3.2752512,23.4393214 3.3042623,24.654833 2.73079043,24.5133561 C2.73079043,24.5133561 2.24334653,24.2590093 3.04617841,22.704463 Z M8.0340767,22.6196336 C8.80401977,22.0878561 10.842983,21.7152578 11.301703,21.9977867 C11.5787446,22.1687203 10.661879,22.8443821 9.29505415,23.2698041 C8.75044977,23.4393214 7.46046122,23.0153157 8.0340767,22.6196336 Z M7.48918508,22.7609688 C7.48918508,22.7609688 7.80457306,23.4393214 8.54981361,23.4677868 C8.54981361,23.4677868 7.54648918,23.9481567 5.9125324,24.1461394 C5.9125324,24.1461394 5.22445234,24.0892087 5.42523212,23.552333 C5.42523212,23.552333 6.05600808,22.704463 7.48918508,22.7609688 Z M5.08126389,23.8068214 C5.08126389,23.8068214 5.28218729,24.4004862 5.76948758,24.3438388 C5.76948758,24.3438388 5.33906054,24.7114804 5.5114037,25.6441799 C5.5114037,25.6441799 5.05297089,25.5028446 4.79474339,25.7856567 C4.79474339,25.7856567 3.96347488,24.9093215 5.08126389,23.8068214 Z M4.85176025,26.1878533 C4.85176025,26.1878533 5.01835864,25.8040671 5.55018091,25.9557405 C5.55018091,25.9557405 5.82837149,26.8500614 5.38846558,27.0201452 C5.15537145,27.1099313 4.93146896,27.0603648 4.85176025,26.1878533 Z M10.0690186,23.5242925 C10.9290109,22.6479573 11.5883671,22.4501162 11.846451,22.676281 C12.2111004,22.9959139 11.0439064,23.8634688 11.0439064,23.8634688 C10.3844065,24.0046625 10.0690186,23.5242925 10.0690186,23.5242925 Z M9.75363058,23.6936683 C9.75363058,23.6936683 9.95426674,24.2027868 10.7570986,24.1743214 C10.7570986,24.1743214 9.86823878,25.5310267 9.03711389,25.7006856 C9.03711389,25.7006856 8.80789749,25.2201741 8.4352054,25.3615093 C8.4352054,25.3615093 8.89392545,24.1459977 9.75363058,23.6936683 Z M8.29201696,25.6157145 C8.73781127,25.3959226 9.20902619,25.7006856 8.92250569,27.4813966 C8.92250569,27.4813966 8.52108975,27.5095787 8.34932106,27.6510556 C8.34932106,27.6510556 7.43173736,26.0400036 8.29201696,25.6157145 Z M8.43850865,27.9439227 C8.43850865,27.9439227 8.62349031,27.8052781 8.92738875,27.8344516 C8.92738875,27.8344516 9.25340456,28.9301539 8.89780317,28.9958649 C8.6412991,29.0433071 8.46076964,28.6818967 8.43850865,27.9439227 Z M24.5395247,20.4997462 C24.5395247,20.4997462 21.4876146,21.0775497 21.4150869,20.4715642 C21.3577828,19.990911 22.5333067,19.4255699 24.5109445,19.3973879 C24.5109445,19.3973879 24.8833493,20.0192347 24.5395247,20.4997462 Z M24.7401609,19.3125584 C25.1704443,18.7472173 26.2880897,18.6058821 26.2880897,18.6058821 C26.8901418,18.6907115 26.8901418,19.3973879 26.8901418,19.3973879 C26.4028415,20.1323879 24.8833493,20.358411 24.8833493,20.358411 C25.2850525,19.6235526 24.7401609,19.3125584 24.7401609,19.3125584 Z M26.8901418,18.4930121 C27.4350334,18.1253705 28.7247348,18.2102 28.7247348,18.2102 C29.2979194,18.4645468 28.982675,18.8603705 28.982675,18.8603705 C27.9794942,19.5385815 27.2055298,19.3973879 27.2055298,19.3973879 C27.4058787,19.0015641 26.8901418,18.4930121 26.8901418,18.4930121 Z M29.212035,18.1536942 C31.2472641,17.6731826 30.9894675,18.408041 30.9894675,18.408041 C30.3872718,18.8885526 29.3843782,18.7190352 29.3843782,18.7190352 C29.5847271,18.4363647 29.212035,18.1536942 29.212035,18.1536942 Z M24.5395247,20.9802578 C24.5395247,20.9802578 24.7690284,21.7999457 24.138396,22.0262521 C24.138396,22.0262521 21.615723,22.0262521 21.1572902,21.3760815 C21.1572902,21.3760815 20.9565104,21.0649457 21.4436671,20.8954283 C21.4436671,20.8954283 21.9022435,21.0367636 22.2752229,20.9520757 C22.2752229,20.9520757 23.7941406,20.6128994 24.5395247,20.9802578 Z M24.7687411,20.9519341 C25.8580935,20.5845757 26.9474459,21.1497752 26.9474459,21.1497752 C26.6322016,21.3760815 26.7180859,21.9977867 26.7180859,21.9977867 C25.7149051,21.6021046 24.5971161,22.0262521 24.5971161,22.0262521 C25.0269686,21.5457405 24.7687411,20.9519341 24.7687411,20.9519341 Z M26.9763134,22.0826162 C26.8325505,21.6869341 27.1193582,21.2347463 27.1193582,21.2347463 C28.1515501,21.3194341 28.8106191,22.506622 28.8106191,22.506622 C28.8106191,22.874122 28.2947386,23.0153157 28.2947386,23.0153157 C27.8934663,22.3651451 26.9763134,22.0826162 26.9763134,22.0826162 Z M28.9540948,22.704463 C29.7567831,24.2590093 29.2691955,24.5133561 29.2691955,24.5133561 C28.6958673,24.654833 28.7248784,23.4393214 28.4094904,23.2134399 C28.8967907,23.1567925 28.9540948,22.704463 28.9540948,22.704463 Z M23.9661965,22.6197752 C24.5395247,23.0153157 23.2496798,23.4393214 22.7050754,23.2698041 C21.3382505,22.8442405 20.4215286,22.1688619 20.6984266,21.9977867 C21.1572902,21.7152578 23.1959662,22.0881393 23.9661965,22.6197752 Z M24.5109445,22.7609688 C25.9441215,22.704463 26.5747538,23.552333 26.5747538,23.552333 C26.7755336,24.0892087 26.0877408,24.1461394 26.0877408,24.1461394 C24.453784,23.9481567 23.4504596,23.4677868 23.4504596,23.4677868 C24.1955565,23.4393214 24.5109445,22.7609688 24.5109445,22.7609688 Z M26.9188657,23.8068214 C28.0366547,24.9093215 27.2055298,25.7856567 27.2055298,25.7856567 C26.9474459,25.5028446 26.4888695,25.6441799 26.4888695,25.6441799 C26.661069,24.7114804 26.2307856,24.3438388 26.2307856,24.3438388 C26.7180859,24.4004862 26.9188657,23.8068214 26.9188657,23.8068214 Z M27.1485129,26.1878533 C27.0688042,27.0603648 26.8447581,27.1099313 26.6118076,27.0201452 C26.1717581,26.8500614 26.4498051,25.9557405 26.4498051,25.9557405 C26.9817709,25.8040671 27.1485129,26.1878533 27.1485129,26.1878533 Z M21.9309674,23.5242925 C21.9309674,23.5242925 21.615723,24.0046625 20.9565104,23.8634688 C20.9565104,23.8634688 19.7891728,22.9960555 20.1535349,22.676281 C20.4117624,22.4501162 21.0711187,22.6479573 21.9309674,23.5242925 Z M22.2466426,23.6936683 C23.1063477,24.1459977 23.5649242,25.3615093 23.5649242,25.3615093 C23.1922321,25.2201741 22.9630157,25.7006856 22.9630157,25.7006856 C22.1316036,25.5310267 21.2431746,24.1743214 21.2431746,24.1743214 C22.0458628,24.2027868 22.2466426,23.6936683 22.2466426,23.6936683 Z M23.7081126,25.6157145 C24.5682486,26.0400036 23.6509521,27.6510556 23.6509521,27.6510556 C23.4790398,27.5095787 23.0777675,27.4813966 23.0777675,27.4813966 C22.791247,25.7006856 23.2624619,25.3959226 23.7081126,25.6157145 Z M23.5616209,27.9439227 C23.5393599,28.6818967 23.3589741,29.0433071 23.10247,28.9958649 C22.7465814,28.9301539 23.0725972,27.8344516 23.0725972,27.8344516 C23.3766393,27.8052781 23.5616209,27.9439227 23.5616209,27.9439227 Z"
      transform="translate(8 8)"
    />
  </g>
</svg>
