<svg xmlns="http://www.w3.org/2000/svg" width="48" height="48" viewBox="0 0 48 48">
  <g>
    <path
      d="M15.1417187,16.9798845 C15.3303902,12.3931059 10.7808109,13.8108288 10.7808109,13.8108288 C13.682477,14.3111645 13.0626477,16.0482741 12.5852029,16.5305939 C11.1490247,17.981504 9.41894811,17.9099146 8.34778051,17.6020644 C3.90006456,16.3234113 4.43132397,11.7200391 5.72111354,10.2416311 C9.45898876,5.95717145 13.0754607,10.1033513 13.0754607,10.1033513 C17.0679945,9.82694987 17.6982344,5.78396619 17.6982344,5.78396619 C13.8460031,1.98293256 11.671315,1.7204381 9.01309603,2.15582175 C3.21921326,3.10465785 1,8.37983258 1,11.4652883 C1,18.632288 5.13443787,21.1968636 8.24271383,21.3684885 C12.6202786,21.6102806 15.0523479,19.1553805 15.1417187,16.9798845 Z M30.7433196,18.9861261 C30.7399562,18.9976626 30.7362725,19.0084089 30.7329091,19.0199454 C30.7333895,19.0199454 30.73387,19.0201034 30.7343505,19.0201034 C30.7375538,19.0095151 30.7402765,18.9968724 30.7433196,18.9861261 Z M30.8833018,18.1564476 C30.9673871,17.6984651 30.9875676,17.4908084 30.99974,16.79135 C31.0151156,15.9085721 30.3496399,15.3255847 28.72463,14.3634737 C28.2246023,14.067476 27.7311412,13.7544107 26.9240818,12.4604284 C26.3249134,11.4997397 25.3102832,10.7685164 23.1530529,9.82805611 C21.8512511,9.26055604 20.5169364,8.87163438 18.8350687,6.62107226 C18.77725,6.5436356 18.7149467,6.46525074 18.6484792,6.38654981 C18.2264507,8.09568746 16.7598416,10.5861452 13.2558038,10.8284113 C13.2558038,10.8284113 11.0758304,9.33088116 9.33037818,9.40815979 C8.98138383,9.42364712 8.75331226,9.44719418 8.20875935,9.56540361 C6.580386,9.88779296 5.60355418,10.7773663 5.60355418,10.7773663 C5.84652087,11.8619536 6.37826077,12.6736162 7.03364621,13.2834694 C6.93162262,13.8049816 6.84113074,14.3622094 6.76345187,14.9591038 C6.74150959,15.1269359 6.71732504,15.2928716 6.69201934,15.4577011 C7.1553698,15.9793713 7.80643085,16.363868 8.64247973,16.6040797 C8.86478544,16.6680835 9.21634239,16.7444139 9.62715951,16.7444139 C10.4729783,16.7444139 11.2146914,16.4278718 11.8316378,15.8044277 C11.9847533,15.6497124 12.1439549,15.4626001 12.1497208,15.2558917 L12.1461972,15.2623711 C11.9958045,14.1120416 8.87487569,14.2605936 8.87487569,14.2605936 C9.05457815,14.0436129 9.25782451,13.8572908 9.47548551,13.6964122 C9.47532535,13.6964122 9.47516519,13.6960962 9.47500502,13.6960962 C9.83136685,13.4590452 10.637145,13.0125991 11.8846516,12.7978309 C12.7591395,12.6744064 13.4728242,12.7897712 13.4728242,12.7897712 C14.0345145,12.9490695 14.4394056,13.0693333 15.0994357,13.7308636 C15.849157,14.4826313 16.2176912,15.5811256 16.1949481,16.9964781 C16.1521846,19.6642499 13.3874575,22.4244717 8.83563585,22.4244717 C8.62165859,22.4244717 8.4022358,22.4181503 8.18361382,22.4061398 C7.07753077,22.3451386 5.9642404,21.9999924 4.92942971,21.3860303 C4.74460205,21.7575682 4.58876382,22.0066298 4.48834186,22.1057171 C3.38514173,23.1942553 8.94566757,30.993549 15.1207374,29.8941065 C15.1207374,29.8941065 14.9556097,26.0903863 17.2100587,23.8467776 C18.2925979,22.7694599 18.1455686,22.0938646 23.1995001,22.472356 C24.375414,22.5603809 25.5039198,22.5629095 27.378303,20.9604448 C27.825477,20.5781605 28.2861047,20.3577031 29.4211772,20.2731549 C30.0137789,20.2290634 30.4665586,19.910783 30.7329091,19.0199454 C29.9846293,18.8756603 28.9368454,18.8495847 27.4849713,18.8674425 C26.1102955,18.8846683 29.3298845,18.0164295 30.8833018,18.1564476 Z M29.237791,16.1269751 C29.3439788,15.9539278 29.6788789,15.9624617 29.9860708,16.1457811 C30.2931025,16.3292586 30.4558277,16.6184608 30.3496399,16.79135 C30.2432919,16.9647133 29.9083919,16.9563375 29.6013601,16.772702 C29.2941682,16.5892245 29.131443,16.3000223 29.237791,16.1269751 Z M11.9737021,11.8723839 C10.9356881,11.4463242 9.19215784,10.9540483 6.90952018,11.1163492 C7.31873567,10.83173 9.56277414,9.44687811 12.238611,11.263953 C12.238611,11.263953 12.1277785,11.4363681 11.9737021,11.8723839 Z M18.1386816,12.9433802 C18.1386816,12.9433802 19.8102989,11.2024778 21.528043,12.9890521 C21.528043,12.9890521 19.9494802,14.6842827 18.1386816,12.9433802 Z"
      transform="translate(8 8)"
    />
  </g>
</svg>
