<svg xmlns="http://www.w3.org/2000/svg" viewBox="0 0 32 19.2">
  <defs>
    <clipPath id="clip-path">
      <rect id="Rectangle_911" data-name="Rectangle 911" className="cls-1" />
    </clipPath>
  </defs>
  <g id="Cartoonist" className="cls-2">
    <g id="noun_Monster_1731710" transform="translate(-27 -26.925)">
      <g id="Group_2194" data-name="Group 2194" transform="translate(28.133 30.345)">
        <g id="Group_2193" data-name="Group 2193">
          <g id="Group_2192" data-name="Group 2192">
            <path
              id="Path_1008"
              data-name="Path 1008"
              className="cls-3"
              d="M53.221,37.625a1.7,1.7,0,1,1,2.334-.586A1.7,1.7,0,0,1,53.221,37.625Z"
              transform="rotate(-53 10.455 55.925)"
            />
            <path
              id="Path_1009"
              data-name="Path 1009"
              className="cls-3"
              d="M53.933,42.331A6.51,6.51,0,0,1,51.71,40.1c.144.111.276.221.431.332a4.1,4.1,0,1,0-.63-6.537,3.787,3.787,0,0,1,.221-.42,6.456,6.456,0,1,1,2.2,8.86Z"
              transform="rotate(-53 9.798 56.452)"
            />
            <path
              id="Path_1011"
              data-name="Path 1011"
              className="cls-3"
              d="M34.965,37.039a1.689,1.689,0,1,1,2.323.586A1.681,1.681,0,0,1,34.965,37.039Z"
              transform="rotate(53 49.547 -5.18)"
            />
            <path
              id="Path_1012"
              data-name="Path 1012"
              className="cls-3"
              d="M37.906,42.331a6.453,6.453,0,1,1,2.213-8.86c.077.133.144.288.21.42a4.093,4.093,0,1,0-.63,6.537c.155-.11.288-.221.431-.332A6.414,6.414,0,0,1,37.906,42.331Z"
              transform="rotate(53 50.87 -5.988)"
            />
          </g>
        </g>
      </g>
    </g>
  </g>
</svg>
