<svg xmlns="http://www.w3.org/2000/svg" viewBox="0 0 223.506 38.837">
    <defs>
        <style>
            .cls-1{fill:#fff}
        </style>
    </defs>
    <g id="News" transform="translate(-72.098 -268.399)">
        <path id="Path_271" d="M.1-28.633h9.255L15.8-8.027l6.348-20.605h8.984L20.508 0h-9.59z" class="cls-1" data-name="Path 271" transform="translate(72 304)"/>
        <g id="Group_128" data-name="Group 128" transform="translate(0 -3)">
            <g id="Group_48" data-name="Group 48" transform="translate(109 254.426)">
                <g id="Group_47" data-name="Group 47" transform="translate(0 8.574)">
                    <path id="Path_273" d="M2.988-28.633h8.262l10.781 15.84v-15.84h8.34V0h-8.34L11.309-15.723V0H2.988z" class="cls-1" data-name="Path 273" transform="translate(25 44)"/>
                    <path id="Path_272" d="M-.02-28.633h8.4l3.027 16 4.414-16H24.2l4.434 16 3.027-16h8.359L33.711 0h-8.672L20.02-18.027 15.02 0H6.348zm40.647 19.16L49.045-10a6.422 6.422 0 0 0 1.113 3.125 4.678 4.678 0 0 0 3.906 1.738 4.325 4.325 0 0 0 2.92-.889 2.663 2.663 0 0 0 1.026-2.06 2.628 2.628 0 0 0-.977-1.992q-.977-.879-4.531-1.66-5.82-1.309-8.3-3.477a6.992 6.992 0 0 1-2.5-5.527 7.508 7.508 0 0 1 1.279-4.17A8.486 8.486 0 0 1 46.828-28a17.964 17.964 0 0 1 7.041-1.123q5.488 0 8.369 2.041t3.428 6.494l-8.34.488a4.483 4.483 0 0 0-1.4-2.812 4.485 4.485 0 0 0-2.939-.879 3.547 3.547 0 0 0-2.324.654 2.005 2.005 0 0 0-.781 1.592 1.594 1.594 0 0 0 .645 1.23 7.25 7.25 0 0 0 2.973 1.057 37.139 37.139 0 0 1 8.311 2.529 8.736 8.736 0 0 1 3.652 3.174A8.047 8.047 0 0 1 66.6-9.316a9.078 9.078 0 0 1-1.52 5.078 9.533 9.533 0 0 1-4.258 3.525 17.2 17.2 0 0 1-6.895 1.2q-7.3 0-10.117-2.812a11.093 11.093 0 0 1-3.183-7.148z" class="cls-1" data-name="Path 272" transform="translate(120 44)"/>
                </g>
            </g>
            <g id="Group_127" data-name="Group 127" transform="translate(0 -.345)">
                <g id="megaphone" transform="rotate(45 -258.383 306.342)">
                    <g id="Group_93" data-name="Group 93" transform="translate(45.149 -46.12)">
                        <g id="Group_92" data-name="Group 92">
                            <path id="Path_163" d="M242.7 26.147l-21.12-21.12a3.174 3.174 0 1 0-4.489 4.488l21.12 21.119a3.172 3.172 0 0 0 4.486-4.486z" class="cls-1" data-name="Path 163" transform="translate(-216.163 -4.1)"/>
                        </g>
                    </g>
                    <g id="Group_95" data-name="Group 95" transform="translate(40.718 -38.534)">
                        <g id="Group_94" data-name="Group 94">
                            <path id="Path_164" d="M142.033 112.6l-.159.8c-1.12 5.6-.7 7.78-4.38 12.092l11.489 11.489c4.312-3.679 6.418-3.333 12.019-4.454l.8-.159z" class="cls-1" data-name="Path 164" transform="translate(-137.494 -112.603)"/>
                        </g>
                    </g>
                    <g id="Group_97" data-name="Group 97" transform="translate(30.136 -24.036)">
                        <g id="Group_96" data-name="Group 96">
                            <path id="Path_165" d="M39.383 256.989l-7.853 7.851a4.758 4.758 0 0 0 0 6.731l4.486 4.486a4.758 4.758 0 0 0 6.731 0L50.6 268.2zm1.117 12.338a1.586 1.586 0 0 1-2.243-2.243l2.243-2.243a1.586 1.586 0 0 1 2.243 2.243z" class="cls-1" data-name="Path 165" transform="translate(-30.136 -256.989)"/>
                        </g>
                    </g>
                    <g id="Group_101" data-name="Group 101" transform="translate(55.157 -55.712)">
                        <g id="Group_100" data-name="Group 100">
                            <path id="Path_167" d="M334.382 0a2.722 2.722 0 0 0-2.518 2.891v5.781a2.542 2.542 0 1 0 5.035 0V2.891A2.722 2.722 0 0 0 334.382 0z" class="cls-1" data-name="Path 167" transform="translate(-331.864)"/>
                        </g>
                    </g>
                    <g id="Group_103" data-name="Group 103" transform="translate(70.262 -34.078)">
                        <g id="Group_102" data-name="Group 102">
                            <path id="Path_168" d="M430.8 120h-5.958a2.553 2.553 0 1 0 0 5.035h5.958a2.553 2.553 0 1 0 0-5.035z" class="cls-1" data-name="Path 168" transform="translate(-421.864 -120)"/>
                        </g>
                    </g>
                    <g id="Group_105" data-name="Group 105" transform="translate(62.707 -47.499)">
                        <g id="Group_104" data-name="Group 104">
                            <path id="Path_169" d="M401.97 30.8a2.725 2.725 0 0 0-3.855 0l-5.452 5.452a2.726 2.726 0 0 0 3.855 3.855l5.452-5.452a2.725 2.725 0 0 0 0-3.855z" class="cls-1" data-name="Path 169" transform="translate(-391.864 -30)"/>
                        </g>
                    </g>
                </g>
            </g>
        </g>
    </g>
</svg>
