<svg xmlns="http://www.w3.org/2000/svg" viewBox="0 0 231.941 38.7">
    <defs>
        <style>
            .cls-1{fill:#fff}
        </style>
    </defs>
    <g id="Automobile" transform="translate(-81.098 -931.048)">
        <g id="Group_76" data-name="Group 76" transform="translate(4 2)">
            <path id="Path_281" d="M.1-28.633h9.255L15.8-8.027l6.348-20.605h8.984L20.508 0h-9.59zM33.4 0v-28.633h14.746a21.422 21.422 0 0 1 6.27.7 6.675 6.675 0 0 1 3.5 2.607 7.906 7.906 0 0 1 1.328 4.639 7.973 7.973 0 0 1-1.016 4.111 7.942 7.942 0 0 1-2.793 2.8 10.7 10.7 0 0 1-3.105 1.133 8.815 8.815 0 0 1 2.3 1.055 8.921 8.921 0 0 1 1.416 1.5A11.23 11.23 0 0 1 57.287-8.3L61.564 0h-10l-4.726-8.75a6.669 6.669 0 0 0-1.6-2.207 3.712 3.712 0 0 0-2.168-.664h-.781V0zm8.887-17.031h3.73a13.331 13.331 0 0 0 2.344-.391 2.339 2.339 0 0 0 1.436-.9 2.646 2.646 0 0 0 .557-1.66 2.631 2.631 0 0 0-.879-2.129 5.317 5.317 0 0 0-3.3-.742h-3.888zM63.753 0v-28.633H78.5a21.422 21.422 0 0 1 6.27.7 6.675 6.675 0 0 1 3.5 2.607 7.906 7.906 0 0 1 1.328 4.639 7.973 7.973 0 0 1-1.016 4.111 7.942 7.942 0 0 1-2.793 2.8 10.7 10.7 0 0 1-3.105 1.133 8.815 8.815 0 0 1 2.3 1.055 8.921 8.921 0 0 1 1.416 1.5A11.23 11.23 0 0 1 87.64-8.3L91.917 0h-10l-4.726-8.75a6.669 6.669 0 0 0-1.6-2.207 3.712 3.712 0 0 0-2.168-.664h-.783V0zm8.887-17.031h3.73a13.331 13.331 0 0 0 2.344-.391 2.339 2.339 0 0 0 1.436-.9 2.646 2.646 0 0 0 .557-1.66 2.631 2.631 0 0 0-.879-2.129 5.317 5.317 0 0 0-3.3-.742H72.64z" class="cls-1" data-name="Path 281" transform="translate(77 967.135)"/>
            <path id="Path_282" d="M2.832-28.633h11.641l4.492 17.422 4.473-17.422h11.6V0h-7.225v-21.836L22.207 0h-6.543l-5.586-21.836V0H2.832z" class="cls-1" data-name="Path 282" transform="translate(274 967.135)"/>
            <g id="racing" transform="translate(176 929.048)">
                <g id="Group_78" data-name="Group 78" transform="translate(23.794 17.131)">
                    <g id="Group_77" data-name="Group 77">
                        <path id="Path_151" d="M270.774 230.954a2.219 2.219 0 1 0 2.219 2.219 2.221 2.221 0 0 0-2.219-2.219z" class="cls-1" data-name="Path 151" transform="translate(-268.555 -230.954)"/>
                    </g>
                </g>
                <g id="Group_80" data-name="Group 80" transform="translate(27.483 10.405)">
                    <g id="Group_79" data-name="Group 79">
                        <path id="Path_152" d="M310.189 155.037v4a5.176 5.176 0 0 1 2.776 2.019l3.806-1.237a9.09 9.09 0 0 0-6.582-4.782z" class="cls-1" data-name="Path 152" transform="translate(-310.189 -155.037)"/>
                    </g>
                </g>
                <g id="Group_82" data-name="Group 82" transform="translate(30.106 17.983)">
                    <g id="Group_81" data-name="Group 81">
                        <path id="Path_153" d="M344.672 240.574l-3.807 1.237v.13a5.131 5.131 0 0 1-1.065 3.134l2.351 3.235a9.061 9.061 0 0 0 2.518-7.736z" class="cls-1" data-name="Path 153" transform="translate(-339.803 -240.574)"/>
                    </g>
                </g>
                <g id="Group_84" data-name="Group 84">
                    <g id="Group_83" data-name="Group 83">
                        <path id="Path_154" d="M26.013 37.6H8.132a1.47 1.47 0 0 0 0 2.939h7.64a19.494 19.494 0 0 0-4.313 3.673H1.47a1.47 1.47 0 0 0 0 2.94h7.863a19.312 19.312 0 0 0 .888 20.968h-4.17a1.47 1.47 0 0 0 0 2.939h6.735a19.472 19.472 0 0 0 2.986 2.3H1.621a1.47 1.47 0 0 0 0 2.939h24.392a19.35 19.35 0 1 0 0-38.7zm7.139 29c-.027.023-.054.046-.083.067s-.066.046-.1.067a11.981 11.981 0 0 1-13.912 0q-.051-.031-.1-.067c-.029-.021-.056-.044-.083-.067a12 12 0 1 1 14.278 0z" class="cls-1" data-name="Path 154" transform="translate(0 -37.6)"/>
                    </g>
                </g>
                <g id="Group_86" data-name="Group 86" transform="translate(17.961 10.405)">
                    <g id="Group_85" data-name="Group 85">
                        <path id="Path_155" d="M202.722 159.82l3.806 1.237a5.178 5.178 0 0 1 2.776-2.019v-4a9.091 9.091 0 0 0-6.582 4.782z" class="cls-1" data-name="Path 155" transform="translate(-202.722 -155.036)"/>
                    </g>
                </g>
                <g id="Group_88" data-name="Group 88" transform="translate(21.945 24.214)">
                    <g id="Group_87" data-name="Group 87">
                        <path id="Path_156" d="M253.47 310.894a5.144 5.144 0 0 1-3.434 0l-2.351 3.236a9.052 9.052 0 0 0 8.136 0z" class="cls-1" data-name="Path 156" transform="translate(-247.685 -310.894)"/>
                    </g>
                </g>
                <g id="Group_90" data-name="Group 90" transform="translate(16.948 17.983)">
                    <g id="Group_89" data-name="Group 89">
                        <path id="Path_157" d="M195.19 241.941v-.13l-3.807-1.237a9.06 9.06 0 0 0 2.518 7.736l2.351-3.235a5.132 5.132 0 0 1-1.062-3.134z" class="cls-1" data-name="Path 157" transform="translate(-191.283 -240.574)"/>
                    </g>
                </g>
            </g>
            <g id="racing-2" data-name="racing" transform="translate(224.636 929.048)">
                <g id="Group_78-2" data-name="Group 78" transform="translate(23.794 17.131)">
                    <g id="Group_77-2" data-name="Group 77">
                        <path id="Path_151-2" d="M270.774 230.954a2.219 2.219 0 1 0 2.219 2.219 2.221 2.221 0 0 0-2.219-2.219z" class="cls-1" data-name="Path 151" transform="translate(-268.555 -230.954)"/>
                    </g>
                </g>
                <g id="Group_80-2" data-name="Group 80" transform="translate(27.483 10.405)">
                    <g id="Group_79-2" data-name="Group 79">
                        <path id="Path_152-2" d="M310.189 155.037v4a5.176 5.176 0 0 1 2.776 2.019l3.806-1.237a9.09 9.09 0 0 0-6.582-4.782z" class="cls-1" data-name="Path 152" transform="translate(-310.189 -155.037)"/>
                    </g>
                </g>
                <g id="Group_82-2" data-name="Group 82" transform="translate(30.106 17.983)">
                    <g id="Group_81-2" data-name="Group 81">
                        <path id="Path_153-2" d="M344.672 240.574l-3.807 1.237v.13a5.131 5.131 0 0 1-1.065 3.134l2.351 3.235a9.061 9.061 0 0 0 2.518-7.736z" class="cls-1" data-name="Path 153" transform="translate(-339.803 -240.574)"/>
                    </g>
                </g>
                <g id="Group_84-2" data-name="Group 84">
                    <g id="Group_83-2" data-name="Group 83">
                        <path id="Path_154-2" d="M26.013 37.6H8.132a1.47 1.47 0 0 0 0 2.939h7.64a19.494 19.494 0 0 0-4.313 3.673H1.47a1.47 1.47 0 0 0 0 2.94h7.863a19.312 19.312 0 0 0 .888 20.968h-4.17a1.47 1.47 0 0 0 0 2.939h6.735a19.472 19.472 0 0 0 2.986 2.3H1.621a1.47 1.47 0 0 0 0 2.939h24.392a19.35 19.35 0 1 0 0-38.7zm7.139 29c-.027.023-.054.046-.083.067s-.066.046-.1.067a11.981 11.981 0 0 1-13.912 0q-.051-.031-.1-.067c-.029-.021-.056-.044-.083-.067a12 12 0 1 1 14.278 0z" class="cls-1" data-name="Path 154" transform="translate(0 -37.6)"/>
                    </g>
                </g>
                <g id="Group_86-2" data-name="Group 86" transform="translate(17.961 10.405)">
                    <g id="Group_85-2" data-name="Group 85">
                        <path id="Path_155-2" d="M202.722 159.82l3.806 1.237a5.178 5.178 0 0 1 2.776-2.019v-4a9.091 9.091 0 0 0-6.582 4.782z" class="cls-1" data-name="Path 155" transform="translate(-202.722 -155.036)"/>
                    </g>
                </g>
                <g id="Group_88-2" data-name="Group 88" transform="translate(21.945 24.214)">
                    <g id="Group_87-2" data-name="Group 87">
                        <path id="Path_156-2" d="M253.47 310.894a5.144 5.144 0 0 1-3.434 0l-2.351 3.236a9.052 9.052 0 0 0 8.136 0z" class="cls-1" data-name="Path 156" transform="translate(-247.685 -310.894)"/>
                    </g>
                </g>
                <g id="Group_90-2" data-name="Group 90" transform="translate(16.948 17.983)">
                    <g id="Group_89-2" data-name="Group 89">
                        <path id="Path_157-2" d="M195.19 241.941v-.13l-3.807-1.237a9.06 9.06 0 0 0 2.518 7.736l2.351-3.235a5.132 5.132 0 0 1-1.062-3.134z" class="cls-1" data-name="Path 157" transform="translate(-191.283 -240.574)"/>
                    </g>
                </g>
            </g>
        </g>
    </g>
</svg>
