<svg xmlns="http://www.w3.org/2000/svg" viewBox="0 0 14 15">
  <path
    fill="currentColor"
    fillRule="evenodd"
    d="M12.25.75c.474 0 .884.173 1.23.52.347.346.52.756.52 1.23v7.875c0 .474-.173.884-.52 1.23-.346.347-.756.52-1.23.52H8.312l-3.417 2.57a.31.31 0 0 1-.342.014.308.308 0 0 1-.178-.287v-2.297H1.75c-.474 0-.884-.173-1.23-.52a1.682 1.682 0 0 1-.52-1.23V2.5c0-.474.173-.884.52-1.23.346-.347.756-.52 1.23-.52h10.5zM7.875 7.969V7.53a.21.21 0 0 0-.068-.15.21.21 0 0 0-.15-.068H3.718a.21.21 0 0 0-.15.068.21.21 0 0 0-.069.15v.438a.21.21 0 0 0 .068.15.21.21 0 0 0 .15.069h3.938a.21.21 0 0 0 .15-.069.21.21 0 0 0 .069-.15zM10.5 5.344v-.438a.21.21 0 0 0-.068-.15.21.21 0 0 0-.15-.068H3.718a.21.21 0 0 0-.15.068.21.21 0 0 0-.069.15v.438a.21.21 0 0 0 .068.15.21.21 0 0 0 .15.069h6.563a.21.21 0 0 0 .15-.069.21.21 0 0 0 .069-.15z"
  />
</svg>
