<svg xmlns="http://www.w3.org/2000/svg" viewBox="0 0 321.539 50.773">
    <defs>
        <style>
            .cls-1{fill:#fff}
        </style>
    </defs>
    <g id="Health" transform="translate(-71.836 -1843.613)">
        <path id="Path_296" d="M17.324-10.371v-5.957H31v12.207a28.01 28.01 0 0 1-6.947 3.642 23.566 23.566 0 0 1-7.158.967A17.4 17.4 0 0 1 8.584-1.25 11.9 11.9 0 0 1 3.6-6.426a17.013 17.013 0 0 1-1.768-7.891 16.474 16.474 0 0 1 1.938-8.154 12.523 12.523 0 0 1 5.664-5.264 18.431 18.431 0 0 1 7.832-1.387 22 22 0 0 1 7.1.859 9.216 9.216 0 0 1 3.905 2.663 11.843 11.843 0 0 1 2.334 4.58l-8.535 1.528a4.621 4.621 0 0 0-1.787-2.48 5.582 5.582 0 0 0-3.213-.859 5.793 5.793 0 0 0-4.639 2.021q-1.729 2.021-1.729 6.4 0 4.648 1.748 6.641a6.142 6.142 0 0 0 4.873 1.992 9.266 9.266 0 0 0 2.832-.43 15.3 15.3 0 0 0 3.086-1.465v-2.7zM34.377-14.3q0-7.012 3.906-10.918t10.879-3.906q7.148 0 11.016 3.838t3.867 10.752a17.627 17.627 0 0 1-1.69 8.234 12.044 12.044 0 0 1-4.883 5A16.118 16.118 0 0 1 49.513.488 18.314 18.314 0 0 1 41.5-1.055a12.071 12.071 0 0 1-5.146-4.883 16.213 16.213 0 0 1-1.977-8.362zm8.848.039q0 4.336 1.611 6.23a5.455 5.455 0 0 0 4.384 1.898 5.452 5.452 0 0 0 4.414-1.855q1.566-1.856 1.566-6.66 0-4.043-1.631-5.908a5.575 5.575 0 0 0-4.424-1.865 5.375 5.375 0 0 0-4.3 1.895q-1.621 1.893-1.621 6.268z" class="cls-1" data-name="Path 296" transform="translate(70 1889)"/>
        <path id="Path_295" d="M3.047-28.633h13.144a15.744 15.744 0 0 1 6.279 1.055 10.209 10.209 0 0 1 3.955 3.027 12.534 12.534 0 0 1 2.266 4.59 21.3 21.3 0 0 1 .7 5.547 19.257 19.257 0 0 1-1.041 7.119 11.784 11.784 0 0 1-2.9 4.238 9.463 9.463 0 0 1-3.985 2.276A20.524 20.524 0 0 1 16.191 0H3.047zm8.848 6.484V-6.5h2.168a9.118 9.118 0 0 0 3.945-.615 4.171 4.171 0 0 0 1.836-2.148 13.489 13.489 0 0 0 .664-4.971q0-4.551-1.484-6.23T14.1-22.148zm33.968-6.484h8.847v21.582h13.809V0H45.863zm26.271 0H81V0h-8.866zm11.623 0h9.258L99.46-8.027l6.348-20.605h8.984L104.167 0h-9.59zm33.537 0h8.867V0h-8.867zm14.513 0h8.262l10.781 15.84v-15.84h8.34V0h-8.34l-10.722-15.723V0h-8.32zm46.9 18.262v-5.957h13.672v12.207a28.01 28.01 0 0 1-6.943 3.643 23.566 23.566 0 0 1-7.158.967 17.4 17.4 0 0 1-8.311-1.738 11.9 11.9 0 0 1-4.98-5.176 17.013 17.013 0 0 1-1.768-7.891 16.474 16.474 0 0 1 1.934-8.154 12.523 12.523 0 0 1 5.664-5.264 18.431 18.431 0 0 1 7.832-1.387 22 22 0 0 1 7.1.859 9.216 9.216 0 0 1 3.906 2.666 11.843 11.843 0 0 1 2.334 4.58l-8.535 1.523a4.621 4.621 0 0 0-1.787-2.48 5.582 5.582 0 0 0-3.213-.859 5.793 5.793 0 0 0-4.639 2.021q-1.729 2.021-1.729 6.4 0 4.648 1.748 6.641a6.142 6.142 0 0 0 4.866 1.989 9.267 9.267 0 0 0 2.832-.43 15.3 15.3 0 0 0 3.086-1.465v-2.7z" class="cls-1" data-name="Path 295" transform="translate(201 1889)"/>
        <g id="heartbeat" transform="translate(137.856 1810.613)">
            <g id="Group_121" data-name="Group 121" transform="translate(0 33)">
                <g id="Group_120" data-name="Group 120">
                    <path id="Path_200" d="M42.8 33c-6.906 0-11.338 4.783-13.661 9.09C26.821 37.783 22.388 33 15.482 33 6.721 33 0 40.109 0 49.538a17.745 17.745 0 0 0 1.4 6.914h13.027l2.943-5.887a1.778 1.778 0 0 1 3.055 0l5.3 10.606 1.891-3.771a1.778 1.778 0 0 1 3.055 0l1.888 3.775 5.3-10.606a1.778 1.778 0 0 1 3.055 0l2.943 5.887h13.03a17.745 17.745 0 0 0 1.4-6.914C58.287 40.109 51.566 33 42.8 33z" class="cls-1" data-name="Path 200" transform="translate(0 -33)"/>
                </g>
            </g>
            <g id="Group_123" data-name="Group 123" transform="translate(3.192 55.147)">
                <g id="Group_122" data-name="Group 122">
                    <path id="Path_201" d="M67.65 232.264a1.708 1.708 0 0 1-1.528-.944l-1.888-3.775-5.3 10.606a1.708 1.708 0 0 1-3.055 0l-1.888-3.775-1.891 3.775a1.778 1.778 0 0 1-3.055 0l-5.3-10.606-1.888 3.775a1.708 1.708 0 0 1-1.528.944H28.037c3.515 5.53 9.844 10.782 17.762 17.465a680.805 680.805 0 0 1 7.071 6.025 1.71 1.71 0 0 0 2.238 0 680.805 680.805 0 0 1 7.071-6.025c7.918-6.683 14.247-11.935 17.762-17.465z" class="cls-1" data-name="Path 201" transform="translate(-28.037 -227.545)"/>
                </g>
            </g>
        </g>
    </g>
</svg>
