<svg xmlns="http://www.w3.org/2000/svg" width="484.569" height="52.881" viewBox="0 0 484.569 52.881">
  <g id="Group_3523" data-name="Group 3523" transform="translate(-7657.413 58.881)">
    <path id="Path_12328" data-name="Path 12328" d="M13.8-14.88V0H3.54V-42.42H20.16q7.56,0,11.52,3.75t3.96,10.11a13.928,13.928,0,0,1-1.77,7.05,12.272,12.272,0,0,1-5.25,4.86,18.5,18.5,0,0,1-8.46,1.77Zm5.22-8.22q6.18,0,6.18-5.46,0-5.58-6.18-5.58H13.8V-23.1ZM48.54-7.86H62.22V0H38.28V-42.42H48.54ZM74.52-42.42v24.48q0,4.2,1.89,6.42A6.81,6.81,0,0,0,81.9-9.3a6.81,6.81,0,0,0,5.49-2.22q1.89-2.22,1.89-6.42V-42.42H99.54v24.48A20.16,20.16,0,0,1,97.2-7.83a15.211,15.211,0,0,1-6.39,6.18A19.815,19.815,0,0,1,81.66.42a19.138,19.138,0,0,1-9-2.04A14.488,14.488,0,0,1,66.54-7.8a21.227,21.227,0,0,1-2.22-10.14V-42.42Zm59.94,30.48a11.7,11.7,0,0,1-1.71,6.18,12.06,12.06,0,0,1-5.04,4.5A17.757,17.757,0,0,1,119.64.42q-7.14,0-11.76-3.48a12.609,12.609,0,0,1-5.04-9.72h10.92A5.764,5.764,0,0,0,115.47-9a5.26,5.26,0,0,0,3.75,1.38,4.352,4.352,0,0,0,3.12-1.08,3.781,3.781,0,0,0,1.14-2.88,3.719,3.719,0,0,0-1.05-2.7,8.232,8.232,0,0,0-2.61-1.77q-1.56-.69-4.32-1.65a53.039,53.039,0,0,1-6.57-2.67,12.1,12.1,0,0,1-4.38-3.84,11.112,11.112,0,0,1-1.83-6.63,11.163,11.163,0,0,1,1.92-6.54,12.2,12.2,0,0,1,5.31-4.23,19.368,19.368,0,0,1,7.77-1.47q7.08,0,11.25,3.36a12.821,12.821,0,0,1,4.71,9.24h-11.1a5.693,5.693,0,0,0-1.53-3.33,4.5,4.5,0,0,0-3.33-1.23,4.291,4.291,0,0,0-2.91.96,3.525,3.525,0,0,0-1.11,2.82,3.581,3.581,0,0,0,.99,2.55A7.545,7.545,0,0,0,117.18-27q1.5.66,4.32,1.68a47.484,47.484,0,0,1,6.66,2.73,12.741,12.741,0,0,1,4.44,3.93A11.227,11.227,0,0,1,134.46-11.94Z" transform="translate(7933.959 -10.541)" fill="#fff"/>
    <path id="Path_12329" data-name="Path 12329" d="M11.46-42.42,21.84-10.5,32.22-42.42H43.2L28.44,0H15.18L.48-42.42Zm43.56,0V0H44.76V-42.42ZM79.68-21.66,96.78,0H84.36L69.96-19.02V0H59.7V-42.42H69.96v18.66L84.48-42.42h12.3Zm45.3,13.92h-15.9L106.44,0H95.64l15.54-42.12H123L138.54,0H127.62Zm-2.64-7.8-5.28-15.6-5.34,15.6Zm48.24-26.88v8.16H159.06V0H148.74V-34.26h-11.4v-8.16Zm28.2,34.68h-15.9L180.24,0h-10.8l15.54-42.12H196.8L212.34,0H201.42Zm-2.64-7.8-5.28-15.6-5.34,15.6ZM251.58,0H241.32L224.16-26.04V0H213.9V-42.42h10.26l17.16,26.28V-42.42h10.26Z" transform="translate(7656.933 -10.541)" fill="#fff"/>
    <path id="Path_12330" data-name="Path 12330" d="M7.813-20.117l2.734-12.744h20.02l4.248-20.02H47.656l-4.248,20.02h20.02L60.693-20.117H40.674L36.426,0H23.584l4.248-20.117Z" transform="translate(8078.554 -6)" fill="#fff"/>
  </g>
</svg>
