<svg xmlns="http://www.w3.org/2000/svg" viewBox="0 0 411.122 51.012">
    <defs>
        <style>
            .cls-1{fill:#fff}
        </style>
    </defs>
    <g id="Sports" transform="translate(-61.387 -1079.574)">
        <path id="Path_283" d="M1.387-9.473L9.8-10a6.422 6.422 0 0 0 1.113 3.125 4.678 4.678 0 0 0 3.906 1.738 4.325 4.325 0 0 0 2.92-.889 2.663 2.663 0 0 0 1.031-2.06 2.628 2.628 0 0 0-.977-1.992q-.977-.879-4.531-1.66-5.82-1.309-8.3-3.477a6.992 6.992 0 0 1-2.5-5.527 7.508 7.508 0 0 1 1.279-4.17A8.486 8.486 0 0 1 7.588-28a17.964 17.964 0 0 1 7.041-1.123q5.488 0 8.369 2.041t3.428 6.494l-8.34.488a4.483 4.483 0 0 0-1.4-2.812 4.485 4.485 0 0 0-2.939-.879 3.547 3.547 0 0 0-2.324.654 2.005 2.005 0 0 0-.781 1.592 1.594 1.594 0 0 0 .645 1.23 7.25 7.25 0 0 0 2.969 1.055 37.14 37.14 0 0 1 8.311 2.529 8.736 8.736 0 0 1 3.652 3.174 8.047 8.047 0 0 1 1.143 4.238 9.078 9.078 0 0 1-1.522 5.081 9.533 9.533 0 0 1-4.258 3.525 17.2 17.2 0 0 1-6.895 1.2q-7.3 0-10.117-2.812a11.093 11.093 0 0 1-3.183-7.148zm29.631-19.16h14.706q4.8 0 7.2 2.285a8.569 8.569 0 0 1 2.393 6.5 8.831 8.831 0 0 1-2.607 6.777q-2.607 2.441-7.959 2.441H39.9V0h-8.883zM39.9-16.426h2.168a5.578 5.578 0 0 0 3.594-.889A2.864 2.864 0 0 0 46.7-19.59a3.18 3.18 0 0 0-.9-2.285q-.9-.937-3.379-.937H39.9z" class="cls-1" data-name="Path 283" transform="translate(60 1123.574)"/>
        <path id="Path_285" d="M.918-28.633h26.895v7.07h-9.024V0H9.941v-21.562H.918zm28.6 19.16L37.931-10a6.422 6.422 0 0 0 1.113 3.125 4.678 4.678 0 0 0 3.906 1.738 4.325 4.325 0 0 0 2.92-.889 2.663 2.663 0 0 0 1.03-2.06 2.628 2.628 0 0 0-.977-1.992q-.977-.879-4.531-1.66-5.82-1.309-8.3-3.477a6.992 6.992 0 0 1-2.5-5.527 7.508 7.508 0 0 1 1.279-4.17A8.486 8.486 0 0 1 35.715-28a17.964 17.964 0 0 1 7.041-1.123q5.488 0 8.369 2.041t3.428 6.494l-8.34.488a4.483 4.483 0 0 0-1.4-2.812 4.485 4.485 0 0 0-2.939-.879 3.547 3.547 0 0 0-2.324.654 2.005 2.005 0 0 0-.781 1.592 1.594 1.594 0 0 0 .645 1.23 7.25 7.25 0 0 0 2.969 1.055 37.139 37.139 0 0 1 8.317 2.531 8.736 8.736 0 0 1 3.652 3.174 8.047 8.047 0 0 1 1.138 4.239 9.078 9.078 0 0 1-1.523 5.078 9.533 9.533 0 0 1-4.258 3.525 17.2 17.2 0 0 1-6.895 1.2q-7.3 0-10.117-2.812a11.093 11.093 0 0 1-3.184-7.148z" class="cls-1" data-name="Path 285" transform="translate(209 1123.574)"/>
        <path id="Path_284" d="M3.047 0v-28.633h14.746a21.422 21.422 0 0 1 6.27.7 6.675 6.675 0 0 1 3.5 2.607 7.906 7.906 0 0 1 1.328 4.639 7.973 7.973 0 0 1-1.016 4.111 7.942 7.942 0 0 1-2.793 2.8 10.7 10.7 0 0 1-3.105 1.133 8.815 8.815 0 0 1 2.3 1.055 8.921 8.921 0 0 1 1.416 1.5A11.23 11.23 0 0 1 26.934-8.3L31.211 0h-10l-4.727-8.75a6.669 6.669 0 0 0-1.6-2.207 3.712 3.712 0 0 0-2.168-.664h-.781V0zm8.887-17.031h3.73a13.331 13.331 0 0 0 2.344-.391 2.339 2.339 0 0 0 1.436-.9A2.646 2.646 0 0 0 20-19.98a2.631 2.631 0 0 0-.879-2.129 5.317 5.317 0 0 0-3.3-.742h-3.887z" class="cls-1" data-name="Path 284" transform="translate(176 1123.574)"/>
        <path id="Path_286" d="M.1-28.633h9.255L15.8-8.027l6.348-20.605h8.984L20.508 0h-9.59zm33.537 0H42.5V0h-8.865zm14.494 0h8.848v10.82l9.277-10.82h11.755l-10.43 10.8L78.48 0h-10.9l-6.034-11.777-4.57 4.785V0h-8.848zM98.267-4.727H88.189L86.8 0h-9.041l10.762-28.633h9.648L108.931 0h-9.258zm-1.855-6.191l-3.165-10.293L90.1-10.918zm9.826-17.715h26.895v7.07h-9.023V0h-8.848v-21.562h-9.023zm45.04 23.906H141.2L139.813 0h-9.043l10.762-28.633h9.648L161.942 0h-9.258zm-1.855-6.191l-3.164-10.293-3.145 10.293zm14.65-17.715h8.262l10.781 15.84v-15.84h8.34V0h-8.34l-10.723-15.723V0h-8.32z" class="cls-1" data-name="Path 286" transform="translate(281.053 1123.574)"/>
        <g id="cricket" transform="translate(122.366 1078.574)">
            <g id="Group_130" data-name="Group 130" transform="translate(-1.891 1)">
                <g id="Group_129" data-name="Group 129">
                    <path id="Path_213" d="M146.864 113.915l-.175.256a.91.91 0 1 1-1.5-1.039c.241-.347.476-.7.712-1.043a25.503 25.503 0 0 0-1.19-1.859c-5.287 6.255-11 12.472-17.016 18.49s-12.23 11.725-18.492 17.019q.9.637 1.856 1.191c.35-.238.7-.475 1.05-.717a.91.91 0 0 1 1.039 1.5l-.271.185a25.5 25.5 0 0 0 33.984-33.98zm-29.258 30.564q-.732.556-1.471 1.1a.91.91 0 1 1-1.078-1.467q.726-.534 1.448-1.082a.911.911 0 1 1 1.1 1.451zm4.314-3.417q-.708.586-1.423 1.16a.911.911 0 0 1-1.14-1.421q.7-.564 1.4-1.142a.911.911 0 0 1 1.161 1.4zm4.166-3.591q-.683.614-1.372 1.216a.911.911 0 0 1-1.2-1.371q.68-.594 1.354-1.2a.911.911 0 1 1 1.217 1.355zm4.017-3.759q-.659.641-1.323 1.271a.911.911 0 1 1-1.252-1.322q.655-.621 1.3-1.253a.911.911 0 0 1 1.272 1.3zm3.863-3.915q-.63.664-1.27 1.322a.911.911 0 0 1-1.305-1.271q.632-.649 1.254-1.3a.911.911 0 1 1 1.321 1.253zm3.7-4.067q-.6.689-1.216 1.373a.911.911 0 0 1-1.355-1.217q.606-.674 1.2-1.353a.91.91 0 1 1 1.371 1.2zm3.533-4.215q-.574.713-1.157 1.421a.911.911 0 1 1-1.405-1.159q.576-.7 1.143-1.4a.911.911 0 1 1 1.419 1.141zm3.355-4.359q-.542.736-1.1 1.468a.91.91 0 1 1-1.451-1.1q.547-.723 1.083-1.45a.91.91 0 0 1 1.466 1.081z" class="cls-1" data-name="Path 213" transform="translate(-98.341 -99.351)"/>
                    <path id="Path_214" d="M40.244 5.631q-.91-.641-1.866-1.2c-.35.238-.7.475-1.05.717a.911.911 0 0 1-1.039-1.5l.271-.185A25.5 25.5 0 0 0 2.577 37.449l.175-.256a.911.911 0 0 1 1.5 1.039c-.241.347-.476.7-.712 1.043.368.637.769 1.259 1.2 1.868 5.292-6.26 11-12.478 17.017-18.492s12.226-11.728 18.487-17.02zm-8.409 1.254q.732-.556 1.471-1.1a.91.91 0 1 1 1.078 1.467q-.726.534-1.448 1.082a.911.911 0 1 1-1.1-1.451zM27.521 10.3q.708-.586 1.423-1.16a.911.911 0 1 1 1.14 1.421q-.7.564-1.4 1.142a.911.911 0 1 1-1.161-1.4zm-4.166 3.591q.683-.614 1.372-1.216a.911.911 0 0 1 1.2 1.371q-.68.594-1.354 1.2a.911.911 0 1 1-1.217-1.355zM7.434 33.839q-.547.723-1.083 1.45a.91.91 0 1 1-1.466-1.08q.542-.736 1.1-1.468a.91.91 0 1 1 1.451 1.1zm3.366-4.252q-.576.7-1.143 1.4a.911.911 0 1 1-1.419-1.141q.574-.713 1.157-1.421a.911.911 0 1 1 1.405 1.162zm3.542-4.109q-.606.674-1.2 1.353a.91.91 0 1 1-1.371-1.2q.6-.689 1.216-1.373a.911.911 0 0 1 1.355 1.217zm3.707-3.963q-.632.649-1.254 1.3a.911.911 0 1 1-1.322-1.253q.63-.664 1.27-1.322a.911.911 0 0 1 1.306 1.271zm1.924-2.3a.911.911 0 0 1-.636-1.563q.659-.641 1.323-1.271a.911.911 0 0 1 1.253 1.319q-.655.621-1.3 1.253a.908.908 0 0 1-.639.262z" class="cls-1" data-name="Path 214" transform="translate(-.109 -1)"/>
                    <path id="Path_215" d="M118.813 83.943c-.349-.428-.72-.843-1.1-1.252l-36.029 36.028c.408.381.824.751 1.252 1.1 6.33-5.334 12.616-11.107 18.693-17.184s11.857-12.369 17.184-18.692z" class="cls-1" data-name="Path 215" transform="translate(-73.559 -74.554)"/>
                    <path id="Path_216" d="M93.659 58.771c-6.328 5.333-12.616 11.1-18.7 17.185S63.112 88.321 57.78 94.649c.347.424.715.837 1.094 1.243L94.9 59.865c-.4-.378-.816-.746-1.241-1.094z" class="cls-1" data-name="Path 216" transform="translate(-52.036 -53.017)"/>
                </g>
            </g>
        </g>
    </g>
</svg>
