<svg xmlns="http://www.w3.org/2000/svg" viewBox="0 0 230.223 54.026">
    <defs>
        <style>
            .cls-1{fill:#fff}
        </style>
    </defs>
    <g id="Album" transform="translate(-66.098 -1237.475)">
        <path id="Path_287" d="M.1-28.633h9.255L15.8-8.027l6.348-20.605h8.984L20.508 0h-9.59z" class="cls-1" data-name="Path 287" transform="translate(66 1280)"/>
        <path id="Path_289" d="M2.969-28.633h8.848v10.82l9.277-10.82h11.758l-10.43 10.8L33.32 0h-10.9l-6.033-11.777-4.57 4.785V0H2.969z" class="cls-1" data-name="Path 289" transform="translate(263 1280)"/>
        <path id="Path_288" d="M21.992-11.7l7.754 2.344a14.3 14.3 0 0 1-2.461 5.449 10.68 10.68 0 0 1-4.17 3.3A15.6 15.6 0 0 1 16.777.508 18.391 18.391 0 0 1 9.15-.85a12.093 12.093 0 0 1-5.107-4.775 16.194 16.194 0 0 1-2.148-8.75q0-7.109 3.779-10.928t10.693-3.818q5.41 0 8.506 2.188a12.85 12.85 0 0 1 4.6 6.719l-7.813 1.737a6.692 6.692 0 0 0-.859-1.914 5.09 5.09 0 0 0-1.816-1.562 5.218 5.218 0 0 0-2.4-.547 5.194 5.194 0 0 0-4.609 2.422q-1.211 1.8-1.211 5.645 0 4.766 1.445 6.533a4.953 4.953 0 0 0 4.06 1.767 4.932 4.932 0 0 0 3.838-1.426 8.818 8.818 0 0 0 1.884-4.141zm11.291-16.933h8.848v21.582h13.808V0H33.283zm26.271 0h8.867V0h-8.867z" class="cls-1" data-name="Path 288" transform="translate(113 1280)"/>
        <path id="Subtraction_4" d="M311 9.5h-54a7.509 7.509 0 0 1-7.5-7.5v-35a7.509 7.509 0 0 1 7.5-7.5h54a7.508 7.508 0 0 1 7.5 7.5V2a7.508 7.508 0 0 1-7.5 7.5zm-35.009-23.679l-7.476 12.855a20.693 20.693 0 0 0 6.712 4.911 20.092 20.092 0 0 0 8.422 1.835 21.516 21.516 0 0 0 3.464-.274l-11.122-19.327zm4.559 6.29l7.475 12.855a20.331 20.331 0 0 0 9.14-4.547 20.3 20.3 0 0 0 5.721-8.308zm-16.228-13.4a20.741 20.741 0 0 0-1 6.29 20.3 20.3 0 0 0 1.242 7.031 19.912 19.912 0 0 0 3.5 6.006l11.117-19.328zm35.617-6.732L288.77-8.678l14.87-.047a20.329 20.329 0 0 0 .632-10.189 20.3 20.3 0 0 0-4.334-9.108zm-16.2-7.4a21.516 21.516 0 0 0-3.464.274L291.4-15.729l7.476-12.947a20.7 20.7 0 0 0-6.713-4.911 20.093 20.093 0 0 0-8.423-1.835zm-4.285.547a20.33 20.33 0 0 0-9.139 4.547 20.3 20.3 0 0 0-5.715 8.307h22.336l-7.476-12.855zM309.9-35a2 2 0 0 0-2 2 2 2 0 0 0 2 2 2 2 0 0 0 2-2 2 2 0 0 0-2-2z" class="cls-1" data-name="Subtraction 4" transform="translate(-60 1282)"/>
        <path id="Path_149" d="M11.648 33.719h.416v.832h7.073v-.832h.416a1.109 1.109 0 0 0 0-2.219h-8.044a1.193 1.193 0 0 0-1.109 1.109 1.315 1.315 0 0 0 1.248 1.11z" class="cls-1" data-name="Path 149" transform="translate(188.569 1205.975)"/>
    </g>
</svg>
