<svg xmlns="http://www.w3.org/2000/svg" viewBox="0 0 271.278 58.643">
    <defs>
        <style>
            .cls-1{fill:#fff}
        </style>
    </defs>
    <g id="Spiritual" transform="translate(-84.281 -582)">
        <path id="Path_276" d="M3.281-28.633h8.867V0H3.281zM17.853 0v-28.633H32.6a21.422 21.422 0 0 1 6.27.7 6.675 6.675 0 0 1 3.5 2.607 7.906 7.906 0 0 1 1.328 4.639 7.973 7.973 0 0 1-1.016 4.111 7.942 7.942 0 0 1-2.793 2.8 10.7 10.7 0 0 1-3.105 1.133 8.815 8.815 0 0 1 2.3 1.055 8.921 8.921 0 0 1 1.416 1.5A11.23 11.23 0 0 1 41.74-8.3L46.017 0h-10l-4.726-8.75a6.669 6.669 0 0 0-1.6-2.207 3.712 3.712 0 0 0-2.168-.664h-.783V0zm8.887-17.031h3.73a13.331 13.331 0 0 0 2.344-.391 2.339 2.339 0 0 0 1.436-.9 2.646 2.646 0 0 0 .557-1.66 2.631 2.631 0 0 0-.879-2.129 5.317 5.317 0 0 0-3.3-.742H26.74z" class="cls-1" data-name="Path 276" transform="translate(81 639.135)"/>
        <path id="Path_277" d="M3.281-28.633h8.867V0H3.281zm11.564 0h9.825l5.781 9.668 5.781-9.668H46L34.865-11.992V0H26v-11.992zM61.937-4.727H51.859L50.472 0h-9.043l10.762-28.633h9.648L72.6 0h-9.257zm-1.855-6.191l-3.165-10.293-3.144 10.293zM74.79 0v-28.633h14.746a21.422 21.422 0 0 1 6.27.7 6.675 6.675 0 0 1 3.5 2.607 7.906 7.906 0 0 1 1.328 4.639 7.973 7.973 0 0 1-1.016 4.111 7.942 7.942 0 0 1-2.793 2.8 10.7 10.7 0 0 1-3.105 1.133 8.815 8.815 0 0 1 2.3 1.055 8.921 8.921 0 0 1 1.416 1.5A11.23 11.23 0 0 1 98.677-8.3l4.277 8.3h-10l-4.726-8.75a6.669 6.669 0 0 0-1.6-2.207 3.712 3.712 0 0 0-2.168-.664h-.781V0zm8.887-17.031h3.73a13.331 13.331 0 0 0 2.344-.391 2.339 2.339 0 0 0 1.436-.9 2.646 2.646 0 0 0 .557-1.66 2.631 2.631 0 0 0-.879-2.129 5.317 5.317 0 0 0-3.3-.742h-3.888zm39.3-11.6h8.823v17.07a14.386 14.386 0 0 1-.791 4.795 10.357 10.357 0 0 1-2.48 3.945 9.9 9.9 0 0 1-3.545 2.373 17.829 17.829 0 0 1-6.184.956 38.93 38.93 0 0 1-4.561-.293A11.928 11.928 0 0 1 110.1-.947a10.345 10.345 0 0 1-3.037-2.471 9.076 9.076 0 0 1-1.885-3.3 17.119 17.119 0 0 1-.82-4.844v-17.07h8.828v17.48a4.993 4.993 0 0 0 1.3 3.662 4.829 4.829 0 0 0 3.6 1.318 4.843 4.843 0 0 0 3.584-1.3 4.98 4.98 0 0 0 1.3-3.682zm13.927 0h8.848v21.58h13.809V0H136.9z" class="cls-1" data-name="Path 277" transform="translate(196 640.135)"/>
        <g id="Group_108" data-name="Group 108" transform="translate(-56)">
            <path id="Path_57" d="M55.265 45.137V39.26c0-.1-.014-.174-.022-.26H16.021c-.008.086-.021.16-.021.26v5.878z" class="cls-1" data-name="Path 57" transform="translate(181.367 564.687)"/>
            <path id="Path_58" d="M55.307 54.853v-6.068c0-.26-.008-.535-.032-.785H12.189a1.966 1.966 0 0 0-.189.785v6.067z" class="cls-1" data-name="Path 58" transform="translate(183.058 560.745)"/>
            <path id="Path_59" d="M56.955 68H5.013c0 .054-.013.089-.013.149v6.359h17.323v-1.887c0-.824.551-1.832 1.063-1.832h15.556c.511 0 .7 1.009.7 1.832v1.886h17.326v-6.358c0-.06-.011-.095-.013-.149z" class="cls-1" data-name="Path 59" transform="translate(186.016 552.061)"/>
            <path id="Path_60" d="M56.349 64.808v-6.35a2.846 2.846 0 0 0-.038-.458H9.036a2.918 2.918 0 0 0-.036.459v6.35z" class="cls-1" data-name="Path 60" transform="translate(184.326 556.564)"/>
            <path id="Path_61" d="M65 77v14.213h19.284a1.078 1.078 0 0 0 .926-1.149V77.345a1.16 1.16 0 0 0-.054-.345z" class="cls-1" data-name="Path 61" transform="translate(160.662 548.637)"/>
            <path id="Path_62" d="M.054 77a1.164 1.164 0 0 0-.054.345v12.72a1.078 1.078 0 0 0 .926 1.149H20.21V77z" class="cls-1" data-name="Path 62" transform="translate(188.129 548.637)"/>
            <path id="Path_63" d="M54.8 35.6v-6.043a3.052 3.052 0 0 0-.052-.557H19.05a3.1 3.1 0 0 0-.05.557V35.6z" class="cls-1" data-name="Path 63" transform="translate(180.1 569.03)"/>
            <path id="Path_64" d="M54.336 14.667V3.433c0-.512-.866-.926-.866-.926s-.866.415-.866.926l-.867 6.614H50L49.139 6.4c0-.512-.866-.926-.866-.926s-.866.415-.866.926l-.7 3.651h-3.242a6.659 6.659 0 0 0 1.087-3.532c0-3.426-6.143-8.7-6.143-8.7S32.144 3.1 32.144 6.523a6.631 6.631 0 0 0 1.087 3.525h-3.45L28.929 6.4c0-.512-.866-.926-.866-.926s-.866.415-.866.926l-.8 3.651h-1.548l-1.117-6.618c0-.512-.866-.926-.866-.926S22 2.922 22 3.433v11.234z" class="cls-1" data-name="Path 64" transform="translate(178.832 584.186)"/>
        </g>
    </g>
</svg>
