<svg xmlns="http://www.w3.org/2000/svg" viewBox="0 0 228.124 50.336">
    <defs>
        <style>
            .cls-1{fill:#fff}.cls-2{fill:#ffefef}
        </style>
    </defs>
    <g id="Women" transform="translate(-76.832 -420.172)">
        <path id="Path_274" d="M2.832-28.633h11.641l4.492 17.422 4.473-17.422h11.6V0h-7.225v-21.836L22.207 0h-6.543l-5.586-21.836V0H2.832z" class="cls-1" data-name="Path 274" transform="translate(74 470)"/>
        <path id="Path_275" d="M2.988-28.633h8.262l10.781 15.84v-15.84h8.34V0h-8.34L11.309-15.723V0H2.988zm51.135 0h8.828v17.07a14.386 14.386 0 0 1-.791 4.795 10.357 10.357 0 0 1-2.48 3.945 9.9 9.9 0 0 1-3.545 2.374 17.829 17.829 0 0 1-6.191.957 38.93 38.93 0 0 1-4.561-.293 11.928 11.928 0 0 1-4.131-1.162 10.345 10.345 0 0 1-3.037-2.471 9.076 9.076 0 0 1-1.885-3.3 17.119 17.119 0 0 1-.82-4.844v-17.07h8.828v17.48a4.993 4.993 0 0 0 1.3 3.662 4.829 4.829 0 0 0 3.6 1.318 4.843 4.843 0 0 0 3.584-1.3 4.979 4.979 0 0 0 1.3-3.682zm12.384 19.16L74.925-10a6.422 6.422 0 0 0 1.113 3.125 4.678 4.678 0 0 0 3.906 1.738 4.325 4.325 0 0 0 2.92-.889 2.663 2.663 0 0 0 1.026-2.06 2.628 2.628 0 0 0-.977-1.992q-.977-.879-4.531-1.66-5.82-1.309-8.3-3.477a6.992 6.992 0 0 1-2.5-5.527 7.507 7.507 0 0 1 1.279-4.17A8.486 8.486 0 0 1 72.709-28a17.964 17.964 0 0 1 7.041-1.123q5.488 0 8.369 2.041t3.428 6.494l-8.34.488a4.483 4.483 0 0 0-1.4-2.812 4.485 4.485 0 0 0-2.939-.879 3.547 3.547 0 0 0-2.324.654 2.005 2.005 0 0 0-.781 1.592 1.594 1.594 0 0 0 .645 1.23 7.25 7.25 0 0 0 2.969 1.055 37.14 37.14 0 0 1 8.311 2.529 8.736 8.736 0 0 1 3.652 3.174 8.047 8.047 0 0 1 1.143 4.238 9.078 9.078 0 0 1-1.523 5.081A9.533 9.533 0 0 1 86.7-.713a17.2 17.2 0 0 1-6.895 1.2q-7.3 0-10.117-2.812a11.093 11.093 0 0 1-3.181-7.148zm29.709-19.16h8.848v10.02h9.668v-10.02h8.887V0h-8.887v-11.582h-9.668V0h-8.848zm32.873 0h8.867V0h-8.867z" class="cls-1" data-name="Path 275" transform="translate(167 470)"/>
        <g id="Group_131" data-name="Group 131" transform="translate(-1294.273 80.172)">
            <path id="Subtraction_8" d="M20.836 49.788H0l2.384-11.795c.025-.11 2.529-11.052 3.892-18.292A36.239 36.239 0 0 1 7.5 12.628 20.3 20.3 0 0 1 10.479 6.3a14.4 14.4 0 0 1 5.415-4.553A19.5 19.5 0 0 1 24.431 0a19.572 19.572 0 0 1 8.442 1.7 14.378 14.378 0 0 1 5.4 4.444 19.933 19.933 0 0 1 3.007 6.2 35.233 35.233 0 0 1 1.276 6.963c1.329 7.137 3.831 18.075 3.856 18.185l2.659 12.295H28.027v-6.853A9.565 9.565 0 0 0 33 39.453a15.67 15.67 0 0 0 2.527-5.592 46.717 46.717 0 0 0 1-11.662c0-.393-.006-.765-.006-1.1a10.226 10.226 0 0 0-2.913-7.625c-2.093-2-5.18-3.016-9.177-3.016s-7.084 1.015-9.177 3.016a10.226 10.226 0 0 0-2.913 7.624c0 .339 0 .711-.005 1.1a46.717 46.717 0 0 0 1 11.662 15.67 15.67 0 0 0 2.527 5.592 9.566 9.566 0 0 0 4.975 3.48v6.854z" class="cls-1" data-name="Subtraction 8" transform="translate(1409.573 340)"/>
            <path id="Subtraction_9" d="M5.058 5.145a5.115 5.115 0 0 1-3.053-1.014A5.6 5.6 0 0 1 0 1.058 3.266 3.266 0 0 1 2.3 0a5.235 5.235 0 0 1 1.567.311A3.94 3.94 0 0 0 4.97.55a3.94 3.94 0 0 0 1.1-.239A5.235 5.235 0 0 1 7.634 0a3.264 3.264 0 0 1 2.3 1.058A5.137 5.137 0 0 1 8.1 4.116a4.963 4.963 0 0 1-3.042 1.029zm.215-3.269a23.541 23.541 0 0 0-3.756.2 2.375 2.375 0 0 0 1.33 1.054 5.966 5.966 0 0 0 2.1.359 5.811 5.811 0 0 0 2.085-.359 2.593 2.593 0 0 0 1.391-1.1 23.058 23.058 0 0 0-3.149-.154z" class="cls-1" data-name="Subtraction 9" transform="translate(1429.091 373.72)"/>
        </g>
        <circle id="Ellipse_3" cx="2" cy="2" r="2" class="cls-1" data-name="Ellipse 3" transform="translate(138 437)"/>
        <path id="Exclusion_3" d="M-805.639-36.279a2.363 2.363 0 0 1-2.361-2.36A2.364 2.364 0 0 1-805.639-41a2.363 2.363 0 0 1 2.36 2.361 2.36 2.36 0 0 1-.816 1.785 1.949 1.949 0 0 0 .62-1.433 1.773 1.773 0 0 0-1.771-1.926 1.969 1.969 0 0 0-1.967 1.967 1.773 1.773 0 0 0 1.771 1.926 1.972 1.972 0 0 0 .514-.068 2.362 2.362 0 0 1-.711.109zm.749-.12a2.344 2.344 0 0 0 .8-.454 1.976 1.976 0 0 1-.8.453z" class="cls-2" data-name="Exclusion 3" transform="rotate(178 -335.576 213.46)"/>
    </g>
</svg>
