<svg xmlns="http://www.w3.org/2000/svg" viewBox="0 0 24 24">
  <path
    fill="currentColor"
    fillRule="evenodd"
    d="M21.187 20.25a.9.9 0 0 1-.28.656.9.9 0 0 1-.657.281.9.9 0 0 1-.656-.28.9.9 0 0 1-.282-.657.9.9 0 0 1 .282-.656.9.9 0 0 1 .656-.281.9.9 0 0 1 .656.28.9.9 0 0 1 .281.657zm-3.937-.937a.9.9 0 0 1 .656.28.9.9 0 0 1 .281.657.9.9 0 0 1-.28.656.9.9 0 0 1-.657.281.9.9 0 0 1-.656-.28.9.9 0 0 1-.282-.657.9.9 0 0 1 .282-.656.9.9 0 0 1 .656-.281zm6.75-2.25v4.874c0 .563-.203 1.047-.61 1.454-.406.406-.89.609-1.453.609H2.062a1.984 1.984 0 0 1-1.453-.61A1.984 1.984 0 0 1 0 21.938v-4.874c0-.563.203-1.047.61-1.454.406-.406.89-.609 1.452-.609h4.641l-2.625-2.625c-.375-.406-.555-.86-.539-1.36.016-.5.195-.937.54-1.312.343-.375.78-.562 1.312-.562h2.484V1.875c0-.531.18-.977.539-1.336C8.774.18 9.219 0 9.75 0h4.5c.531 0 .977.18 1.336.54.36.358.539.804.539 1.335v7.266h2.484c.532 0 .97.187 1.313.562.344.375.523.813.539 1.313.016.5-.164.953-.54 1.359L17.298 15h4.64c.563 0 1.047.203 1.454.61.406.406.609.89.609 1.453zm-12.281.843A.504.504 0 0 0 12 18a.504.504 0 0 0 .281-.094l6.563-6.61c.125-.124.156-.265.093-.421-.062-.156-.171-.234-.328-.234h-3.984V1.875c0-.094-.04-.18-.117-.258a.358.358 0 0 0-.258-.117h-4.5c-.094 0-.18.04-.258.117a.358.358 0 0 0-.117.258v8.766H5.391c-.157 0-.266.078-.329.234-.062.156-.03.297.094.422l6.563 6.61zm10.78-.843a.542.542 0 0 0-.163-.399.542.542 0 0 0-.399-.164h-6.14l-2.485 2.438c-.343.375-.78.562-1.312.562-.531 0-.969-.187-1.313-.562L8.203 16.5h-6.14a.542.542 0 0 0-.399.164.542.542 0 0 0-.164.399v4.874c0 .157.055.29.164.399.11.11.242.164.398.164h19.875c.157 0 .29-.055.399-.164a.542.542 0 0 0 .164-.399v-4.874z"
  />
</svg>
