<svg xmlns="http://www.w3.org/2000/svg" viewBox="0 0 24 24">
  <g fill="none" fillRule="evenodd">
    <path fill="#FFF" d="M5 3h16v19H5z" />
    <path
      fill="currentColor"
      d="M22 3.116v17.768c0 .298-.104.558-.313.781a1.05 1.05 0 0 1-.803.335h-5.09v-7.768h2.59l.402-2.99h-2.991v-1.92c0-.507.089-.864.268-1.072.238-.268.64-.402 1.205-.402h1.607V5.125a25.15 25.15 0 0 0-2.321-.09c-1.161 0-2.099.343-2.813 1.027-.714.685-1.071 1.667-1.071 2.947v2.232h-2.59v2.991h2.59V22H3.116a1.05 1.05 0 0 1-.804-.335A1.109 1.109 0 0 1 2 20.884V3.116c0-.327.104-.595.313-.804.208-.208.476-.312.803-.312h17.768c.298 0 .558.104.781.312.223.209.335.477.335.804z"
    />
  </g>
</svg>
