<svg xmlns="http://www.w3.org/2000/svg" viewBox="0 0 32 19.2">
  <defs>
    <clipPath id="clip-path">
      <rect id="Rectangle_906" data-name="Rectangle 906" className="cls-1" />
    </clipPath>
  </defs>
  <g id="Food_stylist" data-name="Food stylist" className="cls-2">
    <g id="noun_Dessert_1051823" transform="translate(-162 -479.306)">
      <g id="Group_2184" data-name="Group 2184" transform="translate(163 482.251)">
        <path
          id="Path_986"
          data-name="Path 986"
          className="cls-3"
          d="M20,60l4.974,4.974h19.9L49.845,60Z"
          transform="translate(-20 -51.171)"
        />
        <path
          id="Path_987"
          data-name="Path 987"
          className="cls-3"
          d="M28.9,49.453c-.8.648-.962,2.289.143,2.744.524.215,1.06-.242,1.56-.052.174.066.319.345.518.423a1.044,1.044,0,0,0,.588.065c.473-.111.791-.609,1.259-.685.492-.081.807.293,1.247.433.918.293,1.5-1.04,2.478-.572.373.179,1.022.979,1.18.126.368-1.978-2.4-5.193-5.4-4.715C29.334,47.719,28.9,49.453,28.9,49.453Z"
          transform="translate(-24.152 -44.724)"
        />
        <path
          id="Path_988"
          data-name="Path 988"
          className="cls-3"
          d="M32.636,57.1a5.143,5.143,0,1,1,5.143-5.143A5.149,5.149,0,0,1,32.636,57.1Zm0-9.833a4.691,4.691,0,1,0,4.691,4.691A4.7,4.7,0,0,0,32.636,47.263Z"
          transform="translate(-23.766 -44.542)"
        />
        <path
          id="Path_989"
          data-name="Path 989"
          className="cls-3"
          d="M48.889,45.489c-.979.794-1.179,2.8.175,3.363.642.264,1.3-.3,1.913-.064.213.081.39.423.634.518a1.282,1.282,0,0,0,.72.081c.58-.137.969-.746,1.543-.84.6-.1.989.36,1.528.531,1.126.359,1.843-1.274,3.038-.7.457.219,1.252,1.2,1.446.154.451-2.423-2.938-6.365-6.621-5.779C49.417,43.363,48.889,45.489,48.889,45.489Z"
          transform="translate(-34.123 -42.473)"
        />
        <path
          id="Path_990"
          data-name="Path 990"
          className="cls-3"
          d="M53.463,54.86a6.3,6.3,0,1,1,6.3-6.3A6.312,6.312,0,0,1,53.463,54.86Zm0-12.053a5.749,5.749,0,1,0,5.749,5.749A5.755,5.755,0,0,0,53.463,42.807Z"
          transform="translate(-33.65 -42.251)"
        />
      </g>
    </g>
  </g>
</svg>
