<svg xmlns="http://www.w3.org/2000/svg" viewBox="0 0 32 19.2">
  <defs>
    <clipPath id="clip-path">
      <rect id="Rectangle_893" data-name="Rectangle 893" className="cls-1" />
    </clipPath>
  </defs>
  <g id="Illustrator" className="cls-2">
    <g id="Group_2183" data-name="Group 2183" transform="rotate(8 95.717 44.825)">
      <path
        id="Path_983"
        data-name="Path 983"
        className="cls-3"
        d="M9.091,13.084c-5.83,1.679-1,4.2-2.606,6.287-1.519,1.98-7.595.393-6.307,4.866,1.261,4.379,7.3,6.486,13.479,4.706S23.831,22.169,22.57,17.79,15.274,11.3,9.091,13.084ZM6.673,24.378c-.038.965-1.137,1.706-2.456,1.655S1.861,25.157,1.9,24.192s1.137-1.706,2.456-1.654S6.711,23.413,6.673,24.378Zm4.133,3.592a1.429,1.429,0,1,1,.978-1.768A1.429,1.429,0,0,1,10.807,27.969Zm4.467-1.133a1.429,1.429,0,1,1,.978-1.768A1.429,1.429,0,0,1,15.273,26.837ZM19.1,24.2a1.429,1.429,0,1,1,.978-1.768A1.429,1.429,0,0,1,19.1,24.2Zm1.127-4.631a1.429,1.429,0,1,1,.978-1.768A1.428,1.428,0,0,1,20.229,19.566Z"
      />
    </g>
  </g>
</svg>
