<svg viewBox="0 0 114 35">
  <g fill="none" fillRule="evenodd">
    <rect fill="#FFF" fillRule="nonzero" rx="4" />
    <g fill="currentColor">
      <path
        fillRule="nonzero"
        d="M15.821 6.765H18a.313.313 0 0 0 .295-.292.313.313 0 0 0-.295-.29h-2.179a.313.313 0 0 0-.291.29c.07.219.146.292.291.292zm1.091 19.208a1.164 1.164 0 1 0 1.164 1.164 1.149 1.149 0 0 0-1.164-1.164zm-5.6-.946h11.203V8.439H11.31l.002 16.588zm35.87-6.454a2.224 2.224 0 0 0-1.455.509 2.568 2.568 0 0 0-.946 2.037v1.6a2.66 2.66 0 0 0 .655 1.819 2.107 2.107 0 0 0 1.674.728A2.133 2.133 0 0 0 49 24.32c.464-.74.692-1.602.655-2.474A3.838 3.838 0 0 0 49 19.517a2.083 2.083 0 0 0-1.818-.944zm39.292-.146a2.079 2.079 0 0 0-1.965 1.164 4.6 4.6 0 0 0-.582 2.328 4.32 4.32 0 0 0 .582 2.256 2.079 2.079 0 0 0 1.965 1.164 2.047 2.047 0 0 0 1.892-1.166c.43-.697.633-1.51.582-2.328a4.32 4.32 0 0 0-.582-2.256 2.181 2.181 0 0 0-1.892-1.163v.001zm-28.6.146a2.224 2.224 0 0 0-1.455.509 2.568 2.568 0 0 0-.946 2.037v1.6a2.66 2.66 0 0 0 .655 1.819 2.107 2.107 0 0 0 1.674.728 2.133 2.133 0 0 0 1.892-.946c.464-.74.692-1.602.655-2.474a3.838 3.838 0 0 0-.655-2.328 2.275 2.275 0 0 0-1.816-.945h-.004zm-22.265-3.42c-.146.582-.364 1.382-.655 2.547l-1.091 3.493H37.5l-1.16-3.495c-.145-.436-.364-1.237-.727-2.546l-.004.001zm67.16 3.2a2.17 2.17 0 0 0-1.746.873 3.132 3.132 0 0 0-.655 1.674h4.511a3.189 3.189 0 0 0-.437-1.674 1.863 1.863 0 0 0-1.669-.873h-.004zM23.9 27.284a2.189 2.189 0 0 1-2.183 2.183h-9.534A2.189 2.189 0 0 1 10 27.284V6.256a2.189 2.189 0 0 1 2.183-2.183h9.459a2.189 2.189 0 0 1 2.183 2.183v21.028h.075zm15.207-.563l-1.237-3.929H33.5l-1.164 3.929h-2.253l4.293-13.388h2.692l4.366 13.388h-2.327zm11.5-1.019a3.853 3.853 0 0 1-2.983 1.237 2.932 2.932 0 0 1-2.765-1.382v5.093h-2.188V20.245c0-1.019 0-2.11-.073-3.2h1.892l.146 1.528h.073a3.607 3.607 0 0 1 3.274-1.746 3.384 3.384 0 0 1 2.838 1.382 5.517 5.517 0 0 1 1.163 3.564 5.959 5.959 0 0 1-1.384 3.929h.007zm10.623 0a3.853 3.853 0 0 1-2.983 1.237 2.932 2.932 0 0 1-2.765-1.382v5.093h-2.188V20.245c0-1.019 0-2.11-.073-3.2h1.892l.146 1.528h.073a3.607 3.607 0 0 1 3.274-1.746 3.384 3.384 0 0 1 2.838 1.382 5.14 5.14 0 0 1 1.164 3.564 5.959 5.959 0 0 1-1.383 3.929h.005zm12.3.073a5.211 5.211 0 0 1-3.638 1.164 6.889 6.889 0 0 1-3.493-.8l.509-1.819a5.74 5.74 0 0 0 3.129.8 2.935 2.935 0 0 0 1.892-.582c.43-.36.67-.895.655-1.455a1.988 1.988 0 0 0-.582-1.382 5.207 5.207 0 0 0-1.819-1.019c-2.328-.873-3.493-2.183-3.493-3.856a3.387 3.387 0 0 1 1.237-2.692 4.776 4.776 0 0 1 3.274-1.019 6.339 6.339 0 0 1 3.049.658l-.509 1.746a4.881 4.881 0 0 0-2.547-.582 2.521 2.521 0 0 0-1.746.582 1.6 1.6 0 0 0-.509 1.237c.007.498.217.971.582 1.31a7.789 7.789 0 0 0 1.965 1.019 6.394 6.394 0 0 1 2.547 1.6c.531.658.814 1.482.8 2.328a4.313 4.313 0 0 1-1.311 2.76l.008.002zm7.567-7.058h-2.4v4.656c0 1.164.437 1.819 1.237 1.819a3.58 3.58 0 0 0 .946-.073l.073 1.6a5.179 5.179 0 0 1-1.674.218 2.464 2.464 0 0 1-1.965-.8 3.641 3.641 0 0 1-.728-2.619v-4.874H75.2v-1.6h1.382v-1.747l2.11-.655v2.4h2.4l.005 1.675zm8.8 6.767a4.712 4.712 0 0 1-3.565 1.455 4.342 4.342 0 0 1-3.42-1.382 4.966 4.966 0 0 1-1.237-3.565c-.06-1.36.41-2.69 1.31-3.711a4.551 4.551 0 0 1 3.493-1.455 4.342 4.342 0 0 1 3.42 1.382 5.307 5.307 0 0 1 1.233 3.565 4.909 4.909 0 0 1-1.237 3.711h.003zm7.786-6.549a2.014 2.014 0 0 0-.655-.073 2.074 2.074 0 0 0-1.746.873 3.206 3.206 0 0 0-.509 1.892v5.093h-2.187V20.1c0-1.091 0-2.11-.073-3.056H94.4l.073 1.819h.073a2.969 2.969 0 0 1 1.091-1.528c.441-.33.977-.508 1.528-.509h.509v2.11l.009-.001zm9.168 3.493h-6.479a2.79 2.79 0 0 0 .946 2.183 3.183 3.183 0 0 0 2.11.655 7.611 7.611 0 0 0 2.619-.437l.364 1.528a7.533 7.533 0 0 1-3.274.582 4.523 4.523 0 0 1-4.875-4.875 5.879 5.879 0 0 1 1.164-3.638 4.223 4.223 0 0 1 3.42-1.528 3.714 3.714 0 0 1 3.2 1.528 5.07 5.07 0 0 1 .873 3.056 3.85 3.85 0 0 1-.072.946h.004z"
      />
    </g>
  </g>
</svg>
