<svg xmlns="http://www.w3.org/2000/svg" width="48" height="48" viewBox="0 0 48 48">
  <g>
    <path
      d="M29.8980246,10.1789026 C28.9047923,9.67656732 27.9569572,9.63095521 27.9569572,9.63095521 C31.8395385,17.2558538 28.9952891,22.278755 28.9952891,22.278755 C28.724394,21.7764197 27.7764101,21.2286229 27.7764101,21.2286229 C27.8666093,25.2461009 22.6297015,31 22.6297015,31 C21.5912208,29.1283984 19.2438108,29.3103952 19.2438108,29.3103952 C16.8964008,30.3149152 14.0521514,29.1276457 14.0521514,29.1276457 C14.0521514,29.9494163 15.0453837,30.634501 15.0453837,30.634501 C7.91221048,29.81258 9.35673611,23.2381145 9.35673611,23.2381145 C9.37400195,22.8601212 9.36060604,22.6111363 9.32026947,22.4332039 C10.3501173,19.8498729 11.6593442,19.2194323 11.6593442,19.2194323 C10.4403164,11.5028579 16.4448098,11.0920479 16.4448098,11.0920479 C21.7268171,10.1332905 17.7087883,4.92824195 17.7087883,4.92824195 C14.5937927,4.70003089 13.736008,8.12425044 13.736008,8.12425044 C11.7477572,8.31347293 10.5485256,7.558841 9.85342669,6.78765021 C9.59741596,0.0912514615 20.2371919,1.04714868 20.2371919,1.04714868 C19.1536117,1.09276079 18.7020207,2.00605661 18.7020207,2.00605661 C28.6341949,2.05181925 29.8980246,10.1789026 29.8980246,10.1789026 Z M15.1808313,9.03754626 C15.1808313,9.03754626 14.9099362,7.07411831 16.8961031,6.66315777 C16.8961031,6.66315777 18.7020207,9.17468364 15.767721,9.8137047 C15.767721,9.8137047 15.6322734,9.4485068 15.1808313,9.03754626 Z M13.760716,8.74385248 C14.4032731,8.66587535 15.0535701,9.93578858 14.5479489,10.5754118 C13.9181923,11.3717419 9.82469991,12.8939518 10.6906711,18.7863431 C9.35227081,19.4232567 8.78309348,21.9084389 8.63826881,21.7880109 C7.91816422,21.1938493 6.86286419,22.308862 6.24188934,22.644254 C4.57901037,23.5426468 3.91665704,21.409566 3.89433052,21.2745361 C3.79549848,20.6746541 3.70381092,20.2477369 3.60006703,19.9045171 C3.79326583,19.9719567 4.0980972,20.2021248 4.37569023,20.287177 C5.41372441,20.6072144 6.9399651,19.8455073 7.68641497,19.493406 C8.36380149,19.1735191 5.49380219,19.9820426 4.7860516,19.8081747 C4.32314849,19.6948218 3.83270934,19.5125239 3.4283017,19.3610857 C3.38826281,19.267754 3.35283807,19.2624853 3.30744082,19.1741213 C2.81238752,18.2149123 3.35075426,17.0980931 2.88487428,16.7330458 C3.33825141,16.6606384 3.90370766,16.430922 4.07487762,15.7494501 C4.16939321,15.3734137 4.16537444,14.9731411 2.54000402,15.7494501 C2.35707542,15.8364593 2.11148374,15.7002252 2,15.3472206 C2.01592625,15.2903184 2.04405766,15.2403408 2.08826416,15.2021049 C2.77279517,14.6117066 6.31705528,12.1739429 6.51278441,11.1834226 C6.60313238,10.7262478 6.10629296,10.7738169 6.10629296,9.90568158 C6.10629296,9.12877047 9.27278841,7.31060879 9.27278841,7.31060879 C9.90284271,8.42532043 11.7922614,8.98275152 13.760716,8.74385248 Z M7.23497281,11.7768316 C8.18310555,12.8727263 9.26653699,11.8682063 9.26653699,11.8682063 C8.22820511,10.5900137 7.23497281,11.7768316 7.23497281,11.7768316 Z"
      transform="translate(8 8)"
    />
  </g>
</svg>
