<svg xmlns="http://www.w3.org/2000/svg" width="24.217" height="32.155" viewBox="0 0 24.217 32.155">
    <defs>
        <style>
            .cls-1{fill:#434343}
        </style>
    </defs>
    <g id="noun_Runner_1826960" transform="translate(-13.43 -.473)">
        <g id="Group_612" data-name="Group 612" transform="translate(13.43 .473)">
            <path id="Path_275" d="M62.981 59.724l-5.8.166-.53-1.79a.032.032 0 0 1-.033.033c-.464.6-1.723 2.154-2.618 3.314a3.53 3.53 0 0 0 3.148 1.988h.1l5.833-.166a1.749 1.749 0 0 0 1.69-1.823 1.769 1.769 0 0 0-1.79-1.722z" class="cls-1" data-name="Path 275" transform="translate(-40.555 -39.002)"/>
            <path id="Path_276" d="M28.267 30.489c-.2-.762-.563-2.287-.862-3.413.232.066.5.166.762.232a1.1 1.1 0 0 1 .63.53l1.624 3.016a1.439 1.439 0 0 0 1.292.762 1.781 1.781 0 0 0 .7-.166 1.443 1.443 0 0 0 .6-1.988l-1.624-3.016a4.061 4.061 0 0 0-2.353-1.955c-3.911-1.226-4.308-1.127-4.706-1.06l-2.386.464c-.63.133-1.027.2-3.579 4.242l-2.89-1.227a1.471 1.471 0 0 0-1.127 2.718l2.983 1.259a2.848 2.848 0 0 0 3.48-1.094q.4-.6.7-1.094l2.055 5.7-1.596 1.989a13.23 13.23 0 0 0-2.254 4.212l-1.624 5.037a1.776 1.776 0 0 0 1.16 2.22 1.5 1.5 0 0 0 .53.1 1.769 1.769 0 0 0 1.69-1.226L23.1 41.69a9.821 9.821 0 0 1 1.624-3.082S27.6 35 28.333 34.068c.767-.994.267-2.287-.066-3.579z" class="cls-1" data-name="Path 276" transform="translate(-13.43 -15.799)"/>
            <circle id="Ellipse_15" cx="3.248" cy="3.248" r="3.248" class="cls-1" data-name="Ellipse 15" transform="rotate(-13.515 8.832 -19.72)"/>
        </g>
    </g>
</svg>
