<svg xmlns="http://www.w3.org/2000/svg" viewBox="0 0 28 28">
  <path
    fill="currentColor"
    fillRule="evenodd"
    d="M14.5 27.75a.914.914 0 0 1-.563.187.676.676 0 0 1-.5-.187L.25 14.5A.594.594 0 0 1 0 14c0-.208.083-.375.25-.5L13.437.25a.676.676 0 0 1 .5-.187c.209 0 .396.062.563.187l.437.5a.676.676 0 0 1 .188.5.914.914 0 0 1-.188.563L3.75 12.938h23.5c.208 0 .385.072.531.218a.723.723 0 0 1 .219.532v.625a.723.723 0 0 1-.219.53.723.723 0 0 1-.531.22H3.75l11.187 11.124a.914.914 0 0 1 .188.563.676.676 0 0 1-.188.5l-.437.5z"
  />
</svg>
