<svg xmlns="http://www.w3.org/2000/svg" viewBox="0 0 28 28">
  <path
    fill="currentColor"
    fillRule="evenodd"
    d="M13.5.25a.914.914 0 0 1 .562-.187c.209 0 .375.062.5.187L27.75 13.5c.167.125.25.292.25.5a.594.594 0 0 1-.25.5L14.562 27.75a.676.676 0 0 1-.5.187.914.914 0 0 1-.562-.187l-.438-.5a.676.676 0 0 1-.187-.5c0-.208.062-.396.187-.563L24.25 15.063H.75a.723.723 0 0 1-.531-.22.723.723 0 0 1-.219-.53v-.625c0-.209.073-.386.219-.532a.723.723 0 0 1 .531-.218h23.5L13.062 1.813a.914.914 0 0 1-.187-.563c0-.208.062-.375.187-.5l.438-.5z"
  />
</svg>
