<svg xmlns="http://www.w3.org/2000/svg" width="25.36" height="20.288" viewBox="0 0 25.36 20.288">
    <defs>
        <style>
            .cls-1{fill:#434343}
        </style>
    </defs>
    <g id="noun_magazine_1432476" transform="translate(-217.89 51.605)">
        <g id="Group_604" data-name="Group 604" transform="translate(217.89 -51.605)">
            <path id="Path_253" d="M16.485 10a5.555 5.555 0 0 0-3.8 1.268A5.555 5.555 0 0 0 8.877 10H0v19.022h8.877a5.555 5.555 0 0 1 3.8 1.268 5.555 5.555 0 0 1 3.8-1.268h8.876V10zm-6.34 13.95h-6.34v-1.269h6.34zm0-3.8h-6.34v-1.273h6.34zm0-3.8h-6.34v-1.277h6.34zm11.412 7.6h-6.34v-1.269h6.34zm0-3.8h-6.34v-1.273h6.34zm0-3.8h-6.34v-1.277h6.34z" class="cls-1" data-name="Path 253" transform="translate(-.001 -10.001)"/>
        </g>
    </g>
</svg>
