<svg xmlns="http://www.w3.org/2000/svg" width="24.597" height="24.597" viewBox="0 0 24.597 24.597">
    <defs>
        <style>
            .cls-1{fill:#434343}
        </style>
    </defs>
    <g id="noun_news_428641" transform="translate(-201.259 219)">
        <path id="Path_252" d="M26.36 12.767h-1.941V8.236A3.24 3.24 0 0 0 21.182 5H8.236A3.24 3.24 0 0 0 5 8.236V26.36a3.24 3.24 0 0 0 3.236 3.24H26.36a3.24 3.24 0 0 0 3.24-3.24V16a3.24 3.24 0 0 0-3.24-3.233zm-7.249 11.522h-8.8a.777.777 0 0 1 0-1.554h8.8a.777.777 0 1 1 0 1.554zm0-4.272h-8.8a.777.777 0 0 1 0-1.554h8.8a.777.777 0 0 1 0 1.554zm-.518-5.049h-7.768a1.3 1.3 0 0 1-1.294-1.294v-2.59a1.3 1.3 0 0 1 1.294-1.294h7.767a1.3 1.3 0 0 1 1.294 1.294v2.589a1.3 1.3 0 0 1-1.293 1.295zM28.3 26.36a1.941 1.941 0 0 1-3.883 0v-12.3h1.941A1.943 1.943 0 0 1 28.3 16v10.36z" class="cls-1" data-name="Path 252" transform="translate(196.259 -224)"/>
    </g>
</svg>
