<svg xmlns="http://www.w3.org/2000/svg" viewBox="0 0 32 19.2">
  <defs>
    <clipPath id="clip-path">
      <rect id="Rectangle_897" data-name="Rectangle 897" className="cls-1" />
    </clipPath>
  </defs>
  <g id="Published_by" data-name="Published by" className="cls-2">
    <g id="Group_2181" data-name="Group 2181" transform="translate(4.566 1.572)">
      <path
        id="Path_975"
        data-name="Path 975"
        className="cls-3"
        d="M405.688,402.844a2.844,2.844,0,1,0-2.844,2.844A2.844,2.844,0,0,0,405.688,402.844Z"
        transform="translate(-391.468 -396.029)"
      />
      <g id="Group_2181-2" data-name="Group 2181">
        <path
          id="Path_976"
          data-name="Path 976"
          className="cls-3"
          d="M163.993,300.649a9.172,9.172,0,0,1,0-11.075l-1.7-1.278a11.29,11.29,0,0,0,0,13.631Z"
          transform="translate(-160 -288.296)"
        />
        <path
          id="Path_977"
          data-name="Path 977"
          className="cls-3"
          d="M687.671,300.65l1.7,1.278a11.29,11.29,0,0,0,0-13.631l-1.7,1.278a9.172,9.172,0,0,1,0,11.075Z"
          transform="translate(-668.912 -288.297)"
        />
      </g>
      <g id="Group_2182" data-name="Group 2182" transform="translate(4.266 2.556)">
        <path
          id="Path_978"
          data-name="Path 978"
          className="cls-3"
          d="M591.844,367.428l1.7,1.278a7.055,7.055,0,0,0,0-8.519l-1.7,1.278a4.942,4.942,0,0,1,0,5.964Z"
          transform="translate(-580.758 -360.187)"
        />
        <path
          id="Path_979"
          data-name="Path 979"
          className="cls-3"
          d="M283.134,367.428a4.942,4.942,0,0,1,0-5.964l-1.7-1.278a7.055,7.055,0,0,0,0,8.519Z"
          transform="translate(-280 -360.187)"
        />
      </g>
    </g>
    <path
      id="Union_15"
      data-name="Union 15"
      className="cls-3"
      d="M4.8,5.508H0V3.671A3.666,3.666,0,0,1,3.663,0H9.881a3.669,3.669,0,0,1,3.663,3.671V5.508Z"
      transform="translate(9.313 12.506)"
    />
  </g>
</svg>
