<svg xmlns="http://www.w3.org/2000/svg" width="48" height="48" viewBox="0 0 48 48">
  <g>
    <path
      d="M25.9455657,28.7946274 L5.55541313,28.8150143 C5.97596916,28.4738625 6.30801301,28.0592191 6.54037802,27.7164232 C8.59290821,24.6878169 7.14370596,19.962165 12.0795328,17.0548937 C13.3776568,16.2903847 14.7189694,16.3469419 15.7045912,15.4497537 C16.4714778,14.7516666 16.1346717,13.5476883 16.8986024,12.2480231 C19.8020976,7.30617141 24.6597579,8.6020552 27.6844442,6.547088 C27.7923338,6.47376091 27.9076131,6.39007595 28.0250272,6.29734841 L28.6143968,25.8447737 C28.8135903,26.039107 29.0119627,26.2344267 29.2093498,26.430404 C29.1216587,20.8845081 28.6048723,9.45501701 28.4418063,5.93350791 C29.3400654,5.05703539 30.0767363,3.64540659 28.6029017,1.8418231 C27.6304172,0.652148519 23.903381,0.273511073 25.4698332,3.78893698 C25.4698332,3.78893698 26.2083105,1.30502273 27.252393,3.08575316 C27.6079197,3.69193477 27.8864293,5.32469573 25.0527257,4.8339303 C22.804779,4.44427735 19.738382,4.35648213 16.6524433,7.59093045 C15.8055837,8.47841848 15.1882975,9.82428306 14.8746457,11.6739015 C14.6892464,12.7685468 14.3330629,13.3275426 14.0166195,13.6808608 C14.0164553,13.6808608 14.0164553,13.6806964 14.0162911,13.680532 C13.9640705,13.7349519 13.9072519,13.7959482 13.8445216,13.8599039 C13.7806417,13.9227087 13.719882,13.9792659 13.6653624,14.0318773 C13.6656908,14.0318773 13.6656908,14.0318773 13.6658551,14.0320417 C13.3129558,14.348532 12.7544587,14.7051384 11.6612758,14.8912511 C9.81401506,15.2051108 8.46974655,15.82313 7.58298256,16.6709951 C4.35237,19.7605977 4.4400611,22.8306355 4.82941618,25.0815801 C5.3195996,27.9183193 3.68861073,27.6393147 3.0833122,27.2833659 C1.30452934,26.238537 3.78549791,25.4990184 3.78549791,25.4990184 C0.274569391,23.9308708 0.652429378,27.6623321 1.84085733,28.635478 C3.04702057,29.6239141 4.07763738,29.618653 4.8898475,29.2378782 C6.85173071,29.268623 20.7304081,29.4784108 26.5692563,29.3500062 C26.2800727,29.1739225 26.1669282,29.0129646 25.9455657,28.7946274 Z M28.9145829,29.169319 C29.0666465,29.1513983 29.1548302,29.131669 29.169938,29.1094736 C29.1886586,29.0828391 29.2044233,29.0192122 29.2180532,28.9274711 C30.141273,29.2303153 31.1937305,29.1678393 30.9694121,28.8447726 C30.3442435,27.9429809 28.6362375,26.0933625 26.9630452,24.9069761 C26.6580969,25.2841338 26.0209406,25.1062416 25.4737744,24.8451577 L16.2085687,15.5691157 C16.0821227,15.7992905 15.8834219,15.9835947 15.6479368,16.1233436 L24.8972136,25.3836022 C25.133684,25.9910991 25.2757304,26.6653467 24.914292,26.9584907 C26.0994356,28.6333407 27.9470248,30.3433746 28.8475829,30.9694499 C29.1753572,31.1974873 29.234639,30.1044861 28.9145829,29.169319 Z M5.18330069,5.64628272 L13.1331398,13.6053964 C13.3975269,13.6637621 13.6400732,13.490309 13.7213599,13.0791183 L5.75575611,5.10356357 C6.74843912,4.50017693 8.14098701,4.94523623 8.14098701,4.94523623 C5.15374189,2.58462987 2.84799132,2.38191169 2.42497205,2.36481299 C2.42497205,2.36481299 2.61069984,5.1306913 4.96867096,8.12131881 C4.96867096,8.12131881 4.49753654,6.64343257 5.18330069,5.64628272 Z"
      transform="translate(8 8)"
    />
  </g>
</svg>
