<svg xmlns="http://www.w3.org/2000/svg" width="48" height="48" viewBox="0 0 48 48">
  <g>
    <path
      d="M12.3450573,20.015247 C11.7200599,19.5631738 10.1890459,18.8550561 9.45288682,19.1062079 C8.84805594,19.3126743 8.62065002,22.9129516 8.93511617,23.0090091 C9.12071351,23.0659259 9.54142265,23.11371 9.66979961,23.2582038 C9.84736314,23.4583098 9.62635147,24.2442193 9.88753217,24.3035824 C11.1288373,24.5853943 12.060267,24.5645194 14.0721618,23.2591823 C14.3797418,23.0597287 13.1443391,20.5935485 12.3450573,20.015247 Z M16.6162553,22.0311479 C16.4913214,19.8886926 16.0834007,18.8708754 15.4761105,17.8416423 C14.7017499,16.528151 11.6477556,16.5736519 10.9493063,16.9707653 C10.0541107,17.4797554 9.81588373,18.7281756 9.81588373,18.7281756 C11.0967021,18.8015641 11.8856547,19.0869638 12.4034253,19.348227 C13.0205529,19.6592312 14.478115,22.8208083 14.478115,22.8208083 C15.8230398,23.0850069 16.6162553,22.0311479 16.6162553,22.0311479 Z M18.9716363,19.7422417 C18.7758737,17.7496621 17.2476469,16.0100281 16.6716721,15.5649676 C15.2264067,14.447179 13.9270614,14.4398401 13.1717196,14.7146393 C11.5644664,15.2993012 11.2206522,16.4909675 11.2206522,16.4909675 C12.3319409,16.3171183 13.9929714,16.1155445 15.1424616,16.932114 C16.6911828,18.0319632 17.0066327,21.5632554 17.0066327,21.5632554 C18.2718753,21.6079408 18.9716363,19.7422417 18.9716363,19.7422417 Z M13.4169967,14.3980902 C14.6164932,14.1779247 15.4310228,14.2115203 16.6597034,15.047497 C18.4884602,16.29184 19.1269019,18.7624235 19.1269019,18.7624235 C20.1086659,18.768947 20.5631498,17.2196339 20.5631498,17.2196339 C20.0127521,15.339094 19.305941,14.3644946 18.5779797,13.7749402 C17.4460328,12.85791 16.2224348,12.6949875 15.4493858,12.9158053 C13.5881659,13.4474643 13.4169967,14.3980902 13.4169967,14.3980902 Z M21.7395287,14.7661744 C21.7395287,14.7661744 21.5124507,11.4429794 18.5414177,11.5863317 C18.5414177,11.5863317 16.9753173,11.4007403 16.3636003,12.5837631 C16.3636003,12.5837631 19.6859893,12.8169755 20.6646381,16.4924353 C20.6646381,16.4924353 21.8365902,16.3618037 21.7395287,14.7661744 Z M20.6636544,10.7674789 C20.6636544,10.7674789 19.6627076,10.5838446 18.892118,11.3265363 C18.892118,11.3265363 21.8064224,11.2880481 21.9589008,14.6132001 C21.9589008,14.6132001 22.9754233,14.189993 23.0285448,13.3011766 C23.0285448,13.3011766 22.9952619,10.6244529 20.6636544,10.7674789 Z M21.1183023,10.4905596 C21.1183023,10.4905596 22.9037748,10.5228506 23.222012,12.6754172 C23.6384583,12.044276 23.4790938,9.69584358 21.1183023,10.4905596 Z M26.4156961,10.5820506 C26.4661943,9.61935644 25.9417015,8.92559036 25.9417015,8.92559036 C24.7212187,8.05243015 22.5415977,10.0546319 22.5415977,10.0546319 C23.7473245,10.3113286 23.6446886,11.7371858 23.6446886,11.7371858 C25.4372112,12.1321791 26.4156961,10.5820506 26.4156961,10.5820506 Z M28.9114228,9.26334061 C28.361025,8.193173 27.7465208,7.84563763 27.7465208,7.84563763 C26.4427487,7.84172357 26.2340337,8.7543505 26.2340337,8.7543505 C26.9383854,9.56113488 26.7188493,10.4422863 26.7188493,10.4422863 C28.8350196,10.6554392 28.9114228,9.26334061 28.9114228,9.26334061 Z M28.1659183,5.78847607 C28.5372769,6.85048939 27.8163657,7.54131993 27.8163657,7.54131993 C28.8417418,7.95686199 29.1814571,9.02980205 29.1814571,9.02980205 C30.8592111,7.08370178 29.438047,5.3344458 29.438047,5.3344458 C29.1212855,6.0393017 28.1659183,5.78847607 28.1659183,5.78847607 Z M26.5596488,3.14420641 C26.5596488,3.14420641 27.452713,4.69091009 28.0619707,5.42561064 C28.0619707,5.42561064 29.0106157,5.62245494 29.2208063,4.81436588 C29.2208063,4.81436588 29.0035656,2.68348963 27.5343627,2.10649284 C27.5343627,2.10649284 27.7870177,2.9294227 26.5596488,3.14420641 Z M21.9505391,2.84869533 C21.9505391,2.84869533 22.2168024,3.10653364 22.6889935,3.048149 C22.6889935,3.048149 24.5774299,1.90459289 26.273055,2.92844418 C26.273055,2.92844418 27.2561307,2.51795777 27.0879126,1.73596239 C27.0879126,1.73596239 24.866483,-0.0863559241 21.7606789,2.00407509 C21.7606789,2.00407509 22.2479539,2.29029029 21.9505391,2.84869533 Z M20.0745632,3.32262204 C20.8964708,2.65315572 21.6242681,2.82146004 21.6242681,2.82146004 C21.8385576,2.32714763 21.4986784,2.05952419 21.4986784,2.05952419 C20.5195377,1.97830757 19.7648517,2.93986017 19.7648517,2.93986017 C19.7251746,3.12855019 20.0745632,3.32262204 20.0745632,3.32262204 Z M20.3545987,5.4318079 C20.7656345,5.60467862 21.4140775,5.38973182 21.7403484,5.26725454 C22.7476894,4.88905907 22.8614744,5.14118939 23.0567451,5.40701889 C23.5277885,6.049413 22.4296163,6.93137984 22.7809724,6.83303923 C23.8391395,6.53687581 23.7527351,4.78093333 22.8475382,3.90369597 C21.8713487,2.95747342 21.100759,3.00052801 20.5892187,3.2846231 C19.086241,4.12011054 19.8546992,5.22126441 20.3545987,5.4318079 Z M7.83005785,21.4066932 C7.83005785,21.4066932 8.09304205,21.5769545 8.53654098,21.3088418 C8.53654098,21.3088418 8.52998277,20.4549257 8.89084826,19.57883 L8.7185313,19.1895447 C8.7185313,19.1895447 8.11976676,19.8136732 7.75217911,19.2528219 C7.75217911,19.2528219 8.13714601,19.9757803 7.18981263,20.2691712 C7.18981263,20.2691712 7.40705332,20.8063752 7.20899539,21.0821529 C7.20899539,21.0821529 7.92646353,20.8755234 7.83005785,21.4066932 Z M7.50034385,19.5569765 C7.50034385,19.5569765 7.49657288,17.0896547 6.26100618,16.7117854 C6.26100618,16.7117854 4.16696984,16.3401134 2.82220895,18.283115 C2.82220895,18.283115 2.89238179,18.9323587 3.00649464,19.1464901 C3.00649464,19.1464901 3.69707412,18.9543753 3.94415467,19.0298839 C3.94415467,19.0298839 5.05085255,17.4177829 5.97490429,20.1890962 C5.97490429,20.1890962 6.50874255,19.7021227 6.9792941,20.0028525 C6.9792941,20.0028525 7.49558915,19.9368028 7.50034385,19.5569765 Z M5.49992595,20.8512237 C5.56436036,18.9649758 4.13909745,19.2014499 4.13909745,19.2014499 C3.25849385,19.4252033 2.87828164,20.0715115 2.87828164,20.0715115 C2.44429212,19.5799716 2.44724331,18.5495968 2.44724331,18.5495968 C0.670788273,22.9838939 4.75983199,26.4540289 4.75983199,26.4540289 C4.31289001,26.0032604 4.36027307,25.7041614 4.36027307,25.7041614 C4.66768915,26.0223414 5.37728743,26.0598511 5.37728743,26.0598511 C4.54570645,25.4693182 4.00842512,24.0718378 4.00842512,24.0718378 C5.84865875,22.3475339 5.49992595,20.8512237 5.49992595,20.8512237 Z M13.1349936,25.7581427 C13.3027198,24.7855003 14.0739653,25.0702478 14.0739653,25.0702478 C13.466839,24.7814232 14.0100228,24.1090213 14.0100228,24.1090213 L13.5994788,23.9901319 C12.7734723,24.46096 11.9217248,24.5669656 11.9217248,24.5669656 C11.7130098,25.0394246 11.9171341,25.2763879 11.9171341,25.2763879 C12.4337571,25.1115084 12.3222675,25.8460459 12.3222675,25.8460459 C12.5708237,25.6146274 13.1349936,25.7581427 13.1349936,25.7581427 Z M13.803931,25.35842 C13.4261781,25.4130536 13.4279817,25.9310135 13.4279817,25.9310135 C13.7898309,26.3553622 13.3745322,26.9458951 13.3745322,26.9458951 C16.2580131,27.4922318 14.7971719,28.7956117 14.7971719,28.7956117 C14.9047265,29.0294765 14.803894,29.7358001 14.803894,29.7358001 C15.0324476,29.8202785 15.6884326,29.8034807 15.6884326,29.8034807 C17.4483281,28.2223659 16.8023445,26.206465 16.8023445,26.206465 C16.2634236,25.0376306 13.803931,25.35842 13.803931,25.35842 Z M13.8988611,29.9836902 C13.8988611,29.9836902 14.4928709,29.524115 14.6004256,28.6261658 C14.6004256,28.6261658 14.6484645,27.1895449 12.7774073,27.5012015 C12.7774073,27.5012015 11.239835,27.3540983 9.76374596,29.3954405 C9.76374596,29.3954405 8.30044543,29.0492098 7.60232401,28.3066812 C7.60232401,28.3066812 7.73332425,29.0017519 8.09058272,29.2628519 C8.09058272,29.2628519 7.79874239,29.3489611 7.2906451,28.967504 C7.2906451,28.967504 11.2868902,32.5436446 15.4725035,30.2087483 C15.4725035,30.2087483 14.4459797,30.3470449 13.8988611,29.9836902 Z M9.35320204,16.6260024 C9.35320204,16.6260024 9.27220815,17.2514356 9.82998388,17.7806483 C9.82998388,17.7806483 10.0721458,17.0699213 10.5727011,16.909282 C10.5727011,16.909282 10.2290509,16.7817491 10.1800283,16.4304628 C10.1800283,16.4304628 9.54486571,16.6622074 9.35320204,16.6260024 Z M11.5190508,12.5351636 C11.5741397,12.4394324 11.6389021,12.0982573 11.2116347,12.2169836 C10.9517656,12.2893936 10.2518407,12.5513091 10.1377279,12.3370146 C10.1377279,12.3370146 9.28598039,14.946384 9.26105919,16.1941518 C9.26105919,16.1941518 9.77112395,16.4399217 10.159206,16.1325054 C10.159206,16.1325054 9.99279143,14.3074146 10.6987827,13.5847824 C10.9315991,13.3465144 11.2941042,12.9262428 11.5190508,12.5351636 Z M8.7906716,16.4764529 C8.7906716,16.4764529 9.03086603,13.3660846 9.90163232,12.1527279 C9.96180389,12.0687388 10.2121635,12.0235641 10.3118483,12.2109495 C10.3118483,12.2109495 11.0704692,11.8818427 11.5046227,11.9255497 C11.8326972,11.958493 10.2849597,11.059076 9.65930647,11.6973929 C8.79132743,12.5827846 8.22141901,14.3069254 7.98745488,16.52228 C7.98745488,16.52228 8.33290857,16.7174934 8.7906716,16.4764529 Z M8.85412228,16.8544853 C8.54359106,16.9836491 7.92892286,16.9303201 7.92892286,16.9303201 C7.84514173,17.4203923 8.3540588,18.1811865 8.3540588,18.1811865 C8.4057047,17.5020981 8.85412228,16.8544853 8.85412228,16.8544853 Z M13.3045234,13.6865478 C13.3045234,13.6865478 12.5554119,13.7041611 12.2322561,13.8744224 C12.2322561,13.8744224 11.5274125,14.6228222 11.7556382,15.0514111 C11.7556382,15.0514111 12.6695247,14.5013234 12.9669395,14.4130941 C12.9669395,14.4130941 13.0115353,13.9783079 13.3045234,13.6865478 Z M13.4201118,13.385818 C13.4201118,13.385818 14.4812301,12.1406596 16.3881935,10.9304014 C16.3881935,10.9304014 16.1963659,10.3111655 14.558617,10.7966713 C14.558617,10.7966713 13.0808884,11.7123968 12.4919612,13.3259656 C12.4919612,13.3259656 13.225169,13.2140889 13.4201118,13.385818 Z M16.4309859,10.4277717 C16.4309859,10.4277717 16.0850403,8.48346534 12.8121658,7.84123431 C12.8121658,7.84123431 12.7411731,8.29037201 12.598696,8.60545336 C12.598696,8.60545336 14.2969444,10.1115487 14.6820753,10.2516392 C14.6820753,10.2516392 15.7923802,9.94096121 16.4309859,10.4277717 Z M10.0721458,8.97614689 C10.0721458,8.97614689 11.4865876,8.8482878 12.2040558,8.64182145 C12.2040558,8.64182145 12.5619701,8.21306945 12.4321175,7.90434844 C12.4321175,7.90434844 10.5851617,8.19154215 9.9024521,8.13968093 C9.9024521,8.13968093 9.55732631,8.52733537 10.0721458,8.97614689 Z M9.56536012,8.86606412 C9.56536012,8.86606412 9.29598166,8.42475453 9.50469668,8.04036181 C9.50469668,8.04036181 8.58785897,7.8718944 8.18698841,7.05418329 C8.18698841,7.05418329 8.00499809,8.59077566 9.56536012,8.86606412 Z M16.1266849,11.4108516 C16.1266849,11.4108516 15.42676,11.7797512 15.3603581,12.4320935 C15.3603581,12.4320935 15.8499285,12.3800692 16.0953695,12.3878973 C16.0953695,12.3878973 16.1806262,11.9655056 16.598876,11.7795881 C16.598876,11.7795881 16.2122696,11.571654 16.1266849,11.4108516 Z M20.0957134,8.63399334 C20.0957134,8.63399334 18.049552,9.12912117 16.3121183,11.1761714 C16.3121183,11.1761714 16.646423,11.480326 16.7556172,11.4912528 C16.7556172,11.4912528 18.1715347,9.68214439 20.932377,9.42805705 C20.932377,9.42805705 20.7120212,8.75516593 20.0957134,8.63399334 Z M17.654092,5.66746657 C17.654092,5.66746657 18.3466389,6.12590014 18.6458572,6.68838232 C18.6458572,6.68838232 19.3890663,8.14881373 20.0179986,8.22905183 C20.0179986,8.22905183 20.9923846,8.50466647 21.0479655,9.12683797 C21.0479655,9.12683797 22.3620667,7.6456947 18.1025095,5.01985371 C18.1025095,5.01985371 17.9885606,5.38859022 17.654092,5.66746657 Z M17.3106057,5.53993364 C17.3106057,5.53993364 17.8014877,4.97272198 17.8236217,4.75516581 C17.8236217,4.75516581 16.551329,3.98507568 13.9047635,5.03632536 C13.9047635,5.03632536 13.9903481,5.19712774 13.7386768,5.50128236 C13.7386768,5.50128236 16.1083219,6.00179201 17.3106057,5.53993364 Z M13.4896288,5.35809321 C13.4896288,5.35809321 13.7145754,5.06796396 13.6704715,4.91988225 C13.6704715,4.91988225 12.8418417,3.88167942 12.88447,3.37904965 C12.88447,3.37904965 12.2273374,4.41121831 13.4896288,5.35809321 Z M17.4768563,22.3543835 C17.1232049,22.3096981 16.990893,21.9691754 16.990893,21.9691754 C16.8351355,22.4688696 16.1234058,22.7180644 16.1234058,22.7180644 C16.6624907,23.2665212 17.2902753,23.1791073 17.2902753,23.1791073 C17.2514179,22.9887864 17.4768563,22.3543835 17.4768563,22.3543835 Z M21.3768597,20.9761472 C20.9863183,21.204304 20.5685603,21.570268 20.331645,21.8044589 C19.6133571,22.5151859 17.7767305,22.3711813 17.7767305,22.3711813 C17.4722656,22.7607928 17.7252485,23.2653796 17.7252485,23.2653796 C18.9795061,23.2257498 21.5924608,22.3475339 21.5924608,22.3475339 C21.375712,22.2366357 21.6304984,21.537814 21.7003434,21.2781818 C21.8146202,20.8517129 21.4724456,20.9202089 21.3768597,20.9761472 Z M21.9898883,20.983323 C22.0392388,21.4143582 21.7170668,22.1727062 21.7170668,22.1727062 C21.9065991,22.2700683 21.8639707,22.519263 21.7801896,22.5802571 C20.5710197,23.4609192 17.4473444,23.7366969 17.4473444,23.7366969 C17.2102651,24.1944782 17.4104545,24.5356532 17.4104545,24.5356532 C19.6348352,24.2769995 21.36112,23.6897283 22.2409038,22.8160788 C22.8752466,22.1862423 21.9529984,20.6573149 21.9898883,20.983323 Z M15.7384389,24.1913795 C15.7384389,24.1913795 16.5093565,24.6883013 17.0010582,24.5989304 C17.0010582,24.5989304 16.9400669,23.9880118 17.0663124,23.677823 C17.0663124,23.677823 16.4203288,24.131201 15.7384389,24.1913795 Z M20.1122729,18.5712872 C19.8617493,18.9432854 19.3884105,19.0898994 19.3884105,19.0898994 C19.5725322,19.5387109 20.3747652,19.4129719 20.3747652,19.4129719 C20.6744754,19.3038677 20.7279248,18.6924598 20.7279248,18.6924598 C20.3155774,18.7288279 20.1122729,18.5712872 20.1122729,18.5712872 Z M23.5302478,17.8680622 C22.1443342,18.6324443 21.0150104,18.7128455 21.0150104,18.7128455 C21.0638691,19.064458 20.7741602,19.4915792 20.7741602,19.4915792 C22.0336644,19.7195728 22.9632906,19.2640748 22.9632906,19.2640748 C23.5525457,18.8165679 23.5302478,17.8680622 23.5302478,17.8680622 Z M23.7843784,17.806742 C24.0099808,18.574712 23.3167781,19.4920684 23.3167781,19.4920684 C23.3090722,19.8999455 24.1057307,22.0197319 24.1057307,22.0197319 C24.452824,22.0014663 24.899602,22.098013 24.899602,22.098013 C25.481971,18.8310826 23.7843784,17.806742 23.7843784,17.806742 Z M24.1016318,22.3737907 C23.6482956,22.9648129 23.01674,24.2295416 23.01674,24.2295416 C23.251032,24.8694894 23.7394547,24.6897691 23.7394547,24.6897691 C23.9380045,24.037916 24.8748447,22.4290767 24.8748447,22.4290767 C24.6330108,22.1970059 24.1016318,22.3737907 24.1016318,22.3737907 Z M23.6886286,25.0942213 C23.2526716,25.148855 22.9364019,24.7395102 22.9364019,24.7395102 C22.6299696,26.2860508 24.1357345,26.6735421 24.1357345,26.6735421 C23.5146721,26.0057067 23.6886286,25.0942213 23.6886286,25.0942213 Z M22.1482691,15.3377894 C22.7637571,15.5729588 23.0337913,15.1590476 23.0337913,15.1590476 C22.9282042,15.0106397 22.9157436,14.5737334 22.9157436,14.5737334 C22.5602886,14.8610902 22.0690787,14.8651673 22.0690787,14.8651673 C22.1005581,15.0541835 22.1482691,15.3377894 22.1482691,15.3377894 Z M26.980358,11.7872531 C25.5070562,14.1236172 23.2456215,14.5644375 23.2456215,14.5644375 C23.2059443,14.6665291 23.328091,15.1004998 23.328091,15.1004998 C25.9480958,14.481427 27.3154825,12.8879177 27.3154825,12.8879177 C27.4846843,12.2861319 26.980358,11.7872531 26.980358,11.7872531 Z M28.4072604,15.0525527 C28.7769795,15.5721433 28.8761724,16.3934423 28.8761724,16.3934423 C29.276879,16.2228548 29.6593866,16.2877629 29.6593866,16.2877629 C29.2245773,11.3214807 27.30253,11.8203595 27.30253,11.8203595 C27.8358764,12.1502816 27.6435569,13.1393957 27.6435569,13.1393957 C27.4318907,13.7340057 28.4072604,15.0525527 28.4072604,15.0525527 Z M28.8355115,16.7559816 C27.8788327,17.6151164 27.2589179,19.944794 27.2589179,19.944794 C27.6456883,19.8585217 27.7509476,20.0066035 27.7509476,20.0066035 C29.888596,18.1311192 29.7710401,16.6545424 29.7710401,16.6545424 C29.5659321,16.5760982 28.8355115,16.7559816 28.8355115,16.7559816 Z M27.7499639,20.2672142 C27.6371626,20.1613717 27.2756413,20.2300307 27.2756413,20.2300307 C27.5555129,21.777876 28.7781272,21.6601282 28.7781272,21.6601282 C28.3077396,21.4712751 27.7499639,20.2672142 27.7499639,20.2672142 Z"
      transform="translate(8 8)"
    />
  </g>
</svg>
