<svg xmlns="http://www.w3.org/2000/svg" viewBox="0 0 32 19.2">
  <defs>
    <clipPath id="clip-path">
      <rect id="Rectangle_899" data-name="Rectangle 899" className="cls-1" />
    </clipPath>
  </defs>
  <g id="Script_writer" data-name="Script writer" className="cls-2">
    <path
      id="Path_966"
      data-name="Path 966"
      className="cls-3"
      d="M10.689,5.344A5.344,5.344,0,0,0,0,5.344v.069l1.884,5.843a1.336,1.336,0,0,0-.432,1.133l.788,8.424a1.336,1.336,0,0,0-.118,1.9,1.336,1.336,0,0,0,.55,2.151V28.5h.891V24.94H7.126V28.5h.891V24.862a1.336,1.336,0,0,0,.548-2.149,1.336,1.336,0,0,0-.118-1.9L9.234,12.4a1.336,1.336,0,0,0-.43-1.145l1.884-5.843ZM8.66,2.38,7.411,10.911H6.954L7.972,1.757a4.485,4.485,0,0,1,.688.623ZM6.253,10.911l.41-9.82a4.423,4.423,0,0,1,.891.392L6.507,10.911Zm-.445,0h-.24V.9a4.453,4.453,0,0,1,.655.076Zm-.686,0h-.24L4.467.978A4.453,4.453,0,0,1,5.122.9Zm-.686,0H4.182L3.135,1.483a4.422,4.422,0,0,1,.891-.392ZM2.672,21.822a.445.445,0,0,1,.445-.445H7.571a.445.445,0,1,1,0,.891H3.117A.445.445,0,0,1,2.672,21.822ZM2.717,1.757l1.018,9.154H3.489L2.033,2.376a4.484,4.484,0,0,1,.684-.619ZM.891,5.275a4.427,4.427,0,0,1,.77-2.432l1.376,8.068H2.71Zm6.68,18.774H3.117a.445.445,0,1,1,0-.891H7.571a.445.445,0,1,1,0,.891Zm.408-13.138H7.861L9.038,2.864A4.425,4.425,0,0,1,9.8,5.275Z"
      transform="rotate(-90 8.634 6.95)"
    />
  </g>
</svg>
