<svg xmlns="http://www.w3.org/2000/svg" width="6" height="8" viewBox="0 0 6 8">
    <path fill="#404040" fill-rule="evenodd" d="M5.497 4.643c.14 0 .258.047.356.14A.456.456 0 0 1 6 5.127a.456.456 0 0 1-.147.341L3.357 7.86A.497.497 0 0 1 3 8a.497.497 0 0 1-.357-.14L.147 5.466A.456.456 0 0 1 0 5.126c0-.134.049-.248.147-.342a.497.497 0 0 1 .356-.14h4.994zm.356-2.11A.456.456 0 0 1 6 2.874a.456.456 0 0 1-.147.342.497.497 0 0 1-.356.14H.503a.497.497 0 0 1-.356-.14A.456.456 0 0 1 0 2.874c0-.134.049-.248.147-.341L2.643.14A.497.497 0 0 1 3 0c.14 0 .259.047.357.14l2.496 2.393z"/>
</svg>
