<svg xmlns="http://www.w3.org/2000/svg" width="27.233" height="28.49" viewBox="0 0 27.233 28.49">
    <defs>
        <style>
            .cls-1{fill:#434343}
        </style>
    </defs>
    <g id="noun_meditation_51613" transform="translate(-3.161 -1)">
        <circle id="Ellipse_14" cx="3.779" cy="3.779" r="3.779" class="cls-1" data-name="Ellipse 14" transform="translate(12.999 1)"/>
        <path id="Path_267" d="M16.778 49.535l8.878 1.211a2.514 2.514 0 0 0 1.543-4.7l-6.222-3.394.3-4.835 1.331 2.853a1.893 1.893 0 0 0 .376.535l4.19 4.19a1.885 1.885 0 1 0 2.666-2.666l-3.955-3.955-2.55-5.5A3.5 3.5 0 0 0 20.13 31h-6.7a3.5 3.5 0 0 0-3.207 2.273l-2.554 5.485-3.955 3.964A1.888 1.888 0 1 0 6.38 45.4l4.19-4.189a1.885 1.885 0 0 0 .375-.535l1.331-2.853.3 4.835-6.219 3.39a2.514 2.514 0 0 0 1.543 4.7z" class="cls-1" data-name="Path 267" transform="translate(0 -21.278)"/>
    </g>
</svg>
