<svg xmlns="http://www.w3.org/2000/svg" width="26.459" height="26.453" viewBox="0 0 26.459 26.453">
    <defs>
        <style>
            .cls-1{fill:#434343}
        </style>
    </defs>
    <g id="noun_Sports_909462" transform="translate(-181.712 17.609)">
        <g id="Group_607" data-name="Group 607" transform="translate(181.712 -17.609)">
            <path id="Path_259" d="M62.335 12.267A12.958 12.958 0 0 0 55.194 9a11.216 11.216 0 0 0 2.754 7.654z" class="cls-1" data-name="Path 259" transform="translate(-40.301 -8.904)"/>
            <path id="Path_260" d="M74.754 29.542a13.059 13.059 0 0 0-3.267-7.142L67.1 26.787a11.316 11.316 0 0 0 7.654 2.755z" class="cls-1" data-name="Path 260" transform="translate(-48.397 -18.013)"/>
            <path id="Path_261" d="M34.566 17.507a12.744 12.744 0 0 1-3.2-8.807h-.224a13.147 13.147 0 0 0-8.842 3.363l8.871 8.837z" class="cls-1" data-name="Path 261" transform="translate(-17.944 -8.7)"/>
            <path id="Path_262" d="M17.505 34.634l3.395-3.395-8.839-8.839A13.293 13.293 0 0 0 8.7 31.463a12.661 12.661 0 0 1 8.805 3.171z" class="cls-1" data-name="Path 262" transform="translate(-8.698 -18.013)"/>
            <path id="Path_263" d="M64.985 42.5a12.533 12.533 0 0 1-8.391-3.2L53.2 42.727l8.839 8.839A12.994 12.994 0 0 0 65.4 42.5z" class="cls-1" data-name="Path 263" transform="translate(-38.948 -29.5)"/>
            <path id="Path_264" d="M39.4 56.595a12.744 12.744 0 0 1 3.2 8.805 13.293 13.293 0 0 0 9.063-3.363L42.795 53.2z" class="cls-1" data-name="Path 264" transform="translate(-29.568 -38.949)"/>
            <path id="Path_265" d="M9 55.194a12.95 12.95 0 0 0 3.267 7.174l4.387-4.419A11.161 11.161 0 0 0 9 55.194z" class="cls-1" data-name="Path 265" transform="translate(-8.903 -40.302)"/>
            <path id="Path_266" d="M22.4 71.487a13.152 13.152 0 0 0 7.174 3.267 11.039 11.039 0 0 0-2.787-7.654z" class="cls-1" data-name="Path 266" transform="translate(-18.012 -48.397)"/>
        </g>
    </g>
</svg>
