<svg xmlns="http://www.w3.org/2000/svg" viewBox="0 0 32 19.2">
  <defs>
    <clipPath id="clip-path">
      <rect id="Rectangle_905" data-name="Rectangle 905" className="cls-1" />
    </clipPath>
  </defs>
  <g id="Stylist" className="cls-2">
    <path
      id="Path_991"
      data-name="Path 991"
      className="cls-3"
      d="M8.08,26.291a.9.9,0,1,1-1.041.728.9.9,0,0,1,1.041-.728M24,7.861l-8.928,8.928-10.6,9.846a.647.647,0,0,0-.045.958l3.075,3.072a.646.646,0,0,0,.928-.014l9.429-10.16,3.316,3.319a1.3,1.3,0,0,0,1.833,0l-4.245-4.245.358-.358,3.789,3.788a.648.648,0,1,0,.917-.916l-3.788-3.79.358-.358,3.789,3.789a.648.648,0,1,0,.917-.915l-3.79-3.79.359-.36,3.789,3.789a.648.648,0,1,0,.917-.917L22.6,15.736l.36-.36,3.79,3.79a.648.648,0,1,0,.915-.917L23.871,14.46l.358-.358,3.79,3.789a.648.648,0,1,0,.915-.917l-3.788-3.79.358-.358,3.789,3.79a.648.648,0,0,0,.916-.917l-3.789-3.79.359-.358L31.025,15.8a1.3,1.3,0,0,0,0-1.833l-6.1-6.1A.65.65,0,0,0,24,7.861Z"
      transform="rotate(-135 14.454 15.376)"
    />
  </g>
</svg>
