<svg xmlns="http://www.w3.org/2000/svg" width="48" height="48" viewBox="0 0 48 48">
  <g>
    <path
      d="M18.2420679,13.9934596 C19.8420303,12.2470762 17.99098,9.72807585 17.3725296,9.91995984 C15.9466825,11.519292 14.8699559,10.4192468 14.7913519,9.77290856 C14.5638452,7.9056263 18.3653131,6.27730236 20.4796126,5.2948683 C24.2663979,3.53533397 21.8507335,-0.0916320595 21.7107294,1.31835659 C21.5337962,3.09941061 17.8015889,3.71884919 13.0062993,6.47127854 C10.0482673,8.16924262 10.3862646,12.7373966 11.7247574,14.1614329 C14.209089,16.8040221 18.2420679,13.9934596 18.2420679,13.9934596 Z M27.5771098,18.6378292 C25.9913851,17.8549007 23.6589223,16.2873998 22.9126292,13.5143474 C22.35899,11.4575723 20.8273983,8.45333254 16.6594578,7.98049692 C15.8565104,8.58424404 15.399124,9.19262388 15.7691561,9.6830937 C16.4358071,10.1309725 17.0136207,9.10116516 17.23564,8.87700162 C17.3622963,8.74937785 17.8818243,9.18993392 17.8818243,9.18993392 C18.0121883,9.26106848 19.1687054,9.92653531 19.529394,11.2990139 C19.7792954,12.2497662 19.5821921,13.2552144 18.9444615,14.2866655 L18.8249241,14.4806417 L18.6328633,14.6015406 C18.5406149,14.6593748 16.3509741,16.0193002 14.1911436,16.0195991 C12.8735624,16.0195991 11.7871956,15.514484 11.0493561,14.5589495 C10.1896062,13.4450062 9.83722297,11.572344 10.1513424,9.78860001 C10.2459638,9.25180306 10.3996124,8.74235406 10.6044278,8.26488572 C9.68090481,8.39893552 8.61278014,8.57811691 7.33242464,8.81393695 C6.41349928,8.98325514 4.20709956,8.95501053 3.60066221,8.62653623 C3.60066221,8.62653623 0.10219055,25.2658967 9.9914648,31 C9.9914648,31 10.3072156,28.4681476 11.5306203,28.0855751 C14.2360813,27.2394325 15.2158136,25.9700691 15.728816,25.7823695 C17.3557706,25.1866923 20.1603024,25.9232937 21.3731771,24.9360774 C21.8793572,24.5240649 22.1661877,23.9490107 23.6122049,24.4191563 C24.3875667,24.6712656 25.6011829,24.1779563 26.7373816,23.9490107 C27.4369573,23.8080865 28.1909626,24.1863251 28.6032629,22.6800956 C28.8703682,21.7045359 29.7333809,19.7023072 27.5771098,18.6378292 Z M20.0162939,17.141164 C19.4079285,17.1596949 19.0580665,16.5547522 18.4680915,16.4351983 C18.9104986,16.4062065 19.1311831,15.5995167 19.9787716,15.5995167 C20.5875819,15.5995167 20.9009598,16.2125292 21.4247888,16.3045857 C20.9746696,16.5094712 20.5691915,17.1241276 20.0162939,17.141164 Z M28.3294836,21.1499553 C27.9729477,23.3887513 27.643849,23.3334576 27.0952523,23.3611044 C26.854991,23.3732093 25.3229544,23.5616561 23.4530688,23.5616561 C22.2734154,23.5616561 24.8095071,22.9181573 25.9704735,23.0294918 C27.6029156,23.1861074 27.5410706,22.4713246 27.3694765,22.0897983 C27.136779,21.5719805 27.3970621,21.2935694 27.5068111,21.0946616 C27.9905965,20.2165383 26.4689415,20.2038357 25.9704735,19.9890871 C24.425089,19.3233213 25.896912,18.3763051 26.7661537,18.8282188 C27.3301745,19.1215742 27.8967166,19.4513934 28.0825484,19.6851213 C28.3621117,20.0358625 28.4260331,20.5432193 28.3294836,21.1499553 Z"
      transform="translate(8 8)"
    />
  </g>
</svg>
