<svg xmlns="http://www.w3.org/2000/svg" viewBox="0 0 213 43">
  <g fill="currentColor">
    <path d="M134.5 13c3.583.006 6.493-2.904 6.5-6.5-.007-3.596-2.917-6.506-6.5-6.5-3.583-.006-6.493 2.904-6.5 6.5.007 3.596 2.917 6.506 6.5 6.5M73.861 20.208h-.099v-.017h-3.174V16.86h5.817v1.3h2.524V12h-2.414v1.615H52.362v3.247h2.607v3.542C50.824 22.527 51 29.184 51 29.184c0 10.624 10.754 10.783 10.754 10.783a10.47 10.47 0 0 0 6.471-1.615c.572 1.215 3.946 1.456 3.946 1.456C82.844 40.074 83 29.56 83 29.56c0-9.592-9.14-9.35-9.14-9.35l.001-.002zM64 32.83C64 36.035 61.949 36 61.949 36 58.13 36 58 30.287 58 30.287c0-3.921.909-5.578 1.678-6.287H64v8.831zM64 20h-1.994L62 17h2v3zm11.984 9.679c.244 3.606-2.36 6.793-5.984 7.321.789-.522.947-2.088.947-2.088V24h2.122c1.235.565 2.607 1.836 2.905 4.691.022.329.026.658.01.987v.001zM48.084 16.761c.027-.258.039-.518.037-.778C47.968 9.619 42.23 5 34.964 5c-7.12 0-12.91 4.721-13.142 10.617a12.366 12.366 0 0 0-3.07-.995l.012-.025a18.002 18.002 0 0 0-11.176 1.414h.033C.797 19.328 1 27.024 1 27.024 1 38.78 7.456 40.568 9.858 40.826c.52.115 1.052.173 1.585.174a7.563 7.563 0 0 0 4.054-1.192 8.177 8.177 0 0 0 4.06-6.521c.068-.465.104-.934.108-1.405 0-5.033-3.68-9.113-8.219-9.113a7.496 7.496 0 0 0-3.152.702c.715-3.003 3.338-5.141 6.386-5.205 6.902 0 7.414 9.762 7.414 9.762 0 7.413-2.298 9.002-3.534 9.602h-.297v3.279H38.48V17.192h1.418V14.51h-9.453v2.68h1.325v5.218a3.566 3.566 0 0 1-.363-.029 5.541 5.541 0 0 1-2.502-4.557c0-3.153 2.797-5.708 6.246-5.708 2.968-.114 5.591 1.94 6.229 4.88v20.634h-2.012v3.28H50v-3.28h-1.916V16.761zM11 28c1.104 0 2 1.792 2 4s-.896 4-2 4-2-1.792-2-4 .896-4 2-4zm19.237-1.999c.894.347 1.819.615 2.763.8V38h-7c2.813-2.612 4.398-6.224 4.386-9.995 0-.67-.05-1.34-.148-2.005l-.001.001zM140.267 17.397h5.758v19.908h-2.737V41h12.468v-3.695h-2.938V17.397h1.936v2.335H158V12h-3.246v2.113H118.58l-.13.011c-9.91.73-9.448 13.668-9.448 13.668 0 13.546 9.984 12.98 9.984 12.98 2.09.135 4.144-.6 5.688-2.034a8.29 8.29 0 0 0 1.298-1.409c.342.394.71.764 1.1 1.107a7.127 7.127 0 0 0 2.844 1.792 9.085 9.085 0 0 0 3.493.705c5.996 0 10.857-5.937 10.857-13.264a14.513 14.513 0 0 0-4-10.273M118.5 36c-1.383 0-2.5-1.79-2.5-4s1.12-4 2.5-4 2.5 1.79 2.5 4-1.12 4-2.5 4m4.836-12.606a7.285 7.285 0 0 0-3.15-.721c-1.5.007-2.96.47-4.186 1.327.625-2.336 2.024-6.038 4.797-7H127a13.91 13.91 0 0 0-3.664 6.39M133 37c-1.656 0-2.999-4.252-2.999-9.499 0-5.247 1.344-9.501 3-9.501 1.655 0 3 4.253 3 9.5s-1.344 9.499-3 9.499" />
    <path d="M82 14v3.222h3.482v19.556H82.23V40H109v-7.14h-3.26v3.919H92.26V17.222h3.211V14z" />
    <path d="M208.625 11.548h-15.05l7.525-9.1c.35-.35.262-.963-.088-1.225-.35-.35-.962-.263-1.225.087L192 10.76l-7.787-9.362c-.35-.35-.875-.438-1.225-.088-.35.35-.438.875-.088 1.225l7.525 9.013h-15.05A4.333 4.333 0 0 0 171 15.923v19.25a4.333 4.333 0 0 0 4.375 4.375v2.187c0 .7.612 1.313 1.313 1.313h4.375c1.925 0 1.137-2.625 1.312-3.5h19.25c.175.875-.613 3.5 1.313 3.5h4.375c1.925 0 1.137-2.625 1.312-3.5A4.333 4.333 0 0 0 213 35.173v-19.25a4.333 4.333 0 0 0-4.375-4.375zm-28 29.75h-3.5v-1.75h3.5v1.75zm26.25 0h-3.5v-1.75h3.5v1.75zm4.375-6.125c0 1.487-1.138 2.625-2.625 2.625h-33.25c-1.487 0-2.625-1.138-2.625-2.625v-19.25c0-1.488 1.138-2.625 2.625-2.625h33.25c1.487 0 2.625 1.137 2.625 2.625v19.25z" />
    <path d="M193.375 16H180.25c-2.888 0-5.25 2.363-5.25 5.25V30c0 2.888 2.362 5.25 5.25 5.25h13.125c2.887 0 5.25-2.362 5.25-5.25v-8.75c0-2.887-2.363-5.25-5.25-5.25zm3.5 14a3.51 3.51 0 0 1-3.5 3.5H180.25a3.51 3.51 0 0 1-3.5-3.5v-8.75a3.51 3.51 0 0 1 3.5-3.5h13.125a3.51 3.51 0 0 1 3.5 3.5V30z" />
    <path d="M190.8 20c-.48 0-.8.32-.8.8 0 .48.32.8.8.8.88 0 1.6.72 1.6 1.6 0 .48.32.8.8.8.48 0 .8-.32.8-.8 0-1.76-1.44-3.2-3.2-3.2zM205.625 17c-1.487 0-2.625 1.137-2.625 2.625s1.138 2.625 2.625 2.625 2.625-1.137 2.625-2.625S207.112 17 205.625 17zm0 3.5c-.525 0-.875-.35-.875-.875s.35-.875.875-.875.875.35.875.875-.35.875-.875.875zM205.625 25c-1.487 0-2.625 1.137-2.625 2.625s1.138 2.625 2.625 2.625 2.625-1.137 2.625-2.625S207.112 25 205.625 25zm0 3.5c-.525 0-.875-.35-.875-.875s.35-.875.875-.875.875.35.875.875-.35.875-.875.875zM206 32h-2c-.6 0-1 .393-1 .982 0 1.473 2.1.883 3 .982.6 0 1-.393 1-.982 0-.59-.4-.982-1-.982z" />
  </g>
</svg>
