<svg xmlns="http://www.w3.org/2000/svg" width="48" height="48" viewBox="0 0 48 48">
  <g>
    <path
      d="M26.1605963,21.8189716 C25.0926564,21.0885707 23.9219217,20.0025666 23.7271602,17.7322768 C23.5983779,16.2299109 23.8929024,13.8697101 24.4898919,11.7385442 C25.0682571,9.67405401 24.7464458,5.74683219 22.3597871,4.94787952 C22.424467,4.34433543 22.1796074,3.62403688 21.3849689,2.79217937 C19.8501211,1.1859035 16.910074,0.0840242304 12.526424,2.06221141 C10.9023527,2.79492144 8.96498811,4.28328829 7.62547934,7.2349104 C6.61788808,9.45584295 5.8755132,11.6744664 7.04711416,16.9720017 C7.33817362,18.2874738 7.65897428,19.9713936 6.89508757,22.3578606 C6.65138302,23.1190016 6.78261965,23.5359406 5.46418959,24.6098218 C4.64226423,25.2796086 5.03799537,26.4354633 5.67728669,26.9831558 C6.02710667,27.2829073 5.22236191,26.1417732 6.62106432,25.4009813 C8.20889764,24.5600316 9.87209456,24.9551784 9.68946052,20.6950115 C9.68946052,20.6950115 10.8578852,21.7964578 10.0304736,25.18811 C9.81954216,26.0524394 9.55172703,27.0618099 8.41694163,28.0482336 C7.71686855,28.6571175 7.41252661,30.3305019 8.87359891,31 C8.59957566,30.5132104 8.45909905,29.9526735 9.20869266,29.4479883 C10.9873894,28.2504252 13.0210519,26.4725534 13.5005204,22.0234723 C13.6955706,20.214139 14.3787519,20.5338066 14.2914051,16.7741397 C14.2410184,14.6143986 15.7416493,14.7660784 15.7236025,13.9065116 C15.6986257,12.7262668 13.3619206,11.5962452 14.6181252,9.813178 C14.9159702,9.39017759 16.0500338,9.18524392 16.6969769,10.2972255 C16.6969769,10.2972255 17.2145604,7.93471558 20.1062419,7.11310475 C20.7777288,6.92245871 22.0270033,6.27330967 22.3118547,5.21054098 C22.3983352,5.46497623 22.4747094,5.73456503 22.5380899,6.02277104 C22.6492584,6.53005403 23.0566839,8.01553449 22.4807731,9.06084052 C22.2841347,9.41817557 22.0404302,9.81476551 22.0848976,10.0650155 C22.2165674,10.8052301 22.572018,11.7082372 23.1202088,12.3777352 C23.3112166,12.6112442 23.4550138,13.0469447 22.5416993,13.1384433 C22.3482371,13.1577821 21.9242085,13.5784734 22.1156494,14.0208126 C22.1585287,14.1202487 22.4807731,14.5024067 22.4807731,14.6294079 C22.4807731,14.9385402 21.9936528,14.9101092 21.9936528,15.0857461 C21.9936528,15.329213 22.3893839,15.2989059 22.3590652,15.57268 C22.342029,15.72537 21.9873003,15.7490384 21.9024079,15.8770498 C21.721362,16.1503909 21.8225687,16.6910117 21.9024079,17.0637889 C21.9935084,17.4889541 21.5348299,18.4330922 20.2280942,18.1288667 C19.7896281,18.0268328 18.7365588,17.5811743 18.7365588,17.5811743 C18.7365588,17.5811743 18.1464993,20.3272854 18.6656708,20.651427 C19.9087373,21.4281545 23.2603967,22.3326047 24.1490232,22.7274628 C24.7331633,22.9866606 26.128112,23.4406897 26.0120347,25.1272072 C25.943168,26.1273412 26.8432001,24.4871503 26.9718379,23.732648 C27.1011977,22.9736718 26.7770764,22.2408175 26.1605963,21.8189716 Z M21.3493083,9.90236744 C20.7403357,9.93281885 20.0890613,10.3891571 20.0890613,10.3891571 C20.2898866,10.6020283 21.2885266,10.7544297 21.2885266,10.7544297 C21.5624054,10.3587056 21.3493083,9.90236744 21.3493083,9.90236744 Z"
      transform="translate(8 8)"
    />
  </g>
</svg>
