<svg xmlns="http://www.w3.org/2000/svg" xmlns:xlink="http://www.w3.org/1999/xlink" width="24" height="24" viewBox="0 0 24 24">
    <defs>
        <path id="b" d="M18.417 3.615a11.073 11.073 0 0 1 2.393 3.463 9.972 9.972 0 0 1 .846 4.037c0 1.91-.491 3.678-1.474 5.302a10.93 10.93 0 0 1-3.964 3.87 10.62 10.62 0 0 1-5.39 1.433c-1.837 0-3.545-.43-5.124-1.29L0 21.911l1.547-5.494a10.18 10.18 0 0 1-1.45-5.302c0-1.911.483-3.679 1.45-5.303a10.796 10.796 0 0 1 3.915-3.87C7.106.988 8.895.51 10.828.51c1.418 0 2.78.27 4.085.812a11.276 11.276 0 0 1 3.504 2.293zm-7.589 16.337c1.611 0 3.11-.398 4.496-1.194a9.131 9.131 0 0 0 3.311-3.224 8.358 8.358 0 0 0 1.233-4.42 8.122 8.122 0 0 0-.725-3.343 9.446 9.446 0 0 0-2.007-2.89 8.964 8.964 0 0 0-2.9-1.935 8.84 8.84 0 0 0-3.408-.669 8.742 8.742 0 0 0-4.471 1.194 8.996 8.996 0 0 0-3.263 3.225 8.484 8.484 0 0 0-1.209 4.419c0 1.688.468 3.248 1.402 4.681l.193.335-.918 3.248 3.384-.86.338.191a8.697 8.697 0 0 0 4.544 1.242zm4.882-6.64l.145.096c.226.095.355.175.387.239.032.063.04.223.024.477a2.45 2.45 0 0 1-.193.789c-.113.27-.37.541-.773.812-.403.27-.75.422-1.04.454a4.48 4.48 0 0 1-1.305 0c-.483-.096-1.128-.319-1.934-.67-1.643-.7-3.142-2.006-4.495-3.917l-.097-.095c-.709-.987-1.063-1.895-1.063-2.723 0-.828.29-1.545.87-2.15l.048-.047c.226-.223.467-.335.725-.335h.58a.61.61 0 0 1 .315.072c.08.048.153.167.217.358l.822 1.959c.097.19.113.35.048.477-.16.319-.37.605-.628.86-.13.128-.21.231-.242.31-.032.08 0 .168.097.264.45.828.983 1.48 1.595 1.958.451.35 1.128.749 2.03 1.194.258.128.451.112.58-.047.42-.478.71-.828.87-1.051.065-.128.145-.191.242-.191s.21.016.339.047c.257.096.87.383 1.836.86z"/>
        <filter id="a" width="127.7%" height="128%" x="-13.9%" y="-14%" filterUnits="objectBoundingBox">
            <feOffset in="SourceAlpha" result="shadowOffsetOuter1"/>
            <feGaussianBlur in="shadowOffsetOuter1" result="shadowBlurOuter1" stdDeviation="1"/>
            <feColorMatrix in="shadowBlurOuter1" values="0 0 0 0 0 0 0 0 0 0 0 0 0 0 0 0 0 0 0.1 0"/>
        </filter>
    </defs>
    <g fill="none" fill-rule="evenodd" style="box-shadow: 0 0 1px 0 rgba(0,0,0,.2)">
        <path fill="#25D366" d="M12 21.382c5.316 0 9.625-4.258 9.625-9.511 0-5.254-4.31-9.512-9.625-9.512-5.316 0-9.625 4.258-9.625 9.512 0 1.62.373 3.648 1.07 5.35.401.983-1.542 3.583-.935 4.208.322.332 3.123-1.128 3.496-.914 1.654.95 3.766.867 5.994.867z"/>
        <g transform="translate(1 1)">
            <use fill="#000" filter="url(#a)" xlink:href="#b"/>
            <use fill="#FFF" xlink:href="#b"/>
        </g>
    </g>
</svg>
